ply
format ascii 1.0
element vertex 168
property float x
property float y
property float z
element face 348
property list uchar int vertex_index
end_header
58 500 0 
198 500 0 
198 490 0 
206 490 0 
206 459 0 
198 459 0 
198 401 0 
206 401 0 
206 370 0 
198 370 0 
198 360 0 
58 360 0 
58 370 0 
50 370 0 
50 401 0 
58 401 0 
58 459 0 
50 459 0 
50 490 0 
58 490 0 
248.5 500 0 
388.5 500 0 
388.5 490 0 
396.5 490 0 
396.5 459 0 
388.5 459 0 
388.5 401 0 
396.5 401 0 
396.5 370 0 
388.5 370 0 
388.5 360 0 
248.5 360 0 
248.5 370 0 
240.5 370 0 
240.5 401 0 
248.5 401 0 
248.5 459 0 
240.5 459 0 
240.5 490 0 
248.5 490 0 
58 309.5 0 
198 309.5 0 
198 299.5 0 
206 299.5 0 
206 268.5 0 
198 268.5 0 
198 210.5 0 
206 210.5 0 
206 179.5 0 
198 179.5 0 
198 169.5 0 
58 169.5 0 
58 179.5 0 
50 179.5 0 
50 210.5 0 
58 210.5 0 
58 268.5 0 
50 268.5 0 
50 299.5 0 
58 299.5 0 
248.5 309.5 0 
388.5 309.5 0 
388.5 299.5 0 
396.5 299.5 0 
396.5 268.5 0 
388.5 268.5 0 
388.5 210.5 0 
396.5 210.5 0 
396.5 179.5 0 
388.5 179.5 0 
388.5 169.5 0 
248.5 169.5 0 
248.5 179.5 0 
240.5 179.5 0 
240.5 210.5 0 
248.5 210.5 0 
248.5 268.5 0 
240.5 268.5 0 
240.5 299.5 0 
248.5 299.5 0 
0 550 0 
455 550 0 
455 119.5 0 
0 119.5 0 
58 500 20 
198 500 20 
198 490 20 
206 490 20 
206 459 20 
198 459 20 
198 401 20 
206 401 20 
206 370 20 
198 370 20 
198 360 20 
58 360 20 
58 370 20 
50 370 20 
50 401 20 
58 401 20 
58 459 20 
50 459 20 
50 490 20 
58 490 20 
248.5 500 20 
388.5 500 20 
388.5 490 20 
396.5 490 20 
396.5 459 20 
388.5 459 20 
388.5 401 20 
396.5 401 20 
396.5 370 20 
388.5 370 20 
388.5 360 20 
248.5 360 20 
248.5 370 20 
240.5 370 20 
240.5 401 20 
248.5 401 20 
248.5 459 20 
240.5 459 20 
240.5 490 20 
248.5 490 20 
58 309.5 20 
198 309.5 20 
198 299.5 20 
206 299.5 20 
206 268.5 20 
198 268.5 20 
198 210.5 20 
206 210.5 20 
206 179.5 20 
198 179.5 20 
198 169.5 20 
58 169.5 20 
58 179.5 20 
50 179.5 20 
50 210.5 20 
58 210.5 20 
58 268.5 20 
50 268.5 20 
50 299.5 20 
58 299.5 20 
248.5 309.5 20 
388.5 309.5 20 
388.5 299.5 20 
396.5 299.5 20 
396.5 268.5 20 
388.5 268.5 20 
388.5 210.5 20 
396.5 210.5 20 
396.5 179.5 20 
388.5 179.5 20 
388.5 169.5 20 
248.5 169.5 20 
248.5 179.5 20 
240.5 179.5 20 
240.5 210.5 20 
248.5 210.5 20 
248.5 268.5 20 
240.5 268.5 20 
240.5 299.5 20 
248.5 299.5 20 
0 550 20 
455 550 20 
455 119.5 20 
0 119.5 20 
3 2 3 1 
3 5 6 4 
3 6 7 4 
3 9 10 8 
3 12 13 11 
3 14 16 17 
3 15 16 14 
3 0 18 19 
3 3 20 1 
3 22 23 21 
3 4 7 34 
3 24 25 26 
3 26 27 24 
3 28 29 30 
3 7 33 34 
3 10 31 8 
3 8 31 33 
3 8 33 7 
3 32 33 31 
3 3 38 20 
3 4 34 37 
3 35 36 34 
3 4 37 3 
3 36 37 34 
3 3 37 38 
3 20 38 39 
3 13 40 11 
3 11 40 10 
3 31 10 41 
3 30 60 61 
3 40 41 10 
3 31 41 60 
3 42 43 41 
3 43 60 41 
3 45 46 44 
3 46 47 44 
3 49 50 48 
3 51 52 53 
3 54 56 57 
3 55 56 54 
3 40 58 59 
3 13 58 40 
3 30 31 60 
3 30 61 28 
3 28 61 63 
3 62 63 61 
3 44 47 74 
3 64 65 66 
3 66 67 64 
3 68 69 70 
3 47 73 74 
3 50 71 48 
3 48 71 73 
3 72 73 71 
3 48 73 47 
3 43 78 60 
3 44 74 77 
3 75 76 74 
3 44 77 43 
3 76 77 74 
3 43 77 78 
3 60 78 79 
3 80 20 81 
3 20 80 1 
3 1 80 0 
3 0 80 18 
3 18 80 17 
3 17 80 14 
3 14 80 13 
3 13 80 58 
3 57 58 83 
3 54 57 83 
3 53 54 83 
3 67 82 64 
3 64 82 63 
3 81 63 82 
3 63 81 28 
3 28 81 27 
3 27 81 24 
3 24 81 23 
3 23 81 21 
3 21 81 20 
3 50 83 71 
3 82 71 83 
3 71 82 70 
3 70 82 68 
3 68 82 67 
3 80 83 58 
3 53 83 51 
3 51 83 50 
3 86 87 85 
3 89 90 88 
3 90 91 88 
3 93 94 92 
3 96 97 95 
3 98 100 101 
3 99 100 98 
3 84 102 103 
3 87 104 85 
3 106 107 105 
3 88 91 118 
3 108 109 110 
3 110 111 108 
3 112 113 114 
3 91 117 118 
3 94 115 92 
3 92 115 117 
3 92 117 91 
3 116 117 115 
3 87 122 104 
3 88 118 121 
3 119 120 118 
3 88 121 87 
3 120 121 118 
3 87 121 122 
3 104 122 123 
3 97 124 95 
3 95 124 94 
3 115 94 125 
3 114 144 145 
3 124 125 94 
3 115 125 144 
3 126 127 125 
3 127 144 125 
3 129 130 128 
3 130 131 128 
3 133 134 132 
3 135 136 137 
3 138 140 141 
3 139 140 138 
3 124 142 143 
3 97 142 124 
3 114 115 144 
3 114 145 112 
3 112 145 147 
3 146 147 145 
3 128 131 158 
3 148 149 150 
3 150 151 148 
3 152 153 154 
3 131 157 158 
3 134 155 132 
3 132 155 157 
3 156 157 155 
3 132 157 131 
3 127 162 144 
3 128 158 161 
3 159 160 158 
3 128 161 127 
3 160 161 158 
3 127 161 162 
3 144 162 163 
3 164 104 165 
3 104 164 85 
3 85 164 84 
3 84 164 102 
3 102 164 101 
3 101 164 98 
3 98 164 97 
3 97 164 142 
3 141 142 167 
3 138 141 167 
3 137 138 167 
3 151 166 148 
3 148 166 147 
3 165 147 166 
3 147 165 112 
3 112 165 111 
3 111 165 108 
3 108 165 107 
3 107 165 105 
3 105 165 104 
3 134 167 155 
3 166 155 167 
3 155 166 154 
3 154 166 152 
3 152 166 151 
3 164 167 142 
3 137 167 135 
3 135 167 134 
3 84 0 1 
3 84 1 85 
3 85 1 2 
3 85 2 86 
3 86 2 3 
3 86 3 87 
3 87 3 4 
3 87 4 88 
3 88 4 5 
3 88 5 89 
3 89 5 6 
3 89 6 90 
3 90 6 7 
3 90 7 91 
3 91 7 8 
3 91 8 92 
3 92 8 9 
3 92 9 93 
3 93 9 10 
3 93 10 94 
3 94 10 11 
3 94 11 95 
3 95 11 12 
3 95 12 96 
3 96 12 13 
3 96 13 97 
3 97 13 14 
3 97 14 98 
3 98 14 15 
3 98 15 99 
3 99 15 16 
3 99 16 100 
3 100 16 17 
3 100 17 101 
3 101 17 18 
3 101 18 102 
3 102 18 19 
3 102 19 103 
3 103 19 0 
3 103 0 84 
3 104 20 21 
3 104 21 105 
3 105 21 22 
3 105 22 106 
3 106 22 23 
3 106 23 107 
3 107 23 24 
3 107 24 108 
3 108 24 25 
3 108 25 109 
3 109 25 26 
3 109 26 110 
3 110 26 27 
3 110 27 111 
3 111 27 28 
3 111 28 112 
3 112 28 29 
3 112 29 113 
3 113 29 30 
3 113 30 114 
3 114 30 31 
3 114 31 115 
3 115 31 32 
3 115 32 116 
3 116 32 33 
3 116 33 117 
3 117 33 34 
3 117 34 118 
3 118 34 35 
3 118 35 119 
3 119 35 36 
3 119 36 120 
3 120 36 37 
3 120 37 121 
3 121 37 38 
3 121 38 122 
3 122 38 39 
3 122 39 123 
3 123 39 20 
3 123 20 104 
3 124 40 41 
3 124 41 125 
3 125 41 42 
3 125 42 126 
3 126 42 43 
3 126 43 127 
3 127 43 44 
3 127 44 128 
3 128 44 45 
3 128 45 129 
3 129 45 46 
3 129 46 130 
3 130 46 47 
3 130 47 131 
3 131 47 48 
3 131 48 132 
3 132 48 49 
3 132 49 133 
3 133 49 50 
3 133 50 134 
3 134 50 51 
3 134 51 135 
3 135 51 52 
3 135 52 136 
3 136 52 53 
3 136 53 137 
3 137 53 54 
3 137 54 138 
3 138 54 55 
3 138 55 139 
3 139 55 56 
3 139 56 140 
3 140 56 57 
3 140 57 141 
3 141 57 58 
3 141 58 142 
3 142 58 59 
3 142 59 143 
3 143 59 40 
3 143 40 124 
3 144 60 61 
3 144 61 145 
3 145 61 62 
3 145 62 146 
3 146 62 63 
3 146 63 147 
3 147 63 64 
3 147 64 148 
3 148 64 65 
3 148 65 149 
3 149 65 66 
3 149 66 150 
3 150 66 67 
3 150 67 151 
3 151 67 68 
3 151 68 152 
3 152 68 69 
3 152 69 153 
3 153 69 70 
3 153 70 154 
3 154 70 71 
3 154 71 155 
3 155 71 72 
3 155 72 156 
3 156 72 73 
3 156 73 157 
3 157 73 74 
3 157 74 158 
3 158 74 75 
3 158 75 159 
3 159 75 76 
3 159 76 160 
3 160 76 77 
3 160 77 161 
3 161 77 78 
3 161 78 162 
3 162 78 79 
3 162 79 163 
3 163 79 60 
3 163 60 144 
3 164 80 81 
3 164 81 165 
3 165 81 82 
3 165 82 166 
3 166 82 83 
3 166 83 167 
3 167 83 80 
3 167 80 164 
