  0
SECTION
  2
HEADER
  9
$ACADVER
  1
AC1009
  9
$INSBASE
 10
0.0
 20
0.0
 30
0.0
  9
$EXTMIN
 10
0.0
 20
0.0
 30
0.0
  9
$EXTMAX
 10
0.0
 20
0.0
 30
0.0
  9
$LIMMIN
 10
0.0
 20
0.0
  9
$LIMMAX
 10
12.0
 20
9.0
  9
$ORTHOMODE
 70
     0
  9
$REGENMODE
 70
     1
  9
$FILLMODE
 70
     1
  9
$QTEXTMODE
 70
     0
  9
$MIRRTEXT
 70
     0
  9
$DRAGMODE
 70
     2
  9
$LTSCALE
 40
1.0
  9
$OSMODE
 70
    37
  9
$ATTMODE
 70
     1
  9
$TEXTSIZE
 40
0.2
  9
$TRACEWID
 40
0.05
  9
$TEXTSTYLE
  7
STANDARD
  9
$CLAYER
  8
0
  9
$CELTYPE
  6
BYLAYER
  9
$CECOLOR
 62
   256
  9
$DIMSCALE
 40
1.0
  9
$DIMASZ
 40
0.18
  9
$DIMEXO
 40
0.0625
  9
$DIMDLI
 40
0.38
  9
$DIMRND
 40
0.0
  9
$DIMDLE
 40
0.0
  9
$DIMEXE
 40
0.18
  9
$DIMTP
 40
0.0
  9
$DIMTM
 40
0.0
  9
$DIMTXT
 40
0.18
  9
$DIMCEN
 40
0.09
  9
$DIMTSZ
 40
0.0
  9
$DIMTOL
 70
     0
  9
$DIMLIM
 70
     0
  9
$DIMTIH
 70
     1
  9
$DIMTOH
 70
     1
  9
$DIMSE1
 70
     0
  9
$DIMSE2
 70
     0
  9
$DIMTAD
 70
     0
  9
$DIMZIN
 70
     0
  9
$DIMBLK
  1

  9
$DIMASO
 70
     1
  9
$DIMSHO
 70
     1
  9
$DIMPOST
  1

  9
$DIMAPOST
  1

  9
$DIMALT
 70
     0
  9
$DIMALTD
 70
     2
  9
$DIMALTF
 40
25.4
  9
$DIMLFAC
 40
1.0
  9
$DIMTOFL
 70
     0
  9
$DIMTVP
 40
0.0
  9
$DIMTIX
 70
     0
  9
$DIMSOXD
 70
     0
  9
$DIMSAH
 70
     0
  9
$DIMBLK1
  1

  9
$DIMBLK2
  1

  9
$DIMSTYLE
  2
STANDARD
  9
$DIMCLRD
 70
     0
  9
$DIMCLRE
 70
     0
  9
$DIMCLRT
 70
     0
  9
$DIMTFAC
 40
1.0
  9
$DIMGAP
 40
0.09
  9
$LUNITS
 70
     2
  9
$LUPREC
 70
     4
  9
$SKETCHINC
 40
0.1
  9
$FILLETRAD
 40
0.0
  9
$AUNITS
 70
     0
  9
$AUPREC
 70
     0
  9
$MENU
  1
.
  9
$ELEVATION
 40
0.0
  9
$PELEVATION
 40
0.0
  9
$THICKNESS
 40
0.0
  9
$LIMCHECK
 70
     0
  9
$BLIPMODE
 70
     0
  9
$CHAMFERA
 40
0.0
  9
$CHAMFERB
 40
0.0
  9
$SKPOLY
 70
     0
  9
$TDCREATE
 40
2459144.686180555727
  9
$TDUPDATE
 40
2459144.686180555727
  9
$TDINDWG
 40
0.0
  9
$TDUSRTIMER
 40
0.0
  9
$USRTIMER
 70
     1
  9
$ANGBASE
 50
0.0
  9
$ANGDIR
 70
     0
  9
$PDMODE
 70
     0
  9
$PDSIZE
 40
0.0
  9
$PLINEWID
 40
0.0
  9
$COORDS
 70
     1
  9
$SPLFRAME
 70
     0
  9
$SPLINETYPE
 70
     6
  9
$SPLINESEGS
 70
     8
  9
$ATTDIA
 70
     1
  9
$ATTREQ
 70
     1
  9
$HANDLING
 70
     1
  9
$HANDSEED
  5
64
  9
$SURFTAB1
 70
     6
  9
$SURFTAB2
 70
     6
  9
$SURFTYPE
 70
     6
  9
$SURFU
 70
     6
  9
$SURFV
 70
     6
  9
$UCSNAME
  2

  9
$UCSORG
 10
0.0
 20
0.0
 30
0.0
  9
$UCSXDIR
 10
1.0
 20
0.0
 30
0.0
  9
$UCSYDIR
 10
0.0
 20
1.0
 30
0.0
  9
$PUCSNAME
  2

  9
$PUCSORG
 10
0.0
 20
0.0
 30
0.0
  9
$PUCSXDIR
 10
1.0
 20
0.0
 30
0.0
  9
$PUCSYDIR
 10
0.0
 20
1.0
 30
0.0
  9
$USERI1
 70
     0
  9
$USERI2
 70
     0
  9
$USERI3
 70
     0
  9
$USERI4
 70
     0
  9
$USERI5
 70
     0
  9
$USERR1
 40
0.0
  9
$USERR2
 40
0.0
  9
$USERR3
 40
0.0
  9
$USERR4
 40
0.0
  9
$USERR5
 40
0.0
  9
$WORLDVIEW
 70
     1
  9
$SHADEDGE
 70
     3
  9
$SHADEDIF
 70
    70
  9
$TILEMODE
 70
     1
  9
$MAXACTVP
 70
    64
  9
$PLIMCHECK
 70
     0
  9
$PEXTMIN
 10
100000000000000000000.0
 20
100000000000000000000.0
 30
100000000000000000000.0
  9
$PEXTMAX
 10
-100000000000000000000.0
 20
-100000000000000000000.0
 30
-100000000000000000000.0
  9
$PLIMMIN
 10
0.0
 20
0.0
  9
$PLIMMAX
 10
12.0
 20
9.0
  9
$UNITMODE
 70
     0
  9
$VISRETAIN
 70
     1
  9
$PLINEGEN
 70
     0
  9
$PSLTSCALE
 70
     1
  0
ENDSEC
  0
SECTION
  2
TABLES
  0
ENDSEC
  0
SECTION
  2
ENTITIES
  0
POLYLINE
  5
1
100
AcDbEntity
  8
0
100
AcDb2dPolyline
 66
     1
 10
0.0
 20
0.0
 30
0.0
  0
VERTEX
  5
2
100
AcDbEntity
  8
0
100
AcDbVertex
100
AcDb2dVertex
 10
58.0
 20
500.0
 30
0.0
 70
     0
 50
0.0
  0
VERTEX
  5
3
100
AcDbEntity
  8
0
100
AcDbVertex
100
AcDb2dVertex
 10
198.0
 20
500.0
 30
0.0
 70
     0
 50
0.0
  0
VERTEX
  5
4
100
AcDbEntity
  8
0
100
AcDbVertex
100
AcDb2dVertex
 10
198.0
 20
490.0
 30
0.0
 70
     0
 50
0.0
  0
VERTEX
  5
5
100
AcDbEntity
  8
0
100
AcDbVertex
100
AcDb2dVertex
 10
206.0
 20
490.0
 30
0.0
 70
     0
 50
0.0
  0
VERTEX
  5
6
100
AcDbEntity
  8
0
100
AcDbVertex
100
AcDb2dVertex
 10
206.0
 20
459.0
 30
0.0
 70
     0
 50
0.0
  0
VERTEX
  5
7
100
AcDbEntity
  8
0
100
AcDbVertex
100
AcDb2dVertex
 10
198.0
 20
459.0
 30
0.0
 70
     0
 50
0.0
  0
VERTEX
  5
8
100
AcDbEntity
  8
0
100
AcDbVertex
100
AcDb2dVertex
 10
198.0
 20
401.0
 30
0.0
 70
     0
 50
0.0
  0
VERTEX
  5
9
100
AcDbEntity
  8
0
100
AcDbVertex
100
AcDb2dVertex
 10
206.0
 20
401.0
 30
0.0
 70
     0
 50
0.0
  0
VERTEX
  5
A
100
AcDbEntity
  8
0
100
AcDbVertex
100
AcDb2dVertex
 10
206.0
 20
370.0
 30
0.0
 70
     0
 50
0.0
  0
VERTEX
  5
B
100
AcDbEntity
  8
0
100
AcDbVertex
100
AcDb2dVertex
 10
198.0
 20
370.0
 30
0.0
 70
     0
 50
0.0
  0
VERTEX
  5
C
100
AcDbEntity
  8
0
100
AcDbVertex
100
AcDb2dVertex
 10
198.0
 20
360.0
 30
0.0
 70
     0
 50
0.0
  0
VERTEX
  5
D
100
AcDbEntity
  8
0
100
AcDbVertex
100
AcDb2dVertex
 10
58.0
 20
360.0
 30
0.0
 70
     0
 50
0.0
  0
VERTEX
  5
E
100
AcDbEntity
  8
0
100
AcDbVertex
100
AcDb2dVertex
 10
58.0
 20
370.0
 30
0.0
 70
     0
 50
0.0
  0
VERTEX
  5
F
100
AcDbEntity
  8
0
100
AcDbVertex
100
AcDb2dVertex
 10
50.0
 20
370.0
 30
0.0
 70
     0
 50
0.0
  0
VERTEX
  5
10
100
AcDbEntity
  8
0
100
AcDbVertex
100
AcDb2dVertex
 10
50.0
 20
401.0
 30
0.0
 70
     0
 50
0.0
  0
VERTEX
  5
11
100
AcDbEntity
  8
0
100
AcDbVertex
100
AcDb2dVertex
 10
58.0
 20
401.0
 30
0.0
 70
     0
 50
0.0
  0
VERTEX
  5
12
100
AcDbEntity
  8
0
100
AcDbVertex
100
AcDb2dVertex
 10
58.0
 20
459.0
 30
0.0
 70
     0
 50
0.0
  0
VERTEX
  5
13
100
AcDbEntity
  8
0
100
AcDbVertex
100
AcDb2dVertex
 10
50.0
 20
459.0
 30
0.0
 70
     0
 50
0.0
  0
VERTEX
  5
14
100
AcDbEntity
  8
0
100
AcDbVertex
100
AcDb2dVertex
 10
50.0
 20
490.0
 30
0.0
 70
     0
 50
0.0
  0
VERTEX
  5
15
100
AcDbEntity
  8
0
100
AcDbVertex
100
AcDb2dVertex
 10
58.0
 20
490.0
 30
0.0
 70
     0
 50
0.0
  0
VERTEX
  5
16
100
AcDbEntity
  8
0
100
AcDbVertex
100
AcDb2dVertex
 10
58.0
 20
500.0
 30
0.0
 70
     0
 50
0.0
  0
SEQEND
  5
17
100
AcDbEntity
  8
0
  0
POLYLINE
  5
18
100
AcDbEntity
  8
0
100
AcDb2dPolyline
 66
     1
 10
0.0
 20
0.0
 30
0.0
  0
VERTEX
  5
19
100
AcDbEntity
  8
0
100
AcDbVertex
100
AcDb2dVertex
 10
248.5
 20
500.0
 30
0.0
 70
     0
 50
0.0
  0
VERTEX
  5
1A
100
AcDbEntity
  8
0
100
AcDbVertex
100
AcDb2dVertex
 10
388.5
 20
500.0
 30
0.0
 70
     0
 50
0.0
  0
VERTEX
  5
1B
100
AcDbEntity
  8
0
100
AcDbVertex
100
AcDb2dVertex
 10
388.5
 20
490.0
 30
0.0
 70
     0
 50
0.0
  0
VERTEX
  5
1C
100
AcDbEntity
  8
0
100
AcDbVertex
100
AcDb2dVertex
 10
396.5
 20
490.0
 30
0.0
 70
     0
 50
0.0
  0
VERTEX
  5
1D
100
AcDbEntity
  8
0
100
AcDbVertex
100
AcDb2dVertex
 10
396.5
 20
459.0
 30
0.0
 70
     0
 50
0.0
  0
VERTEX
  5
1E
100
AcDbEntity
  8
0
100
AcDbVertex
100
AcDb2dVertex
 10
388.5
 20
459.0
 30
0.0
 70
     0
 50
0.0
  0
VERTEX
  5
1F
100
AcDbEntity
  8
0
100
AcDbVertex
100
AcDb2dVertex
 10
388.5
 20
401.0
 30
0.0
 70
     0
 50
0.0
  0
VERTEX
  5
20
100
AcDbEntity
  8
0
100
AcDbVertex
100
AcDb2dVertex
 10
396.5
 20
401.0
 30
0.0
 70
     0
 50
0.0
  0
VERTEX
  5
21
100
AcDbEntity
  8
0
100
AcDbVertex
100
AcDb2dVertex
 10
396.5
 20
370.0
 30
0.0
 70
     0
 50
0.0
  0
VERTEX
  5
22
100
AcDbEntity
  8
0
100
AcDbVertex
100
AcDb2dVertex
 10
388.5
 20
370.0
 30
0.0
 70
     0
 50
0.0
  0
VERTEX
  5
23
100
AcDbEntity
  8
0
100
AcDbVertex
100
AcDb2dVertex
 10
388.5
 20
360.0
 30
0.0
 70
     0
 50
0.0
  0
VERTEX
  5
24
100
AcDbEntity
  8
0
100
AcDbVertex
100
AcDb2dVertex
 10
248.5
 20
360.0
 30
0.0
 70
     0
 50
0.0
  0
VERTEX
  5
25
100
AcDbEntity
  8
0
100
AcDbVertex
100
AcDb2dVertex
 10
248.5
 20
370.0
 30
0.0
 70
     0
 50
0.0
  0
VERTEX
  5
26
100
AcDbEntity
  8
0
100
AcDbVertex
100
AcDb2dVertex
 10
240.5
 20
370.0
 30
0.0
 70
     0
 50
0.0
  0
VERTEX
  5
27
100
AcDbEntity
  8
0
100
AcDbVertex
100
AcDb2dVertex
 10
240.5
 20
401.0
 30
0.0
 70
     0
 50
0.0
  0
VERTEX
  5
28
100
AcDbEntity
  8
0
100
AcDbVertex
100
AcDb2dVertex
 10
248.5
 20
401.0
 30
0.0
 70
     0
 50
0.0
  0
VERTEX
  5
29
100
AcDbEntity
  8
0
100
AcDbVertex
100
AcDb2dVertex
 10
248.5
 20
459.0
 30
0.0
 70
     0
 50
0.0
  0
VERTEX
  5
2A
100
AcDbEntity
  8
0
100
AcDbVertex
100
AcDb2dVertex
 10
240.5
 20
459.0
 30
0.0
 70
     0
 50
0.0
  0
VERTEX
  5
2B
100
AcDbEntity
  8
0
100
AcDbVertex
100
AcDb2dVertex
 10
240.5
 20
490.0
 30
0.0
 70
     0
 50
0.0
  0
VERTEX
  5
2C
100
AcDbEntity
  8
0
100
AcDbVertex
100
AcDb2dVertex
 10
248.5
 20
490.0
 30
0.0
 70
     0
 50
0.0
  0
VERTEX
  5
2D
100
AcDbEntity
  8
0
100
AcDbVertex
100
AcDb2dVertex
 10
248.5
 20
500.0
 30
0.0
 70
     0
 50
0.0
  0
SEQEND
  5
2E
100
AcDbEntity
  8
0
  0
POLYLINE
  5
2F
100
AcDbEntity
  8
0
100
AcDb2dPolyline
 66
     1
 10
0.0
 20
0.0
 30
0.0
  0
VERTEX
  5
30
100
AcDbEntity
  8
0
100
AcDbVertex
100
AcDb2dVertex
 10
58.0
 20
309.5
 30
0.0
 70
     0
 50
0.0
  0
VERTEX
  5
31
100
AcDbEntity
  8
0
100
AcDbVertex
100
AcDb2dVertex
 10
198.0
 20
309.5
 30
0.0
 70
     0
 50
0.0
  0
VERTEX
  5
32
100
AcDbEntity
  8
0
100
AcDbVertex
100
AcDb2dVertex
 10
198.0
 20
299.5
 30
0.0
 70
     0
 50
0.0
  0
VERTEX
  5
33
100
AcDbEntity
  8
0
100
AcDbVertex
100
AcDb2dVertex
 10
206.0
 20
299.5
 30
0.0
 70
     0
 50
0.0
  0
VERTEX
  5
34
100
AcDbEntity
  8
0
100
AcDbVertex
100
AcDb2dVertex
 10
206.0
 20
268.5
 30
0.0
 70
     0
 50
0.0
  0
VERTEX
  5
35
100
AcDbEntity
  8
0
100
AcDbVertex
100
AcDb2dVertex
 10
198.0
 20
268.5
 30
0.0
 70
     0
 50
0.0
  0
VERTEX
  5
36
100
AcDbEntity
  8
0
100
AcDbVertex
100
AcDb2dVertex
 10
198.0
 20
210.5
 30
0.0
 70
     0
 50
0.0
  0
VERTEX
  5
37
100
AcDbEntity
  8
0
100
AcDbVertex
100
AcDb2dVertex
 10
206.0
 20
210.5
 30
0.0
 70
     0
 50
0.0
  0
VERTEX
  5
38
100
AcDbEntity
  8
0
100
AcDbVertex
100
AcDb2dVertex
 10
206.0
 20
179.5
 30
0.0
 70
     0
 50
0.0
  0
VERTEX
  5
39
100
AcDbEntity
  8
0
100
AcDbVertex
100
AcDb2dVertex
 10
198.0
 20
179.5
 30
0.0
 70
     0
 50
0.0
  0
VERTEX
  5
3A
100
AcDbEntity
  8
0
100
AcDbVertex
100
AcDb2dVertex
 10
198.0
 20
169.5
 30
0.0
 70
     0
 50
0.0
  0
VERTEX
  5
3B
100
AcDbEntity
  8
0
100
AcDbVertex
100
AcDb2dVertex
 10
58.0
 20
169.5
 30
0.0
 70
     0
 50
0.0
  0
VERTEX
  5
3C
100
AcDbEntity
  8
0
100
AcDbVertex
100
AcDb2dVertex
 10
58.0
 20
179.5
 30
0.0
 70
     0
 50
0.0
  0
VERTEX
  5
3D
100
AcDbEntity
  8
0
100
AcDbVertex
100
AcDb2dVertex
 10
50.0
 20
179.5
 30
0.0
 70
     0
 50
0.0
  0
VERTEX
  5
3E
100
AcDbEntity
  8
0
100
AcDbVertex
100
AcDb2dVertex
 10
50.0
 20
210.5
 30
0.0
 70
     0
 50
0.0
  0
VERTEX
  5
3F
100
AcDbEntity
  8
0
100
AcDbVertex
100
AcDb2dVertex
 10
58.0
 20
210.5
 30
0.0
 70
     0
 50
0.0
  0
VERTEX
  5
40
100
AcDbEntity
  8
0
100
AcDbVertex
100
AcDb2dVertex
 10
58.0
 20
268.5
 30
0.0
 70
     0
 50
0.0
  0
VERTEX
  5
41
100
AcDbEntity
  8
0
100
AcDbVertex
100
AcDb2dVertex
 10
50.0
 20
268.5
 30
0.0
 70
     0
 50
0.0
  0
VERTEX
  5
42
100
AcDbEntity
  8
0
100
AcDbVertex
100
AcDb2dVertex
 10
50.0
 20
299.5
 30
0.0
 70
     0
 50
0.0
  0
VERTEX
  5
43
100
AcDbEntity
  8
0
100
AcDbVertex
100
AcDb2dVertex
 10
58.0
 20
299.5
 30
0.0
 70
     0
 50
0.0
  0
VERTEX
  5
44
100
AcDbEntity
  8
0
100
AcDbVertex
100
AcDb2dVertex
 10
58.0
 20
309.5
 30
0.0
 70
     0
 50
0.0
  0
SEQEND
  5
45
100
AcDbEntity
  8
0
  0
POLYLINE
  5
46
100
AcDbEntity
  8
0
100
AcDb2dPolyline
 66
     1
 10
0.0
 20
0.0
 30
0.0
  0
VERTEX
  5
47
100
AcDbEntity
  8
0
100
AcDbVertex
100
AcDb2dVertex
 10
248.5
 20
309.5
 30
0.0
 70
     0
 50
0.0
  0
VERTEX
  5
48
100
AcDbEntity
  8
0
100
AcDbVertex
100
AcDb2dVertex
 10
388.5
 20
309.5
 30
0.0
 70
     0
 50
0.0
  0
VERTEX
  5
49
100
AcDbEntity
  8
0
100
AcDbVertex
100
AcDb2dVertex
 10
388.5
 20
299.5
 30
0.0
 70
     0
 50
0.0
  0
VERTEX
  5
4A
100
AcDbEntity
  8
0
100
AcDbVertex
100
AcDb2dVertex
 10
396.5
 20
299.5
 30
0.0
 70
     0
 50
0.0
  0
VERTEX
  5
4B
100
AcDbEntity
  8
0
100
AcDbVertex
100
AcDb2dVertex
 10
396.5
 20
268.5
 30
0.0
 70
     0
 50
0.0
  0
VERTEX
  5
4C
100
AcDbEntity
  8
0
100
AcDbVertex
100
AcDb2dVertex
 10
388.5
 20
268.5
 30
0.0
 70
     0
 50
0.0
  0
VERTEX
  5
4D
100
AcDbEntity
  8
0
100
AcDbVertex
100
AcDb2dVertex
 10
388.5
 20
210.5
 30
0.0
 70
     0
 50
0.0
  0
VERTEX
  5
4E
100
AcDbEntity
  8
0
100
AcDbVertex
100
AcDb2dVertex
 10
396.5
 20
210.5
 30
0.0
 70
     0
 50
0.0
  0
VERTEX
  5
4F
100
AcDbEntity
  8
0
100
AcDbVertex
100
AcDb2dVertex
 10
396.5
 20
179.5
 30
0.0
 70
     0
 50
0.0
  0
VERTEX
  5
50
100
AcDbEntity
  8
0
100
AcDbVertex
100
AcDb2dVertex
 10
388.5
 20
179.5
 30
0.0
 70
     0
 50
0.0
  0
VERTEX
  5
51
100
AcDbEntity
  8
0
100
AcDbVertex
100
AcDb2dVertex
 10
388.5
 20
169.5
 30
0.0
 70
     0
 50
0.0
  0
VERTEX
  5
52
100
AcDbEntity
  8
0
100
AcDbVertex
100
AcDb2dVertex
 10
248.5
 20
169.5
 30
0.0
 70
     0
 50
0.0
  0
VERTEX
  5
53
100
AcDbEntity
  8
0
100
AcDbVertex
100
AcDb2dVertex
 10
248.5
 20
179.5
 30
0.0
 70
     0
 50
0.0
  0
VERTEX
  5
54
100
AcDbEntity
  8
0
100
AcDbVertex
100
AcDb2dVertex
 10
240.5
 20
179.5
 30
0.0
 70
     0
 50
0.0
  0
VERTEX
  5
55
100
AcDbEntity
  8
0
100
AcDbVertex
100
AcDb2dVertex
 10
240.5
 20
210.5
 30
0.0
 70
     0
 50
0.0
  0
VERTEX
  5
56
100
AcDbEntity
  8
0
100
AcDbVertex
100
AcDb2dVertex
 10
248.5
 20
210.5
 30
0.0
 70
     0
 50
0.0
  0
VERTEX
  5
57
100
AcDbEntity
  8
0
100
AcDbVertex
100
AcDb2dVertex
 10
248.5
 20
268.5
 30
0.0
 70
     0
 50
0.0
  0
VERTEX
  5
58
100
AcDbEntity
  8
0
100
AcDbVertex
100
AcDb2dVertex
 10
240.5
 20
268.5
 30
0.0
 70
     0
 50
0.0
  0
VERTEX
  5
59
100
AcDbEntity
  8
0
100
AcDbVertex
100
AcDb2dVertex
 10
240.5
 20
299.5
 30
0.0
 70
     0
 50
0.0
  0
VERTEX
  5
5A
100
AcDbEntity
  8
0
100
AcDbVertex
100
AcDb2dVertex
 10
248.5
 20
299.5
 30
0.0
 70
     0
 50
0.0
  0
VERTEX
  5
5B
100
AcDbEntity
  8
0
100
AcDbVertex
100
AcDb2dVertex
 10
248.5
 20
309.5
 30
0.0
 70
     0
 50
0.0
  0
SEQEND
  5
5C
100
AcDbEntity
  8
0
  0
POLYLINE
  5
5D
100
AcDbEntity
  8
0
100
AcDb2dPolyline
 66
     1
 10
0.0
 20
0.0
 30
0.0
  0
VERTEX
  5
5E
100
AcDbEntity
  8
0
100
AcDbVertex
100
AcDb2dVertex
 10
0.0
 20
550.0
 30
0.0
 70
     0
 50
0.0
  0
VERTEX
  5
5F
100
AcDbEntity
  8
0
100
AcDbVertex
100
AcDb2dVertex
 10
455.0
 20
550.0
 30
0.0
 70
     0
 50
0.0
  0
VERTEX
  5
60
100
AcDbEntity
  8
0
100
AcDbVertex
100
AcDb2dVertex
 10
455.0
 20
119.5
 30
0.0
 70
     0
 50
0.0
  0
VERTEX
  5
61
100
AcDbEntity
  8
0
100
AcDbVertex
100
AcDb2dVertex
 10
0.0
 20
119.5
 30
0.0
 70
     0
 50
0.0
  0
VERTEX
  5
62
100
AcDbEntity
  8
0
100
AcDbVertex
100
AcDb2dVertex
 10
0.0
 20
550.0
 30
0.0
 70
     0
 50
0.0
  0
SEQEND
  5
63
100
AcDbEntity
  8
0
  0
ENDSEC
  0
SECTION
  2
OBJECTS
  0
ENDSEC
  0
EOF
