  0
SECTION
  2
HEADER
  9
$ACADVER
  1
AC1009
  9
$INSBASE
 10
0.0
 20
0.0
 30
0.0
  9
$EXTMIN
 10
0.0
 20
0.0
 30
0.0
  9
$EXTMAX
 10
0.0
 20
0.0
 30
0.0
  9
$LIMMIN
 10
0.0
 20
0.0
  9
$LIMMAX
 10
12.0
 20
9.0
  9
$ORTHOMODE
 70
     0
  9
$REGENMODE
 70
     1
  9
$FILLMODE
 70
     1
  9
$QTEXTMODE
 70
     0
  9
$MIRRTEXT
 70
     0
  9
$DRAGMODE
 70
     2
  9
$LTSCALE
 40
1.0
  9
$OSMODE
 70
    37
  9
$ATTMODE
 70
     1
  9
$TEXTSIZE
 40
0.2
  9
$TRACEWID
 40
0.05
  9
$TEXTSTYLE
  7
STANDARD
  9
$CLAYER
  8
0
  9
$CELTYPE
  6
BYLAYER
  9
$CECOLOR
 62
   256
  9
$DIMSCALE
 40
1.0
  9
$DIMASZ
 40
0.18
  9
$DIMEXO
 40
0.0625
  9
$DIMDLI
 40
0.38
  9
$DIMRND
 40
0.0
  9
$DIMDLE
 40
0.0
  9
$DIMEXE
 40
0.18
  9
$DIMTP
 40
0.0
  9
$DIMTM
 40
0.0
  9
$DIMTXT
 40
0.18
  9
$DIMCEN
 40
0.09
  9
$DIMTSZ
 40
0.0
  9
$DIMTOL
 70
     0
  9
$DIMLIM
 70
     0
  9
$DIMTIH
 70
     1
  9
$DIMTOH
 70
     1
  9
$DIMSE1
 70
     0
  9
$DIMSE2
 70
     0
  9
$DIMTAD
 70
     0
  9
$DIMZIN
 70
     0
  9
$DIMBLK
  1

  9
$DIMASO
 70
     1
  9
$DIMSHO
 70
     1
  9
$DIMPOST
  1

  9
$DIMAPOST
  1

  9
$DIMALT
 70
     0
  9
$DIMALTD
 70
     2
  9
$DIMALTF
 40
25.4
  9
$DIMLFAC
 40
1.0
  9
$DIMTOFL
 70
     0
  9
$DIMTVP
 40
0.0
  9
$DIMTIX
 70
     0
  9
$DIMSOXD
 70
     0
  9
$DIMSAH
 70
     0
  9
$DIMBLK1
  1

  9
$DIMBLK2
  1

  9
$DIMSTYLE
  2
STANDARD
  9
$DIMCLRD
 70
     0
  9
$DIMCLRE
 70
     0
  9
$DIMCLRT
 70
     0
  9
$DIMTFAC
 40
1.0
  9
$DIMGAP
 40
0.09
  9
$LUNITS
 70
     2
  9
$LUPREC
 70
     4
  9
$SKETCHINC
 40
0.1
  9
$FILLETRAD
 40
0.0
  9
$AUNITS
 70
     0
  9
$AUPREC
 70
     0
  9
$MENU
  1
.
  9
$ELEVATION
 40
0.0
  9
$PELEVATION
 40
0.0
  9
$THICKNESS
 40
0.0
  9
$LIMCHECK
 70
     0
  9
$BLIPMODE
 70
     0
  9
$CHAMFERA
 40
0.0
  9
$CHAMFERB
 40
0.0
  9
$SKPOLY
 70
     0
  9
$TDCREATE
 40
2459261.63185185194
  9
$TDUPDATE
 40
2459261.63185185194
  9
$TDINDWG
 40
0.0
  9
$TDUSRTIMER
 40
0.0
  9
$USRTIMER
 70
     1
  9
$ANGBASE
 50
0.0
  9
$ANGDIR
 70
     0
  9
$PDMODE
 70
     0
  9
$PDSIZE
 40
0.0
  9
$PLINEWID
 40
0.0
  9
$COORDS
 70
     1
  9
$SPLFRAME
 70
     0
  9
$SPLINETYPE
 70
     6
  9
$SPLINESEGS
 70
     8
  9
$ATTDIA
 70
     1
  9
$ATTREQ
 70
     1
  9
$HANDLING
 70
     1
  9
$HANDSEED
  5
43B
  9
$SURFTAB1
 70
     6
  9
$SURFTAB2
 70
     6
  9
$SURFTYPE
 70
     6
  9
$SURFU
 70
     6
  9
$SURFV
 70
     6
  9
$UCSNAME
  2

  9
$UCSORG
 10
0.0
 20
0.0
 30
0.0
  9
$UCSXDIR
 10
1.0
 20
0.0
 30
0.0
  9
$UCSYDIR
 10
0.0
 20
1.0
 30
0.0
  9
$PUCSNAME
  2

  9
$PUCSORG
 10
0.0
 20
0.0
 30
0.0
  9
$PUCSXDIR
 10
1.0
 20
0.0
 30
0.0
  9
$PUCSYDIR
 10
0.0
 20
1.0
 30
0.0
  9
$USERI1
 70
     0
  9
$USERI2
 70
     0
  9
$USERI3
 70
     0
  9
$USERI4
 70
     0
  9
$USERI5
 70
     0
  9
$USERR1
 40
0.0
  9
$USERR2
 40
0.0
  9
$USERR3
 40
0.0
  9
$USERR4
 40
0.0
  9
$USERR5
 40
0.0
  9
$WORLDVIEW
 70
     1
  9
$SHADEDGE
 70
     3
  9
$SHADEDIF
 70
    70
  9
$TILEMODE
 70
     1
  9
$MAXACTVP
 70
    64
  9
$PLIMCHECK
 70
     0
  9
$PEXTMIN
 10
100000000000000000000.0
 20
100000000000000000000.0
 30
100000000000000000000.0
  9
$PEXTMAX
 10
-100000000000000000000.0
 20
-100000000000000000000.0
 30
-100000000000000000000.0
  9
$PLIMMIN
 10
0.0
 20
0.0
  9
$PLIMMAX
 10
12.0
 20
9.0
  9
$UNITMODE
 70
     0
  9
$VISRETAIN
 70
     1
  9
$PLINEGEN
 70
     0
  9
$PSLTSCALE
 70
     1
  0
ENDSEC
  0
SECTION
  2
TABLES
  0
ENDSEC
  0
SECTION
  2
ENTITIES
  0
POLYLINE
  5
1
100
AcDbEntity
  8
0
100
AcDb2dPolyline
 66
     1
 10
0.0
 20
0.0
 30
0.0
  0
VERTEX
  5
2
100
AcDbEntity
  8
0
100
AcDbVertex
100
AcDb2dVertex
 10
58.0
 20
404.75
 30
0.0
 70
     0
 50
0.0
  0
VERTEX
  5
3
100
AcDbEntity
  8
0
100
AcDbVertex
100
AcDb2dVertex
 10
198.0
 20
404.75
 30
0.0
 70
     0
 50
0.0
  0
VERTEX
  5
4
100
AcDbEntity
  8
0
100
AcDbVertex
100
AcDb2dVertex
 10
198.0
 20
394.75
 30
0.0
 70
     0
 50
0.0
  0
VERTEX
  5
5
100
AcDbEntity
  8
0
100
AcDbVertex
100
AcDb2dVertex
 10
206.0
 20
394.75
 30
0.0
 70
     0
 50
0.0
  0
VERTEX
  5
6
100
AcDbEntity
  8
0
100
AcDbVertex
100
AcDb2dVertex
 10
206.0
 20
363.75
 30
0.0
 70
     0
 50
0.0
  0
VERTEX
  5
7
100
AcDbEntity
  8
0
100
AcDbVertex
100
AcDb2dVertex
 10
198.0
 20
363.75
 30
0.0
 70
     0
 50
0.0
  0
VERTEX
  5
8
100
AcDbEntity
  8
0
100
AcDbVertex
100
AcDb2dVertex
 10
198.0
 20
305.75
 30
0.0
 70
     0
 50
0.0
  0
VERTEX
  5
9
100
AcDbEntity
  8
0
100
AcDbVertex
100
AcDb2dVertex
 10
206.0
 20
305.75
 30
0.0
 70
     0
 50
0.0
  0
VERTEX
  5
A
100
AcDbEntity
  8
0
100
AcDbVertex
100
AcDb2dVertex
 10
206.0
 20
274.75
 30
0.0
 70
     0
 50
0.0
  0
VERTEX
  5
B
100
AcDbEntity
  8
0
100
AcDbVertex
100
AcDb2dVertex
 10
198.0
 20
274.75
 30
0.0
 70
     0
 50
0.0
  0
VERTEX
  5
C
100
AcDbEntity
  8
0
100
AcDbVertex
100
AcDb2dVertex
 10
198.0
 20
264.75
 30
0.0
 70
     0
 50
0.0
  0
VERTEX
  5
D
100
AcDbEntity
  8
0
100
AcDbVertex
100
AcDb2dVertex
 10
58.0
 20
264.75
 30
0.0
 70
     0
 50
0.0
  0
VERTEX
  5
E
100
AcDbEntity
  8
0
100
AcDbVertex
100
AcDb2dVertex
 10
58.0
 20
274.75
 30
0.0
 70
     0
 50
0.0
  0
VERTEX
  5
F
100
AcDbEntity
  8
0
100
AcDbVertex
100
AcDb2dVertex
 10
50.0
 20
274.75
 30
0.0
 70
     0
 50
0.0
  0
VERTEX
  5
10
100
AcDbEntity
  8
0
100
AcDbVertex
100
AcDb2dVertex
 10
50.0
 20
305.75
 30
0.0
 70
     0
 50
0.0
  0
VERTEX
  5
11
100
AcDbEntity
  8
0
100
AcDbVertex
100
AcDb2dVertex
 10
58.0
 20
305.75
 30
0.0
 70
     0
 50
0.0
  0
VERTEX
  5
12
100
AcDbEntity
  8
0
100
AcDbVertex
100
AcDb2dVertex
 10
58.0
 20
363.75
 30
0.0
 70
     0
 50
0.0
  0
VERTEX
  5
13
100
AcDbEntity
  8
0
100
AcDbVertex
100
AcDb2dVertex
 10
50.0
 20
363.75
 30
0.0
 70
     0
 50
0.0
  0
VERTEX
  5
14
100
AcDbEntity
  8
0
100
AcDbVertex
100
AcDb2dVertex
 10
50.0
 20
394.75
 30
0.0
 70
     0
 50
0.0
  0
VERTEX
  5
15
100
AcDbEntity
  8
0
100
AcDbVertex
100
AcDb2dVertex
 10
58.0
 20
394.75
 30
0.0
 70
     0
 50
0.0
  0
VERTEX
  5
16
100
AcDbEntity
  8
0
100
AcDbVertex
100
AcDb2dVertex
 10
58.0
 20
404.75
 30
0.0
 70
     0
 50
0.0
  0
SEQEND
  5
17
100
AcDbEntity
  8
0
  0
POLYLINE
  5
18
100
AcDbEntity
  8
0
100
AcDb2dPolyline
 66
     1
 10
0.0
 20
0.0
 30
0.0
  0
VERTEX
  5
19
100
AcDbEntity
  8
0
100
AcDbVertex
100
AcDb2dVertex
 10
248.5
 20
404.75
 30
0.0
 70
     0
 50
0.0
  0
VERTEX
  5
1A
100
AcDbEntity
  8
0
100
AcDbVertex
100
AcDb2dVertex
 10
388.5
 20
404.75
 30
0.0
 70
     0
 50
0.0
  0
VERTEX
  5
1B
100
AcDbEntity
  8
0
100
AcDbVertex
100
AcDb2dVertex
 10
388.5
 20
394.75
 30
0.0
 70
     0
 50
0.0
  0
VERTEX
  5
1C
100
AcDbEntity
  8
0
100
AcDbVertex
100
AcDb2dVertex
 10
396.5
 20
394.75
 30
0.0
 70
     0
 50
0.0
  0
VERTEX
  5
1D
100
AcDbEntity
  8
0
100
AcDbVertex
100
AcDb2dVertex
 10
396.5
 20
363.75
 30
0.0
 70
     0
 50
0.0
  0
VERTEX
  5
1E
100
AcDbEntity
  8
0
100
AcDbVertex
100
AcDb2dVertex
 10
388.5
 20
363.75
 30
0.0
 70
     0
 50
0.0
  0
VERTEX
  5
1F
100
AcDbEntity
  8
0
100
AcDbVertex
100
AcDb2dVertex
 10
388.5
 20
305.75
 30
0.0
 70
     0
 50
0.0
  0
VERTEX
  5
20
100
AcDbEntity
  8
0
100
AcDbVertex
100
AcDb2dVertex
 10
396.5
 20
305.75
 30
0.0
 70
     0
 50
0.0
  0
VERTEX
  5
21
100
AcDbEntity
  8
0
100
AcDbVertex
100
AcDb2dVertex
 10
396.5
 20
274.75
 30
0.0
 70
     0
 50
0.0
  0
VERTEX
  5
22
100
AcDbEntity
  8
0
100
AcDbVertex
100
AcDb2dVertex
 10
388.5
 20
274.75
 30
0.0
 70
     0
 50
0.0
  0
VERTEX
  5
23
100
AcDbEntity
  8
0
100
AcDbVertex
100
AcDb2dVertex
 10
388.5
 20
264.75
 30
0.0
 70
     0
 50
0.0
  0
VERTEX
  5
24
100
AcDbEntity
  8
0
100
AcDbVertex
100
AcDb2dVertex
 10
248.5
 20
264.75
 30
0.0
 70
     0
 50
0.0
  0
VERTEX
  5
25
100
AcDbEntity
  8
0
100
AcDbVertex
100
AcDb2dVertex
 10
248.5
 20
274.75
 30
0.0
 70
     0
 50
0.0
  0
VERTEX
  5
26
100
AcDbEntity
  8
0
100
AcDbVertex
100
AcDb2dVertex
 10
240.5
 20
274.75
 30
0.0
 70
     0
 50
0.0
  0
VERTEX
  5
27
100
AcDbEntity
  8
0
100
AcDbVertex
100
AcDb2dVertex
 10
240.5
 20
305.75
 30
0.0
 70
     0
 50
0.0
  0
VERTEX
  5
28
100
AcDbEntity
  8
0
100
AcDbVertex
100
AcDb2dVertex
 10
248.5
 20
305.75
 30
0.0
 70
     0
 50
0.0
  0
VERTEX
  5
29
100
AcDbEntity
  8
0
100
AcDbVertex
100
AcDb2dVertex
 10
248.5
 20
363.75
 30
0.0
 70
     0
 50
0.0
  0
VERTEX
  5
2A
100
AcDbEntity
  8
0
100
AcDbVertex
100
AcDb2dVertex
 10
240.5
 20
363.75
 30
0.0
 70
     0
 50
0.0
  0
VERTEX
  5
2B
100
AcDbEntity
  8
0
100
AcDbVertex
100
AcDb2dVertex
 10
240.5
 20
394.75
 30
0.0
 70
     0
 50
0.0
  0
VERTEX
  5
2C
100
AcDbEntity
  8
0
100
AcDbVertex
100
AcDb2dVertex
 10
248.5
 20
394.75
 30
0.0
 70
     0
 50
0.0
  0
VERTEX
  5
2D
100
AcDbEntity
  8
0
100
AcDbVertex
100
AcDb2dVertex
 10
248.5
 20
404.75
 30
0.0
 70
     0
 50
0.0
  0
SEQEND
  5
2E
100
AcDbEntity
  8
0
  0
POLYLINE
  5
2F
100
AcDbEntity
  8
0
100
AcDb2dPolyline
 66
     1
 10
0.0
 20
0.0
 30
0.0
  0
VERTEX
  5
30
100
AcDbEntity
  8
0
100
AcDbVertex
100
AcDb2dVertex
 10
439.0
 20
452.375
 30
0.0
 70
     0
 50
0.0
  0
VERTEX
  5
31
100
AcDbEntity
  8
0
100
AcDbVertex
100
AcDb2dVertex
 10
579.0
 20
452.375
 30
0.0
 70
     0
 50
0.0
  0
VERTEX
  5
32
100
AcDbEntity
  8
0
100
AcDbVertex
100
AcDb2dVertex
 10
579.0
 20
442.375
 30
0.0
 70
     0
 50
0.0
  0
VERTEX
  5
33
100
AcDbEntity
  8
0
100
AcDbVertex
100
AcDb2dVertex
 10
587.0
 20
442.375
 30
0.0
 70
     0
 50
0.0
  0
VERTEX
  5
34
100
AcDbEntity
  8
0
100
AcDbVertex
100
AcDb2dVertex
 10
587.0
 20
411.375
 30
0.0
 70
     0
 50
0.0
  0
VERTEX
  5
35
100
AcDbEntity
  8
0
100
AcDbVertex
100
AcDb2dVertex
 10
579.0
 20
411.375
 30
0.0
 70
     0
 50
0.0
  0
VERTEX
  5
36
100
AcDbEntity
  8
0
100
AcDbVertex
100
AcDb2dVertex
 10
579.0
 20
353.375
 30
0.0
 70
     0
 50
0.0
  0
VERTEX
  5
37
100
AcDbEntity
  8
0
100
AcDbVertex
100
AcDb2dVertex
 10
587.0
 20
353.375
 30
0.0
 70
     0
 50
0.0
  0
VERTEX
  5
38
100
AcDbEntity
  8
0
100
AcDbVertex
100
AcDb2dVertex
 10
587.0
 20
322.375
 30
0.0
 70
     0
 50
0.0
  0
VERTEX
  5
39
100
AcDbEntity
  8
0
100
AcDbVertex
100
AcDb2dVertex
 10
579.0
 20
322.375
 30
0.0
 70
     0
 50
0.0
  0
VERTEX
  5
3A
100
AcDbEntity
  8
0
100
AcDbVertex
100
AcDb2dVertex
 10
579.0
 20
312.375
 30
0.0
 70
     0
 50
0.0
  0
VERTEX
  5
3B
100
AcDbEntity
  8
0
100
AcDbVertex
100
AcDb2dVertex
 10
439.0
 20
312.375
 30
0.0
 70
     0
 50
0.0
  0
VERTEX
  5
3C
100
AcDbEntity
  8
0
100
AcDbVertex
100
AcDb2dVertex
 10
439.0
 20
322.375
 30
0.0
 70
     0
 50
0.0
  0
VERTEX
  5
3D
100
AcDbEntity
  8
0
100
AcDbVertex
100
AcDb2dVertex
 10
431.0
 20
322.375
 30
0.0
 70
     0
 50
0.0
  0
VERTEX
  5
3E
100
AcDbEntity
  8
0
100
AcDbVertex
100
AcDb2dVertex
 10
431.0
 20
353.375
 30
0.0
 70
     0
 50
0.0
  0
VERTEX
  5
3F
100
AcDbEntity
  8
0
100
AcDbVertex
100
AcDb2dVertex
 10
439.0
 20
353.375
 30
0.0
 70
     0
 50
0.0
  0
VERTEX
  5
40
100
AcDbEntity
  8
0
100
AcDbVertex
100
AcDb2dVertex
 10
439.0
 20
411.375
 30
0.0
 70
     0
 50
0.0
  0
VERTEX
  5
41
100
AcDbEntity
  8
0
100
AcDbVertex
100
AcDb2dVertex
 10
431.0
 20
411.375
 30
0.0
 70
     0
 50
0.0
  0
VERTEX
  5
42
100
AcDbEntity
  8
0
100
AcDbVertex
100
AcDb2dVertex
 10
431.0
 20
442.375
 30
0.0
 70
     0
 50
0.0
  0
VERTEX
  5
43
100
AcDbEntity
  8
0
100
AcDbVertex
100
AcDb2dVertex
 10
439.0
 20
442.375
 30
0.0
 70
     0
 50
0.0
  0
VERTEX
  5
44
100
AcDbEntity
  8
0
100
AcDbVertex
100
AcDb2dVertex
 10
439.0
 20
452.375
 30
0.0
 70
     0
 50
0.0
  0
SEQEND
  5
45
100
AcDbEntity
  8
0
  0
POLYLINE
  5
46
100
AcDbEntity
  8
0
100
AcDb2dPolyline
 66
     1
 10
0.0
 20
0.0
 30
0.0
  0
VERTEX
  5
47
100
AcDbEntity
  8
0
100
AcDbVertex
100
AcDb2dVertex
 10
629.5
 20
500.0
 30
0.0
 70
     0
 50
0.0
  0
VERTEX
  5
48
100
AcDbEntity
  8
0
100
AcDbVertex
100
AcDb2dVertex
 10
769.5
 20
500.0
 30
0.0
 70
     0
 50
0.0
  0
VERTEX
  5
49
100
AcDbEntity
  8
0
100
AcDbVertex
100
AcDb2dVertex
 10
769.5
 20
490.0
 30
0.0
 70
     0
 50
0.0
  0
VERTEX
  5
4A
100
AcDbEntity
  8
0
100
AcDbVertex
100
AcDb2dVertex
 10
777.5
 20
490.0
 30
0.0
 70
     0
 50
0.0
  0
VERTEX
  5
4B
100
AcDbEntity
  8
0
100
AcDbVertex
100
AcDb2dVertex
 10
777.5
 20
459.0
 30
0.0
 70
     0
 50
0.0
  0
VERTEX
  5
4C
100
AcDbEntity
  8
0
100
AcDbVertex
100
AcDb2dVertex
 10
769.5
 20
459.0
 30
0.0
 70
     0
 50
0.0
  0
VERTEX
  5
4D
100
AcDbEntity
  8
0
100
AcDbVertex
100
AcDb2dVertex
 10
769.5
 20
401.0
 30
0.0
 70
     0
 50
0.0
  0
VERTEX
  5
4E
100
AcDbEntity
  8
0
100
AcDbVertex
100
AcDb2dVertex
 10
777.5
 20
401.0
 30
0.0
 70
     0
 50
0.0
  0
VERTEX
  5
4F
100
AcDbEntity
  8
0
100
AcDbVertex
100
AcDb2dVertex
 10
777.5
 20
370.0
 30
0.0
 70
     0
 50
0.0
  0
VERTEX
  5
50
100
AcDbEntity
  8
0
100
AcDbVertex
100
AcDb2dVertex
 10
769.5
 20
370.0
 30
0.0
 70
     0
 50
0.0
  0
VERTEX
  5
51
100
AcDbEntity
  8
0
100
AcDbVertex
100
AcDb2dVertex
 10
769.5
 20
360.0
 30
0.0
 70
     0
 50
0.0
  0
VERTEX
  5
52
100
AcDbEntity
  8
0
100
AcDbVertex
100
AcDb2dVertex
 10
629.5
 20
360.0
 30
0.0
 70
     0
 50
0.0
  0
VERTEX
  5
53
100
AcDbEntity
  8
0
100
AcDbVertex
100
AcDb2dVertex
 10
629.5
 20
370.0
 30
0.0
 70
     0
 50
0.0
  0
VERTEX
  5
54
100
AcDbEntity
  8
0
100
AcDbVertex
100
AcDb2dVertex
 10
621.5
 20
370.0
 30
0.0
 70
     0
 50
0.0
  0
VERTEX
  5
55
100
AcDbEntity
  8
0
100
AcDbVertex
100
AcDb2dVertex
 10
621.5
 20
401.0
 30
0.0
 70
     0
 50
0.0
  0
VERTEX
  5
56
100
AcDbEntity
  8
0
100
AcDbVertex
100
AcDb2dVertex
 10
629.5
 20
401.0
 30
0.0
 70
     0
 50
0.0
  0
VERTEX
  5
57
100
AcDbEntity
  8
0
100
AcDbVertex
100
AcDb2dVertex
 10
629.5
 20
459.0
 30
0.0
 70
     0
 50
0.0
  0
VERTEX
  5
58
100
AcDbEntity
  8
0
100
AcDbVertex
100
AcDb2dVertex
 10
621.5
 20
459.0
 30
0.0
 70
     0
 50
0.0
  0
VERTEX
  5
59
100
AcDbEntity
  8
0
100
AcDbVertex
100
AcDb2dVertex
 10
621.5
 20
490.0
 30
0.0
 70
     0
 50
0.0
  0
VERTEX
  5
5A
100
AcDbEntity
  8
0
100
AcDbVertex
100
AcDb2dVertex
 10
629.5
 20
490.0
 30
0.0
 70
     0
 50
0.0
  0
VERTEX
  5
5B
100
AcDbEntity
  8
0
100
AcDbVertex
100
AcDb2dVertex
 10
629.5
 20
500.0
 30
0.0
 70
     0
 50
0.0
  0
SEQEND
  5
5C
100
AcDbEntity
  8
0
  0
POLYLINE
  5
5D
100
AcDbEntity
  8
0
100
AcDb2dPolyline
 66
     1
 10
0.0
 20
0.0
 30
0.0
  0
VERTEX
  5
5E
100
AcDbEntity
  8
0
100
AcDbVertex
100
AcDb2dVertex
 10
820.0
 20
452.375
 30
0.0
 70
     0
 50
0.0
  0
VERTEX
  5
5F
100
AcDbEntity
  8
0
100
AcDbVertex
100
AcDb2dVertex
 10
960.0
 20
452.375
 30
0.0
 70
     0
 50
0.0
  0
VERTEX
  5
60
100
AcDbEntity
  8
0
100
AcDbVertex
100
AcDb2dVertex
 10
960.0
 20
442.375
 30
0.0
 70
     0
 50
0.0
  0
VERTEX
  5
61
100
AcDbEntity
  8
0
100
AcDbVertex
100
AcDb2dVertex
 10
968.0
 20
442.375
 30
0.0
 70
     0
 50
0.0
  0
VERTEX
  5
62
100
AcDbEntity
  8
0
100
AcDbVertex
100
AcDb2dVertex
 10
968.0
 20
411.375
 30
0.0
 70
     0
 50
0.0
  0
VERTEX
  5
63
100
AcDbEntity
  8
0
100
AcDbVertex
100
AcDb2dVertex
 10
960.0
 20
411.375
 30
0.0
 70
     0
 50
0.0
  0
VERTEX
  5
64
100
AcDbEntity
  8
0
100
AcDbVertex
100
AcDb2dVertex
 10
960.0
 20
353.375
 30
0.0
 70
     0
 50
0.0
  0
VERTEX
  5
65
100
AcDbEntity
  8
0
100
AcDbVertex
100
AcDb2dVertex
 10
968.0
 20
353.375
 30
0.0
 70
     0
 50
0.0
  0
VERTEX
  5
66
100
AcDbEntity
  8
0
100
AcDbVertex
100
AcDb2dVertex
 10
968.0
 20
322.375
 30
0.0
 70
     0
 50
0.0
  0
VERTEX
  5
67
100
AcDbEntity
  8
0
100
AcDbVertex
100
AcDb2dVertex
 10
960.0
 20
322.375
 30
0.0
 70
     0
 50
0.0
  0
VERTEX
  5
68
100
AcDbEntity
  8
0
100
AcDbVertex
100
AcDb2dVertex
 10
960.0
 20
312.375
 30
0.0
 70
     0
 50
0.0
  0
VERTEX
  5
69
100
AcDbEntity
  8
0
100
AcDbVertex
100
AcDb2dVertex
 10
820.0
 20
312.375
 30
0.0
 70
     0
 50
0.0
  0
VERTEX
  5
6A
100
AcDbEntity
  8
0
100
AcDbVertex
100
AcDb2dVertex
 10
820.0
 20
322.375
 30
0.0
 70
     0
 50
0.0
  0
VERTEX
  5
6B
100
AcDbEntity
  8
0
100
AcDbVertex
100
AcDb2dVertex
 10
812.0
 20
322.375
 30
0.0
 70
     0
 50
0.0
  0
VERTEX
  5
6C
100
AcDbEntity
  8
0
100
AcDbVertex
100
AcDb2dVertex
 10
812.0
 20
353.375
 30
0.0
 70
     0
 50
0.0
  0
VERTEX
  5
6D
100
AcDbEntity
  8
0
100
AcDbVertex
100
AcDb2dVertex
 10
820.0
 20
353.375
 30
0.0
 70
     0
 50
0.0
  0
VERTEX
  5
6E
100
AcDbEntity
  8
0
100
AcDbVertex
100
AcDb2dVertex
 10
820.0
 20
411.375
 30
0.0
 70
     0
 50
0.0
  0
VERTEX
  5
6F
100
AcDbEntity
  8
0
100
AcDbVertex
100
AcDb2dVertex
 10
812.0
 20
411.375
 30
0.0
 70
     0
 50
0.0
  0
VERTEX
  5
70
100
AcDbEntity
  8
0
100
AcDbVertex
100
AcDb2dVertex
 10
812.0
 20
442.375
 30
0.0
 70
     0
 50
0.0
  0
VERTEX
  5
71
100
AcDbEntity
  8
0
100
AcDbVertex
100
AcDb2dVertex
 10
820.0
 20
442.375
 30
0.0
 70
     0
 50
0.0
  0
VERTEX
  5
72
100
AcDbEntity
  8
0
100
AcDbVertex
100
AcDb2dVertex
 10
820.0
 20
452.375
 30
0.0
 70
     0
 50
0.0
  0
SEQEND
  5
73
100
AcDbEntity
  8
0
  0
POLYLINE
  5
74
100
AcDbEntity
  8
0
100
AcDb2dPolyline
 66
     1
 10
0.0
 20
0.0
 30
0.0
  0
VERTEX
  5
75
100
AcDbEntity
  8
0
100
AcDbVertex
100
AcDb2dVertex
 10
1010.5
 20
404.75
 30
0.0
 70
     0
 50
0.0
  0
VERTEX
  5
76
100
AcDbEntity
  8
0
100
AcDbVertex
100
AcDb2dVertex
 10
1150.5
 20
404.75
 30
0.0
 70
     0
 50
0.0
  0
VERTEX
  5
77
100
AcDbEntity
  8
0
100
AcDbVertex
100
AcDb2dVertex
 10
1150.5
 20
394.75
 30
0.0
 70
     0
 50
0.0
  0
VERTEX
  5
78
100
AcDbEntity
  8
0
100
AcDbVertex
100
AcDb2dVertex
 10
1158.5
 20
394.75
 30
0.0
 70
     0
 50
0.0
  0
VERTEX
  5
79
100
AcDbEntity
  8
0
100
AcDbVertex
100
AcDb2dVertex
 10
1158.5
 20
363.75
 30
0.0
 70
     0
 50
0.0
  0
VERTEX
  5
7A
100
AcDbEntity
  8
0
100
AcDbVertex
100
AcDb2dVertex
 10
1150.5
 20
363.75
 30
0.0
 70
     0
 50
0.0
  0
VERTEX
  5
7B
100
AcDbEntity
  8
0
100
AcDbVertex
100
AcDb2dVertex
 10
1150.5
 20
305.75
 30
0.0
 70
     0
 50
0.0
  0
VERTEX
  5
7C
100
AcDbEntity
  8
0
100
AcDbVertex
100
AcDb2dVertex
 10
1158.5
 20
305.75
 30
0.0
 70
     0
 50
0.0
  0
VERTEX
  5
7D
100
AcDbEntity
  8
0
100
AcDbVertex
100
AcDb2dVertex
 10
1158.5
 20
274.75
 30
0.0
 70
     0
 50
0.0
  0
VERTEX
  5
7E
100
AcDbEntity
  8
0
100
AcDbVertex
100
AcDb2dVertex
 10
1150.5
 20
274.75
 30
0.0
 70
     0
 50
0.0
  0
VERTEX
  5
7F
100
AcDbEntity
  8
0
100
AcDbVertex
100
AcDb2dVertex
 10
1150.5
 20
264.75
 30
0.0
 70
     0
 50
0.0
  0
VERTEX
  5
80
100
AcDbEntity
  8
0
100
AcDbVertex
100
AcDb2dVertex
 10
1010.5
 20
264.75
 30
0.0
 70
     0
 50
0.0
  0
VERTEX
  5
81
100
AcDbEntity
  8
0
100
AcDbVertex
100
AcDb2dVertex
 10
1010.5
 20
274.75
 30
0.0
 70
     0
 50
0.0
  0
VERTEX
  5
82
100
AcDbEntity
  8
0
100
AcDbVertex
100
AcDb2dVertex
 10
1002.5
 20
274.75
 30
0.0
 70
     0
 50
0.0
  0
VERTEX
  5
83
100
AcDbEntity
  8
0
100
AcDbVertex
100
AcDb2dVertex
 10
1002.5
 20
305.75
 30
0.0
 70
     0
 50
0.0
  0
VERTEX
  5
84
100
AcDbEntity
  8
0
100
AcDbVertex
100
AcDb2dVertex
 10
1010.5
 20
305.75
 30
0.0
 70
     0
 50
0.0
  0
VERTEX
  5
85
100
AcDbEntity
  8
0
100
AcDbVertex
100
AcDb2dVertex
 10
1010.5
 20
363.75
 30
0.0
 70
     0
 50
0.0
  0
VERTEX
  5
86
100
AcDbEntity
  8
0
100
AcDbVertex
100
AcDb2dVertex
 10
1002.5
 20
363.75
 30
0.0
 70
     0
 50
0.0
  0
VERTEX
  5
87
100
AcDbEntity
  8
0
100
AcDbVertex
100
AcDb2dVertex
 10
1002.5
 20
394.75
 30
0.0
 70
     0
 50
0.0
  0
VERTEX
  5
88
100
AcDbEntity
  8
0
100
AcDbVertex
100
AcDb2dVertex
 10
1010.5
 20
394.75
 30
0.0
 70
     0
 50
0.0
  0
VERTEX
  5
89
100
AcDbEntity
  8
0
100
AcDbVertex
100
AcDb2dVertex
 10
1010.5
 20
404.75
 30
0.0
 70
     0
 50
0.0
  0
SEQEND
  5
8A
100
AcDbEntity
  8
0
  0
POLYLINE
  5
8B
100
AcDbEntity
  8
0
100
AcDb2dPolyline
 66
     1
 10
0.0
 20
0.0
 30
0.0
  0
VERTEX
  5
8C
100
AcDbEntity
  8
0
100
AcDbVertex
100
AcDb2dVertex
 10
1391.5
 20
404.75
 30
0.0
 70
     0
 50
0.0
  0
VERTEX
  5
8D
100
AcDbEntity
  8
0
100
AcDbVertex
100
AcDb2dVertex
 10
1531.5
 20
404.75
 30
0.0
 70
     0
 50
0.0
  0
VERTEX
  5
8E
100
AcDbEntity
  8
0
100
AcDbVertex
100
AcDb2dVertex
 10
1531.5
 20
394.75
 30
0.0
 70
     0
 50
0.0
  0
VERTEX
  5
8F
100
AcDbEntity
  8
0
100
AcDbVertex
100
AcDb2dVertex
 10
1539.5
 20
394.75
 30
0.0
 70
     0
 50
0.0
  0
VERTEX
  5
90
100
AcDbEntity
  8
0
100
AcDbVertex
100
AcDb2dVertex
 10
1539.5
 20
363.75
 30
0.0
 70
     0
 50
0.0
  0
VERTEX
  5
91
100
AcDbEntity
  8
0
100
AcDbVertex
100
AcDb2dVertex
 10
1531.5
 20
363.75
 30
0.0
 70
     0
 50
0.0
  0
VERTEX
  5
92
100
AcDbEntity
  8
0
100
AcDbVertex
100
AcDb2dVertex
 10
1531.5
 20
305.75
 30
0.0
 70
     0
 50
0.0
  0
VERTEX
  5
93
100
AcDbEntity
  8
0
100
AcDbVertex
100
AcDb2dVertex
 10
1539.5
 20
305.75
 30
0.0
 70
     0
 50
0.0
  0
VERTEX
  5
94
100
AcDbEntity
  8
0
100
AcDbVertex
100
AcDb2dVertex
 10
1539.5
 20
274.75
 30
0.0
 70
     0
 50
0.0
  0
VERTEX
  5
95
100
AcDbEntity
  8
0
100
AcDbVertex
100
AcDb2dVertex
 10
1531.5
 20
274.75
 30
0.0
 70
     0
 50
0.0
  0
VERTEX
  5
96
100
AcDbEntity
  8
0
100
AcDbVertex
100
AcDb2dVertex
 10
1531.5
 20
264.75
 30
0.0
 70
     0
 50
0.0
  0
VERTEX
  5
97
100
AcDbEntity
  8
0
100
AcDbVertex
100
AcDb2dVertex
 10
1391.5
 20
264.75
 30
0.0
 70
     0
 50
0.0
  0
VERTEX
  5
98
100
AcDbEntity
  8
0
100
AcDbVertex
100
AcDb2dVertex
 10
1391.5
 20
274.75
 30
0.0
 70
     0
 50
0.0
  0
VERTEX
  5
99
100
AcDbEntity
  8
0
100
AcDbVertex
100
AcDb2dVertex
 10
1383.5
 20
274.75
 30
0.0
 70
     0
 50
0.0
  0
VERTEX
  5
9A
100
AcDbEntity
  8
0
100
AcDbVertex
100
AcDb2dVertex
 10
1383.5
 20
305.75
 30
0.0
 70
     0
 50
0.0
  0
VERTEX
  5
9B
100
AcDbEntity
  8
0
100
AcDbVertex
100
AcDb2dVertex
 10
1391.5
 20
305.75
 30
0.0
 70
     0
 50
0.0
  0
VERTEX
  5
9C
100
AcDbEntity
  8
0
100
AcDbVertex
100
AcDb2dVertex
 10
1391.5
 20
363.75
 30
0.0
 70
     0
 50
0.0
  0
VERTEX
  5
9D
100
AcDbEntity
  8
0
100
AcDbVertex
100
AcDb2dVertex
 10
1383.5
 20
363.75
 30
0.0
 70
     0
 50
0.0
  0
VERTEX
  5
9E
100
AcDbEntity
  8
0
100
AcDbVertex
100
AcDb2dVertex
 10
1383.5
 20
394.75
 30
0.0
 70
     0
 50
0.0
  0
VERTEX
  5
9F
100
AcDbEntity
  8
0
100
AcDbVertex
100
AcDb2dVertex
 10
1391.5
 20
394.75
 30
0.0
 70
     0
 50
0.0
  0
VERTEX
  5
A0
100
AcDbEntity
  8
0
100
AcDbVertex
100
AcDb2dVertex
 10
1391.5
 20
404.75
 30
0.0
 70
     0
 50
0.0
  0
SEQEND
  5
A1
100
AcDbEntity
  8
0
  0
POLYLINE
  5
A2
100
AcDbEntity
  8
0
100
AcDb2dPolyline
 66
     1
 10
0.0
 20
0.0
 30
0.0
  0
VERTEX
  5
A3
100
AcDbEntity
  8
0
100
AcDbVertex
100
AcDb2dVertex
 10
1582.0
 20
452.375
 30
0.0
 70
     0
 50
0.0
  0
VERTEX
  5
A4
100
AcDbEntity
  8
0
100
AcDbVertex
100
AcDb2dVertex
 10
1722.0
 20
452.375
 30
0.0
 70
     0
 50
0.0
  0
VERTEX
  5
A5
100
AcDbEntity
  8
0
100
AcDbVertex
100
AcDb2dVertex
 10
1722.0
 20
442.375
 30
0.0
 70
     0
 50
0.0
  0
VERTEX
  5
A6
100
AcDbEntity
  8
0
100
AcDbVertex
100
AcDb2dVertex
 10
1730.0
 20
442.375
 30
0.0
 70
     0
 50
0.0
  0
VERTEX
  5
A7
100
AcDbEntity
  8
0
100
AcDbVertex
100
AcDb2dVertex
 10
1730.0
 20
411.375
 30
0.0
 70
     0
 50
0.0
  0
VERTEX
  5
A8
100
AcDbEntity
  8
0
100
AcDbVertex
100
AcDb2dVertex
 10
1722.0
 20
411.375
 30
0.0
 70
     0
 50
0.0
  0
VERTEX
  5
A9
100
AcDbEntity
  8
0
100
AcDbVertex
100
AcDb2dVertex
 10
1722.0
 20
353.375
 30
0.0
 70
     0
 50
0.0
  0
VERTEX
  5
AA
100
AcDbEntity
  8
0
100
AcDbVertex
100
AcDb2dVertex
 10
1730.0
 20
353.375
 30
0.0
 70
     0
 50
0.0
  0
VERTEX
  5
AB
100
AcDbEntity
  8
0
100
AcDbVertex
100
AcDb2dVertex
 10
1730.0
 20
322.375
 30
0.0
 70
     0
 50
0.0
  0
VERTEX
  5
AC
100
AcDbEntity
  8
0
100
AcDbVertex
100
AcDb2dVertex
 10
1722.0
 20
322.375
 30
0.0
 70
     0
 50
0.0
  0
VERTEX
  5
AD
100
AcDbEntity
  8
0
100
AcDbVertex
100
AcDb2dVertex
 10
1722.0
 20
312.375
 30
0.0
 70
     0
 50
0.0
  0
VERTEX
  5
AE
100
AcDbEntity
  8
0
100
AcDbVertex
100
AcDb2dVertex
 10
1582.0
 20
312.375
 30
0.0
 70
     0
 50
0.0
  0
VERTEX
  5
AF
100
AcDbEntity
  8
0
100
AcDbVertex
100
AcDb2dVertex
 10
1582.0
 20
322.375
 30
0.0
 70
     0
 50
0.0
  0
VERTEX
  5
B0
100
AcDbEntity
  8
0
100
AcDbVertex
100
AcDb2dVertex
 10
1574.0
 20
322.375
 30
0.0
 70
     0
 50
0.0
  0
VERTEX
  5
B1
100
AcDbEntity
  8
0
100
AcDbVertex
100
AcDb2dVertex
 10
1574.0
 20
353.375
 30
0.0
 70
     0
 50
0.0
  0
VERTEX
  5
B2
100
AcDbEntity
  8
0
100
AcDbVertex
100
AcDb2dVertex
 10
1582.0
 20
353.375
 30
0.0
 70
     0
 50
0.0
  0
VERTEX
  5
B3
100
AcDbEntity
  8
0
100
AcDbVertex
100
AcDb2dVertex
 10
1582.0
 20
411.375
 30
0.0
 70
     0
 50
0.0
  0
VERTEX
  5
B4
100
AcDbEntity
  8
0
100
AcDbVertex
100
AcDb2dVertex
 10
1574.0
 20
411.375
 30
0.0
 70
     0
 50
0.0
  0
VERTEX
  5
B5
100
AcDbEntity
  8
0
100
AcDbVertex
100
AcDb2dVertex
 10
1574.0
 20
442.375
 30
0.0
 70
     0
 50
0.0
  0
VERTEX
  5
B6
100
AcDbEntity
  8
0
100
AcDbVertex
100
AcDb2dVertex
 10
1582.0
 20
442.375
 30
0.0
 70
     0
 50
0.0
  0
VERTEX
  5
B7
100
AcDbEntity
  8
0
100
AcDbVertex
100
AcDb2dVertex
 10
1582.0
 20
452.375
 30
0.0
 70
     0
 50
0.0
  0
SEQEND
  5
B8
100
AcDbEntity
  8
0
  0
POLYLINE
  5
B9
100
AcDbEntity
  8
0
100
AcDb2dPolyline
 66
     1
 10
0.0
 20
0.0
 30
0.0
  0
VERTEX
  5
BA
100
AcDbEntity
  8
0
100
AcDbVertex
100
AcDb2dVertex
 10
1772.5
 20
500.0
 30
0.0
 70
     0
 50
0.0
  0
VERTEX
  5
BB
100
AcDbEntity
  8
0
100
AcDbVertex
100
AcDb2dVertex
 10
1912.5
 20
500.0
 30
0.0
 70
     0
 50
0.0
  0
VERTEX
  5
BC
100
AcDbEntity
  8
0
100
AcDbVertex
100
AcDb2dVertex
 10
1912.5
 20
490.0
 30
0.0
 70
     0
 50
0.0
  0
VERTEX
  5
BD
100
AcDbEntity
  8
0
100
AcDbVertex
100
AcDb2dVertex
 10
1920.5
 20
490.0
 30
0.0
 70
     0
 50
0.0
  0
VERTEX
  5
BE
100
AcDbEntity
  8
0
100
AcDbVertex
100
AcDb2dVertex
 10
1920.5
 20
459.0
 30
0.0
 70
     0
 50
0.0
  0
VERTEX
  5
BF
100
AcDbEntity
  8
0
100
AcDbVertex
100
AcDb2dVertex
 10
1912.5
 20
459.0
 30
0.0
 70
     0
 50
0.0
  0
VERTEX
  5
C0
100
AcDbEntity
  8
0
100
AcDbVertex
100
AcDb2dVertex
 10
1912.5
 20
401.0
 30
0.0
 70
     0
 50
0.0
  0
VERTEX
  5
C1
100
AcDbEntity
  8
0
100
AcDbVertex
100
AcDb2dVertex
 10
1920.5
 20
401.0
 30
0.0
 70
     0
 50
0.0
  0
VERTEX
  5
C2
100
AcDbEntity
  8
0
100
AcDbVertex
100
AcDb2dVertex
 10
1920.5
 20
370.0
 30
0.0
 70
     0
 50
0.0
  0
VERTEX
  5
C3
100
AcDbEntity
  8
0
100
AcDbVertex
100
AcDb2dVertex
 10
1912.5
 20
370.0
 30
0.0
 70
     0
 50
0.0
  0
VERTEX
  5
C4
100
AcDbEntity
  8
0
100
AcDbVertex
100
AcDb2dVertex
 10
1912.5
 20
360.0
 30
0.0
 70
     0
 50
0.0
  0
VERTEX
  5
C5
100
AcDbEntity
  8
0
100
AcDbVertex
100
AcDb2dVertex
 10
1772.5
 20
360.0
 30
0.0
 70
     0
 50
0.0
  0
VERTEX
  5
C6
100
AcDbEntity
  8
0
100
AcDbVertex
100
AcDb2dVertex
 10
1772.5
 20
370.0
 30
0.0
 70
     0
 50
0.0
  0
VERTEX
  5
C7
100
AcDbEntity
  8
0
100
AcDbVertex
100
AcDb2dVertex
 10
1764.5
 20
370.0
 30
0.0
 70
     0
 50
0.0
  0
VERTEX
  5
C8
100
AcDbEntity
  8
0
100
AcDbVertex
100
AcDb2dVertex
 10
1764.5
 20
401.0
 30
0.0
 70
     0
 50
0.0
  0
VERTEX
  5
C9
100
AcDbEntity
  8
0
100
AcDbVertex
100
AcDb2dVertex
 10
1772.5
 20
401.0
 30
0.0
 70
     0
 50
0.0
  0
VERTEX
  5
CA
100
AcDbEntity
  8
0
100
AcDbVertex
100
AcDb2dVertex
 10
1772.5
 20
459.0
 30
0.0
 70
     0
 50
0.0
  0
VERTEX
  5
CB
100
AcDbEntity
  8
0
100
AcDbVertex
100
AcDb2dVertex
 10
1764.5
 20
459.0
 30
0.0
 70
     0
 50
0.0
  0
VERTEX
  5
CC
100
AcDbEntity
  8
0
100
AcDbVertex
100
AcDb2dVertex
 10
1764.5
 20
490.0
 30
0.0
 70
     0
 50
0.0
  0
VERTEX
  5
CD
100
AcDbEntity
  8
0
100
AcDbVertex
100
AcDb2dVertex
 10
1772.5
 20
490.0
 30
0.0
 70
     0
 50
0.0
  0
VERTEX
  5
CE
100
AcDbEntity
  8
0
100
AcDbVertex
100
AcDb2dVertex
 10
1772.5
 20
500.0
 30
0.0
 70
     0
 50
0.0
  0
SEQEND
  5
CF
100
AcDbEntity
  8
0
  0
POLYLINE
  5
D0
100
AcDbEntity
  8
0
100
AcDb2dPolyline
 66
     1
 10
0.0
 20
0.0
 30
0.0
  0
VERTEX
  5
D1
100
AcDbEntity
  8
0
100
AcDbVertex
100
AcDb2dVertex
 10
1963.0
 20
452.375
 30
0.0
 70
     0
 50
0.0
  0
VERTEX
  5
D2
100
AcDbEntity
  8
0
100
AcDbVertex
100
AcDb2dVertex
 10
2103.0
 20
452.375
 30
0.0
 70
     0
 50
0.0
  0
VERTEX
  5
D3
100
AcDbEntity
  8
0
100
AcDbVertex
100
AcDb2dVertex
 10
2103.0
 20
442.375
 30
0.0
 70
     0
 50
0.0
  0
VERTEX
  5
D4
100
AcDbEntity
  8
0
100
AcDbVertex
100
AcDb2dVertex
 10
2111.0
 20
442.375
 30
0.0
 70
     0
 50
0.0
  0
VERTEX
  5
D5
100
AcDbEntity
  8
0
100
AcDbVertex
100
AcDb2dVertex
 10
2111.0
 20
411.375
 30
0.0
 70
     0
 50
0.0
  0
VERTEX
  5
D6
100
AcDbEntity
  8
0
100
AcDbVertex
100
AcDb2dVertex
 10
2103.0
 20
411.375
 30
0.0
 70
     0
 50
0.0
  0
VERTEX
  5
D7
100
AcDbEntity
  8
0
100
AcDbVertex
100
AcDb2dVertex
 10
2103.0
 20
353.375
 30
0.0
 70
     0
 50
0.0
  0
VERTEX
  5
D8
100
AcDbEntity
  8
0
100
AcDbVertex
100
AcDb2dVertex
 10
2111.0
 20
353.375
 30
0.0
 70
     0
 50
0.0
  0
VERTEX
  5
D9
100
AcDbEntity
  8
0
100
AcDbVertex
100
AcDb2dVertex
 10
2111.0
 20
322.375
 30
0.0
 70
     0
 50
0.0
  0
VERTEX
  5
DA
100
AcDbEntity
  8
0
100
AcDbVertex
100
AcDb2dVertex
 10
2103.0
 20
322.375
 30
0.0
 70
     0
 50
0.0
  0
VERTEX
  5
DB
100
AcDbEntity
  8
0
100
AcDbVertex
100
AcDb2dVertex
 10
2103.0
 20
312.375
 30
0.0
 70
     0
 50
0.0
  0
VERTEX
  5
DC
100
AcDbEntity
  8
0
100
AcDbVertex
100
AcDb2dVertex
 10
1963.0
 20
312.375
 30
0.0
 70
     0
 50
0.0
  0
VERTEX
  5
DD
100
AcDbEntity
  8
0
100
AcDbVertex
100
AcDb2dVertex
 10
1963.0
 20
322.375
 30
0.0
 70
     0
 50
0.0
  0
VERTEX
  5
DE
100
AcDbEntity
  8
0
100
AcDbVertex
100
AcDb2dVertex
 10
1955.0
 20
322.375
 30
0.0
 70
     0
 50
0.0
  0
VERTEX
  5
DF
100
AcDbEntity
  8
0
100
AcDbVertex
100
AcDb2dVertex
 10
1955.0
 20
353.375
 30
0.0
 70
     0
 50
0.0
  0
VERTEX
  5
E0
100
AcDbEntity
  8
0
100
AcDbVertex
100
AcDb2dVertex
 10
1963.0
 20
353.375
 30
0.0
 70
     0
 50
0.0
  0
VERTEX
  5
E1
100
AcDbEntity
  8
0
100
AcDbVertex
100
AcDb2dVertex
 10
1963.0
 20
411.375
 30
0.0
 70
     0
 50
0.0
  0
VERTEX
  5
E2
100
AcDbEntity
  8
0
100
AcDbVertex
100
AcDb2dVertex
 10
1955.0
 20
411.375
 30
0.0
 70
     0
 50
0.0
  0
VERTEX
  5
E3
100
AcDbEntity
  8
0
100
AcDbVertex
100
AcDb2dVertex
 10
1955.0
 20
442.375
 30
0.0
 70
     0
 50
0.0
  0
VERTEX
  5
E4
100
AcDbEntity
  8
0
100
AcDbVertex
100
AcDb2dVertex
 10
1963.0
 20
442.375
 30
0.0
 70
     0
 50
0.0
  0
VERTEX
  5
E5
100
AcDbEntity
  8
0
100
AcDbVertex
100
AcDb2dVertex
 10
1963.0
 20
452.375
 30
0.0
 70
     0
 50
0.0
  0
SEQEND
  5
E6
100
AcDbEntity
  8
0
  0
POLYLINE
  5
E7
100
AcDbEntity
  8
0
100
AcDb2dPolyline
 66
     1
 10
0.0
 20
0.0
 30
0.0
  0
VERTEX
  5
E8
100
AcDbEntity
  8
0
100
AcDbVertex
100
AcDb2dVertex
 10
2153.5
 20
404.75
 30
0.0
 70
     0
 50
0.0
  0
VERTEX
  5
E9
100
AcDbEntity
  8
0
100
AcDbVertex
100
AcDb2dVertex
 10
2293.5
 20
404.75
 30
0.0
 70
     0
 50
0.0
  0
VERTEX
  5
EA
100
AcDbEntity
  8
0
100
AcDbVertex
100
AcDb2dVertex
 10
2293.5
 20
394.75
 30
0.0
 70
     0
 50
0.0
  0
VERTEX
  5
EB
100
AcDbEntity
  8
0
100
AcDbVertex
100
AcDb2dVertex
 10
2301.5
 20
394.75
 30
0.0
 70
     0
 50
0.0
  0
VERTEX
  5
EC
100
AcDbEntity
  8
0
100
AcDbVertex
100
AcDb2dVertex
 10
2301.5
 20
363.75
 30
0.0
 70
     0
 50
0.0
  0
VERTEX
  5
ED
100
AcDbEntity
  8
0
100
AcDbVertex
100
AcDb2dVertex
 10
2293.5
 20
363.75
 30
0.0
 70
     0
 50
0.0
  0
VERTEX
  5
EE
100
AcDbEntity
  8
0
100
AcDbVertex
100
AcDb2dVertex
 10
2293.5
 20
305.75
 30
0.0
 70
     0
 50
0.0
  0
VERTEX
  5
EF
100
AcDbEntity
  8
0
100
AcDbVertex
100
AcDb2dVertex
 10
2301.5
 20
305.75
 30
0.0
 70
     0
 50
0.0
  0
VERTEX
  5
F0
100
AcDbEntity
  8
0
100
AcDbVertex
100
AcDb2dVertex
 10
2301.5
 20
274.75
 30
0.0
 70
     0
 50
0.0
  0
VERTEX
  5
F1
100
AcDbEntity
  8
0
100
AcDbVertex
100
AcDb2dVertex
 10
2293.5
 20
274.75
 30
0.0
 70
     0
 50
0.0
  0
VERTEX
  5
F2
100
AcDbEntity
  8
0
100
AcDbVertex
100
AcDb2dVertex
 10
2293.5
 20
264.75
 30
0.0
 70
     0
 50
0.0
  0
VERTEX
  5
F3
100
AcDbEntity
  8
0
100
AcDbVertex
100
AcDb2dVertex
 10
2153.5
 20
264.75
 30
0.0
 70
     0
 50
0.0
  0
VERTEX
  5
F4
100
AcDbEntity
  8
0
100
AcDbVertex
100
AcDb2dVertex
 10
2153.5
 20
274.75
 30
0.0
 70
     0
 50
0.0
  0
VERTEX
  5
F5
100
AcDbEntity
  8
0
100
AcDbVertex
100
AcDb2dVertex
 10
2145.5
 20
274.75
 30
0.0
 70
     0
 50
0.0
  0
VERTEX
  5
F6
100
AcDbEntity
  8
0
100
AcDbVertex
100
AcDb2dVertex
 10
2145.5
 20
305.75
 30
0.0
 70
     0
 50
0.0
  0
VERTEX
  5
F7
100
AcDbEntity
  8
0
100
AcDbVertex
100
AcDb2dVertex
 10
2153.5
 20
305.75
 30
0.0
 70
     0
 50
0.0
  0
VERTEX
  5
F8
100
AcDbEntity
  8
0
100
AcDbVertex
100
AcDb2dVertex
 10
2153.5
 20
363.75
 30
0.0
 70
     0
 50
0.0
  0
VERTEX
  5
F9
100
AcDbEntity
  8
0
100
AcDbVertex
100
AcDb2dVertex
 10
2145.5
 20
363.75
 30
0.0
 70
     0
 50
0.0
  0
VERTEX
  5
FA
100
AcDbEntity
  8
0
100
AcDbVertex
100
AcDb2dVertex
 10
2145.5
 20
394.75
 30
0.0
 70
     0
 50
0.0
  0
VERTEX
  5
FB
100
AcDbEntity
  8
0
100
AcDbVertex
100
AcDb2dVertex
 10
2153.5
 20
394.75
 30
0.0
 70
     0
 50
0.0
  0
VERTEX
  5
FC
100
AcDbEntity
  8
0
100
AcDbVertex
100
AcDb2dVertex
 10
2153.5
 20
404.75
 30
0.0
 70
     0
 50
0.0
  0
SEQEND
  5
FD
100
AcDbEntity
  8
0
  0
POLYLINE
  5
FE
100
AcDbEntity
  8
0
100
AcDb2dPolyline
 66
     1
 10
0.0
 20
0.0
 30
0.0
  0
VERTEX
  5
FF
100
AcDbEntity
  8
0
100
AcDbVertex
100
AcDb2dVertex
 10
2344.0
 20
404.75
 30
0.0
 70
     0
 50
0.0
  0
VERTEX
  5
100
100
AcDbEntity
  8
0
100
AcDbVertex
100
AcDb2dVertex
 10
2484.0
 20
404.75
 30
0.0
 70
     0
 50
0.0
  0
VERTEX
  5
101
100
AcDbEntity
  8
0
100
AcDbVertex
100
AcDb2dVertex
 10
2484.0
 20
394.75
 30
0.0
 70
     0
 50
0.0
  0
VERTEX
  5
102
100
AcDbEntity
  8
0
100
AcDbVertex
100
AcDb2dVertex
 10
2492.0
 20
394.75
 30
0.0
 70
     0
 50
0.0
  0
VERTEX
  5
103
100
AcDbEntity
  8
0
100
AcDbVertex
100
AcDb2dVertex
 10
2492.0
 20
363.75
 30
0.0
 70
     0
 50
0.0
  0
VERTEX
  5
104
100
AcDbEntity
  8
0
100
AcDbVertex
100
AcDb2dVertex
 10
2484.0
 20
363.75
 30
0.0
 70
     0
 50
0.0
  0
VERTEX
  5
105
100
AcDbEntity
  8
0
100
AcDbVertex
100
AcDb2dVertex
 10
2484.0
 20
305.75
 30
0.0
 70
     0
 50
0.0
  0
VERTEX
  5
106
100
AcDbEntity
  8
0
100
AcDbVertex
100
AcDb2dVertex
 10
2492.0
 20
305.75
 30
0.0
 70
     0
 50
0.0
  0
VERTEX
  5
107
100
AcDbEntity
  8
0
100
AcDbVertex
100
AcDb2dVertex
 10
2492.0
 20
274.75
 30
0.0
 70
     0
 50
0.0
  0
VERTEX
  5
108
100
AcDbEntity
  8
0
100
AcDbVertex
100
AcDb2dVertex
 10
2484.0
 20
274.75
 30
0.0
 70
     0
 50
0.0
  0
VERTEX
  5
109
100
AcDbEntity
  8
0
100
AcDbVertex
100
AcDb2dVertex
 10
2484.0
 20
264.75
 30
0.0
 70
     0
 50
0.0
  0
VERTEX
  5
10A
100
AcDbEntity
  8
0
100
AcDbVertex
100
AcDb2dVertex
 10
2344.0
 20
264.75
 30
0.0
 70
     0
 50
0.0
  0
VERTEX
  5
10B
100
AcDbEntity
  8
0
100
AcDbVertex
100
AcDb2dVertex
 10
2344.0
 20
274.75
 30
0.0
 70
     0
 50
0.0
  0
VERTEX
  5
10C
100
AcDbEntity
  8
0
100
AcDbVertex
100
AcDb2dVertex
 10
2336.0
 20
274.75
 30
0.0
 70
     0
 50
0.0
  0
VERTEX
  5
10D
100
AcDbEntity
  8
0
100
AcDbVertex
100
AcDb2dVertex
 10
2336.0
 20
305.75
 30
0.0
 70
     0
 50
0.0
  0
VERTEX
  5
10E
100
AcDbEntity
  8
0
100
AcDbVertex
100
AcDb2dVertex
 10
2344.0
 20
305.75
 30
0.0
 70
     0
 50
0.0
  0
VERTEX
  5
10F
100
AcDbEntity
  8
0
100
AcDbVertex
100
AcDb2dVertex
 10
2344.0
 20
363.75
 30
0.0
 70
     0
 50
0.0
  0
VERTEX
  5
110
100
AcDbEntity
  8
0
100
AcDbVertex
100
AcDb2dVertex
 10
2336.0
 20
363.75
 30
0.0
 70
     0
 50
0.0
  0
VERTEX
  5
111
100
AcDbEntity
  8
0
100
AcDbVertex
100
AcDb2dVertex
 10
2336.0
 20
394.75
 30
0.0
 70
     0
 50
0.0
  0
VERTEX
  5
112
100
AcDbEntity
  8
0
100
AcDbVertex
100
AcDb2dVertex
 10
2344.0
 20
394.75
 30
0.0
 70
     0
 50
0.0
  0
VERTEX
  5
113
100
AcDbEntity
  8
0
100
AcDbVertex
100
AcDb2dVertex
 10
2344.0
 20
404.75
 30
0.0
 70
     0
 50
0.0
  0
SEQEND
  5
114
100
AcDbEntity
  8
0
  0
POLYLINE
  5
115
100
AcDbEntity
  8
0
100
AcDb2dPolyline
 66
     1
 10
0.0
 20
0.0
 30
0.0
  0
VERTEX
  5
116
100
AcDbEntity
  8
0
100
AcDbVertex
100
AcDb2dVertex
 10
58.0
 20
214.25
 30
0.0
 70
     0
 50
0.0
  0
VERTEX
  5
117
100
AcDbEntity
  8
0
100
AcDbVertex
100
AcDb2dVertex
 10
198.0
 20
214.25
 30
0.0
 70
     0
 50
0.0
  0
VERTEX
  5
118
100
AcDbEntity
  8
0
100
AcDbVertex
100
AcDb2dVertex
 10
198.0
 20
204.25
 30
0.0
 70
     0
 50
0.0
  0
VERTEX
  5
119
100
AcDbEntity
  8
0
100
AcDbVertex
100
AcDb2dVertex
 10
206.0
 20
204.25
 30
0.0
 70
     0
 50
0.0
  0
VERTEX
  5
11A
100
AcDbEntity
  8
0
100
AcDbVertex
100
AcDb2dVertex
 10
206.0
 20
173.25
 30
0.0
 70
     0
 50
0.0
  0
VERTEX
  5
11B
100
AcDbEntity
  8
0
100
AcDbVertex
100
AcDb2dVertex
 10
198.0
 20
173.25
 30
0.0
 70
     0
 50
0.0
  0
VERTEX
  5
11C
100
AcDbEntity
  8
0
100
AcDbVertex
100
AcDb2dVertex
 10
198.0
 20
115.25
 30
0.0
 70
     0
 50
0.0
  0
VERTEX
  5
11D
100
AcDbEntity
  8
0
100
AcDbVertex
100
AcDb2dVertex
 10
206.0
 20
115.25
 30
0.0
 70
     0
 50
0.0
  0
VERTEX
  5
11E
100
AcDbEntity
  8
0
100
AcDbVertex
100
AcDb2dVertex
 10
206.0
 20
84.25
 30
0.0
 70
     0
 50
0.0
  0
VERTEX
  5
11F
100
AcDbEntity
  8
0
100
AcDbVertex
100
AcDb2dVertex
 10
198.0
 20
84.25
 30
0.0
 70
     0
 50
0.0
  0
VERTEX
  5
120
100
AcDbEntity
  8
0
100
AcDbVertex
100
AcDb2dVertex
 10
198.0
 20
74.25
 30
0.0
 70
     0
 50
0.0
  0
VERTEX
  5
121
100
AcDbEntity
  8
0
100
AcDbVertex
100
AcDb2dVertex
 10
58.0
 20
74.25
 30
0.0
 70
     0
 50
0.0
  0
VERTEX
  5
122
100
AcDbEntity
  8
0
100
AcDbVertex
100
AcDb2dVertex
 10
58.0
 20
84.25
 30
0.0
 70
     0
 50
0.0
  0
VERTEX
  5
123
100
AcDbEntity
  8
0
100
AcDbVertex
100
AcDb2dVertex
 10
50.0
 20
84.25
 30
0.0
 70
     0
 50
0.0
  0
VERTEX
  5
124
100
AcDbEntity
  8
0
100
AcDbVertex
100
AcDb2dVertex
 10
50.0
 20
115.25
 30
0.0
 70
     0
 50
0.0
  0
VERTEX
  5
125
100
AcDbEntity
  8
0
100
AcDbVertex
100
AcDb2dVertex
 10
58.0
 20
115.25
 30
0.0
 70
     0
 50
0.0
  0
VERTEX
  5
126
100
AcDbEntity
  8
0
100
AcDbVertex
100
AcDb2dVertex
 10
58.0
 20
173.25
 30
0.0
 70
     0
 50
0.0
  0
VERTEX
  5
127
100
AcDbEntity
  8
0
100
AcDbVertex
100
AcDb2dVertex
 10
50.0
 20
173.25
 30
0.0
 70
     0
 50
0.0
  0
VERTEX
  5
128
100
AcDbEntity
  8
0
100
AcDbVertex
100
AcDb2dVertex
 10
50.0
 20
204.25
 30
0.0
 70
     0
 50
0.0
  0
VERTEX
  5
129
100
AcDbEntity
  8
0
100
AcDbVertex
100
AcDb2dVertex
 10
58.0
 20
204.25
 30
0.0
 70
     0
 50
0.0
  0
VERTEX
  5
12A
100
AcDbEntity
  8
0
100
AcDbVertex
100
AcDb2dVertex
 10
58.0
 20
214.25
 30
0.0
 70
     0
 50
0.0
  0
SEQEND
  5
12B
100
AcDbEntity
  8
0
  0
POLYLINE
  5
12C
100
AcDbEntity
  8
0
100
AcDb2dPolyline
 66
     1
 10
0.0
 20
0.0
 30
0.0
  0
VERTEX
  5
12D
100
AcDbEntity
  8
0
100
AcDbVertex
100
AcDb2dVertex
 10
248.5
 20
214.25
 30
0.0
 70
     0
 50
0.0
  0
VERTEX
  5
12E
100
AcDbEntity
  8
0
100
AcDbVertex
100
AcDb2dVertex
 10
388.5
 20
214.25
 30
0.0
 70
     0
 50
0.0
  0
VERTEX
  5
12F
100
AcDbEntity
  8
0
100
AcDbVertex
100
AcDb2dVertex
 10
388.5
 20
204.25
 30
0.0
 70
     0
 50
0.0
  0
VERTEX
  5
130
100
AcDbEntity
  8
0
100
AcDbVertex
100
AcDb2dVertex
 10
396.5
 20
204.25
 30
0.0
 70
     0
 50
0.0
  0
VERTEX
  5
131
100
AcDbEntity
  8
0
100
AcDbVertex
100
AcDb2dVertex
 10
396.5
 20
173.25
 30
0.0
 70
     0
 50
0.0
  0
VERTEX
  5
132
100
AcDbEntity
  8
0
100
AcDbVertex
100
AcDb2dVertex
 10
388.5
 20
173.25
 30
0.0
 70
     0
 50
0.0
  0
VERTEX
  5
133
100
AcDbEntity
  8
0
100
AcDbVertex
100
AcDb2dVertex
 10
388.5
 20
115.25
 30
0.0
 70
     0
 50
0.0
  0
VERTEX
  5
134
100
AcDbEntity
  8
0
100
AcDbVertex
100
AcDb2dVertex
 10
396.5
 20
115.25
 30
0.0
 70
     0
 50
0.0
  0
VERTEX
  5
135
100
AcDbEntity
  8
0
100
AcDbVertex
100
AcDb2dVertex
 10
396.5
 20
84.25
 30
0.0
 70
     0
 50
0.0
  0
VERTEX
  5
136
100
AcDbEntity
  8
0
100
AcDbVertex
100
AcDb2dVertex
 10
388.5
 20
84.25
 30
0.0
 70
     0
 50
0.0
  0
VERTEX
  5
137
100
AcDbEntity
  8
0
100
AcDbVertex
100
AcDb2dVertex
 10
388.5
 20
74.25
 30
0.0
 70
     0
 50
0.0
  0
VERTEX
  5
138
100
AcDbEntity
  8
0
100
AcDbVertex
100
AcDb2dVertex
 10
248.5
 20
74.25
 30
0.0
 70
     0
 50
0.0
  0
VERTEX
  5
139
100
AcDbEntity
  8
0
100
AcDbVertex
100
AcDb2dVertex
 10
248.5
 20
84.25
 30
0.0
 70
     0
 50
0.0
  0
VERTEX
  5
13A
100
AcDbEntity
  8
0
100
AcDbVertex
100
AcDb2dVertex
 10
240.5
 20
84.25
 30
0.0
 70
     0
 50
0.0
  0
VERTEX
  5
13B
100
AcDbEntity
  8
0
100
AcDbVertex
100
AcDb2dVertex
 10
240.5
 20
115.25
 30
0.0
 70
     0
 50
0.0
  0
VERTEX
  5
13C
100
AcDbEntity
  8
0
100
AcDbVertex
100
AcDb2dVertex
 10
248.5
 20
115.25
 30
0.0
 70
     0
 50
0.0
  0
VERTEX
  5
13D
100
AcDbEntity
  8
0
100
AcDbVertex
100
AcDb2dVertex
 10
248.5
 20
173.25
 30
0.0
 70
     0
 50
0.0
  0
VERTEX
  5
13E
100
AcDbEntity
  8
0
100
AcDbVertex
100
AcDb2dVertex
 10
240.5
 20
173.25
 30
0.0
 70
     0
 50
0.0
  0
VERTEX
  5
13F
100
AcDbEntity
  8
0
100
AcDbVertex
100
AcDb2dVertex
 10
240.5
 20
204.25
 30
0.0
 70
     0
 50
0.0
  0
VERTEX
  5
140
100
AcDbEntity
  8
0
100
AcDbVertex
100
AcDb2dVertex
 10
248.5
 20
204.25
 30
0.0
 70
     0
 50
0.0
  0
VERTEX
  5
141
100
AcDbEntity
  8
0
100
AcDbVertex
100
AcDb2dVertex
 10
248.5
 20
214.25
 30
0.0
 70
     0
 50
0.0
  0
SEQEND
  5
142
100
AcDbEntity
  8
0
  0
POLYLINE
  5
143
100
AcDbEntity
  8
0
100
AcDb2dPolyline
 66
     1
 10
0.0
 20
0.0
 30
0.0
  0
VERTEX
  5
144
100
AcDbEntity
  8
0
100
AcDbVertex
100
AcDb2dVertex
 10
439.0
 20
261.875
 30
0.0
 70
     0
 50
0.0
  0
VERTEX
  5
145
100
AcDbEntity
  8
0
100
AcDbVertex
100
AcDb2dVertex
 10
579.0
 20
261.875
 30
0.0
 70
     0
 50
0.0
  0
VERTEX
  5
146
100
AcDbEntity
  8
0
100
AcDbVertex
100
AcDb2dVertex
 10
579.0
 20
251.875
 30
0.0
 70
     0
 50
0.0
  0
VERTEX
  5
147
100
AcDbEntity
  8
0
100
AcDbVertex
100
AcDb2dVertex
 10
587.0
 20
251.875
 30
0.0
 70
     0
 50
0.0
  0
VERTEX
  5
148
100
AcDbEntity
  8
0
100
AcDbVertex
100
AcDb2dVertex
 10
587.0
 20
220.875
 30
0.0
 70
     0
 50
0.0
  0
VERTEX
  5
149
100
AcDbEntity
  8
0
100
AcDbVertex
100
AcDb2dVertex
 10
579.0
 20
220.875
 30
0.0
 70
     0
 50
0.0
  0
VERTEX
  5
14A
100
AcDbEntity
  8
0
100
AcDbVertex
100
AcDb2dVertex
 10
579.0
 20
162.875
 30
0.0
 70
     0
 50
0.0
  0
VERTEX
  5
14B
100
AcDbEntity
  8
0
100
AcDbVertex
100
AcDb2dVertex
 10
587.0
 20
162.875
 30
0.0
 70
     0
 50
0.0
  0
VERTEX
  5
14C
100
AcDbEntity
  8
0
100
AcDbVertex
100
AcDb2dVertex
 10
587.0
 20
131.875
 30
0.0
 70
     0
 50
0.0
  0
VERTEX
  5
14D
100
AcDbEntity
  8
0
100
AcDbVertex
100
AcDb2dVertex
 10
579.0
 20
131.875
 30
0.0
 70
     0
 50
0.0
  0
VERTEX
  5
14E
100
AcDbEntity
  8
0
100
AcDbVertex
100
AcDb2dVertex
 10
579.0
 20
121.875
 30
0.0
 70
     0
 50
0.0
  0
VERTEX
  5
14F
100
AcDbEntity
  8
0
100
AcDbVertex
100
AcDb2dVertex
 10
439.0
 20
121.875
 30
0.0
 70
     0
 50
0.0
  0
VERTEX
  5
150
100
AcDbEntity
  8
0
100
AcDbVertex
100
AcDb2dVertex
 10
439.0
 20
131.875
 30
0.0
 70
     0
 50
0.0
  0
VERTEX
  5
151
100
AcDbEntity
  8
0
100
AcDbVertex
100
AcDb2dVertex
 10
431.0
 20
131.875
 30
0.0
 70
     0
 50
0.0
  0
VERTEX
  5
152
100
AcDbEntity
  8
0
100
AcDbVertex
100
AcDb2dVertex
 10
431.0
 20
162.875
 30
0.0
 70
     0
 50
0.0
  0
VERTEX
  5
153
100
AcDbEntity
  8
0
100
AcDbVertex
100
AcDb2dVertex
 10
439.0
 20
162.875
 30
0.0
 70
     0
 50
0.0
  0
VERTEX
  5
154
100
AcDbEntity
  8
0
100
AcDbVertex
100
AcDb2dVertex
 10
439.0
 20
220.875
 30
0.0
 70
     0
 50
0.0
  0
VERTEX
  5
155
100
AcDbEntity
  8
0
100
AcDbVertex
100
AcDb2dVertex
 10
431.0
 20
220.875
 30
0.0
 70
     0
 50
0.0
  0
VERTEX
  5
156
100
AcDbEntity
  8
0
100
AcDbVertex
100
AcDb2dVertex
 10
431.0
 20
251.875
 30
0.0
 70
     0
 50
0.0
  0
VERTEX
  5
157
100
AcDbEntity
  8
0
100
AcDbVertex
100
AcDb2dVertex
 10
439.0
 20
251.875
 30
0.0
 70
     0
 50
0.0
  0
VERTEX
  5
158
100
AcDbEntity
  8
0
100
AcDbVertex
100
AcDb2dVertex
 10
439.0
 20
261.875
 30
0.0
 70
     0
 50
0.0
  0
SEQEND
  5
159
100
AcDbEntity
  8
0
  0
POLYLINE
  5
15A
100
AcDbEntity
  8
0
100
AcDb2dPolyline
 66
     1
 10
0.0
 20
0.0
 30
0.0
  0
VERTEX
  5
15B
100
AcDbEntity
  8
0
100
AcDbVertex
100
AcDb2dVertex
 10
629.5
 20
309.5
 30
0.0
 70
     0
 50
0.0
  0
VERTEX
  5
15C
100
AcDbEntity
  8
0
100
AcDbVertex
100
AcDb2dVertex
 10
769.5
 20
309.5
 30
0.0
 70
     0
 50
0.0
  0
VERTEX
  5
15D
100
AcDbEntity
  8
0
100
AcDbVertex
100
AcDb2dVertex
 10
769.5
 20
299.5
 30
0.0
 70
     0
 50
0.0
  0
VERTEX
  5
15E
100
AcDbEntity
  8
0
100
AcDbVertex
100
AcDb2dVertex
 10
777.5
 20
299.5
 30
0.0
 70
     0
 50
0.0
  0
VERTEX
  5
15F
100
AcDbEntity
  8
0
100
AcDbVertex
100
AcDb2dVertex
 10
777.5
 20
268.5
 30
0.0
 70
     0
 50
0.0
  0
VERTEX
  5
160
100
AcDbEntity
  8
0
100
AcDbVertex
100
AcDb2dVertex
 10
769.5
 20
268.5
 30
0.0
 70
     0
 50
0.0
  0
VERTEX
  5
161
100
AcDbEntity
  8
0
100
AcDbVertex
100
AcDb2dVertex
 10
769.5
 20
210.5
 30
0.0
 70
     0
 50
0.0
  0
VERTEX
  5
162
100
AcDbEntity
  8
0
100
AcDbVertex
100
AcDb2dVertex
 10
777.5
 20
210.5
 30
0.0
 70
     0
 50
0.0
  0
VERTEX
  5
163
100
AcDbEntity
  8
0
100
AcDbVertex
100
AcDb2dVertex
 10
777.5
 20
179.5
 30
0.0
 70
     0
 50
0.0
  0
VERTEX
  5
164
100
AcDbEntity
  8
0
100
AcDbVertex
100
AcDb2dVertex
 10
769.5
 20
179.5
 30
0.0
 70
     0
 50
0.0
  0
VERTEX
  5
165
100
AcDbEntity
  8
0
100
AcDbVertex
100
AcDb2dVertex
 10
769.5
 20
169.5
 30
0.0
 70
     0
 50
0.0
  0
VERTEX
  5
166
100
AcDbEntity
  8
0
100
AcDbVertex
100
AcDb2dVertex
 10
629.5
 20
169.5
 30
0.0
 70
     0
 50
0.0
  0
VERTEX
  5
167
100
AcDbEntity
  8
0
100
AcDbVertex
100
AcDb2dVertex
 10
629.5
 20
179.5
 30
0.0
 70
     0
 50
0.0
  0
VERTEX
  5
168
100
AcDbEntity
  8
0
100
AcDbVertex
100
AcDb2dVertex
 10
621.5
 20
179.5
 30
0.0
 70
     0
 50
0.0
  0
VERTEX
  5
169
100
AcDbEntity
  8
0
100
AcDbVertex
100
AcDb2dVertex
 10
621.5
 20
210.5
 30
0.0
 70
     0
 50
0.0
  0
VERTEX
  5
16A
100
AcDbEntity
  8
0
100
AcDbVertex
100
AcDb2dVertex
 10
629.5
 20
210.5
 30
0.0
 70
     0
 50
0.0
  0
VERTEX
  5
16B
100
AcDbEntity
  8
0
100
AcDbVertex
100
AcDb2dVertex
 10
629.5
 20
268.5
 30
0.0
 70
     0
 50
0.0
  0
VERTEX
  5
16C
100
AcDbEntity
  8
0
100
AcDbVertex
100
AcDb2dVertex
 10
621.5
 20
268.5
 30
0.0
 70
     0
 50
0.0
  0
VERTEX
  5
16D
100
AcDbEntity
  8
0
100
AcDbVertex
100
AcDb2dVertex
 10
621.5
 20
299.5
 30
0.0
 70
     0
 50
0.0
  0
VERTEX
  5
16E
100
AcDbEntity
  8
0
100
AcDbVertex
100
AcDb2dVertex
 10
629.5
 20
299.5
 30
0.0
 70
     0
 50
0.0
  0
VERTEX
  5
16F
100
AcDbEntity
  8
0
100
AcDbVertex
100
AcDb2dVertex
 10
629.5
 20
309.5
 30
0.0
 70
     0
 50
0.0
  0
SEQEND
  5
170
100
AcDbEntity
  8
0
  0
POLYLINE
  5
171
100
AcDbEntity
  8
0
100
AcDb2dPolyline
 66
     1
 10
0.0
 20
0.0
 30
0.0
  0
VERTEX
  5
172
100
AcDbEntity
  8
0
100
AcDbVertex
100
AcDb2dVertex
 10
820.0
 20
261.875
 30
0.0
 70
     0
 50
0.0
  0
VERTEX
  5
173
100
AcDbEntity
  8
0
100
AcDbVertex
100
AcDb2dVertex
 10
960.0
 20
261.875
 30
0.0
 70
     0
 50
0.0
  0
VERTEX
  5
174
100
AcDbEntity
  8
0
100
AcDbVertex
100
AcDb2dVertex
 10
960.0
 20
251.875
 30
0.0
 70
     0
 50
0.0
  0
VERTEX
  5
175
100
AcDbEntity
  8
0
100
AcDbVertex
100
AcDb2dVertex
 10
968.0
 20
251.875
 30
0.0
 70
     0
 50
0.0
  0
VERTEX
  5
176
100
AcDbEntity
  8
0
100
AcDbVertex
100
AcDb2dVertex
 10
968.0
 20
220.875
 30
0.0
 70
     0
 50
0.0
  0
VERTEX
  5
177
100
AcDbEntity
  8
0
100
AcDbVertex
100
AcDb2dVertex
 10
960.0
 20
220.875
 30
0.0
 70
     0
 50
0.0
  0
VERTEX
  5
178
100
AcDbEntity
  8
0
100
AcDbVertex
100
AcDb2dVertex
 10
960.0
 20
162.875
 30
0.0
 70
     0
 50
0.0
  0
VERTEX
  5
179
100
AcDbEntity
  8
0
100
AcDbVertex
100
AcDb2dVertex
 10
968.0
 20
162.875
 30
0.0
 70
     0
 50
0.0
  0
VERTEX
  5
17A
100
AcDbEntity
  8
0
100
AcDbVertex
100
AcDb2dVertex
 10
968.0
 20
131.875
 30
0.0
 70
     0
 50
0.0
  0
VERTEX
  5
17B
100
AcDbEntity
  8
0
100
AcDbVertex
100
AcDb2dVertex
 10
960.0
 20
131.875
 30
0.0
 70
     0
 50
0.0
  0
VERTEX
  5
17C
100
AcDbEntity
  8
0
100
AcDbVertex
100
AcDb2dVertex
 10
960.0
 20
121.875
 30
0.0
 70
     0
 50
0.0
  0
VERTEX
  5
17D
100
AcDbEntity
  8
0
100
AcDbVertex
100
AcDb2dVertex
 10
820.0
 20
121.875
 30
0.0
 70
     0
 50
0.0
  0
VERTEX
  5
17E
100
AcDbEntity
  8
0
100
AcDbVertex
100
AcDb2dVertex
 10
820.0
 20
131.875
 30
0.0
 70
     0
 50
0.0
  0
VERTEX
  5
17F
100
AcDbEntity
  8
0
100
AcDbVertex
100
AcDb2dVertex
 10
812.0
 20
131.875
 30
0.0
 70
     0
 50
0.0
  0
VERTEX
  5
180
100
AcDbEntity
  8
0
100
AcDbVertex
100
AcDb2dVertex
 10
812.0
 20
162.875
 30
0.0
 70
     0
 50
0.0
  0
VERTEX
  5
181
100
AcDbEntity
  8
0
100
AcDbVertex
100
AcDb2dVertex
 10
820.0
 20
162.875
 30
0.0
 70
     0
 50
0.0
  0
VERTEX
  5
182
100
AcDbEntity
  8
0
100
AcDbVertex
100
AcDb2dVertex
 10
820.0
 20
220.875
 30
0.0
 70
     0
 50
0.0
  0
VERTEX
  5
183
100
AcDbEntity
  8
0
100
AcDbVertex
100
AcDb2dVertex
 10
812.0
 20
220.875
 30
0.0
 70
     0
 50
0.0
  0
VERTEX
  5
184
100
AcDbEntity
  8
0
100
AcDbVertex
100
AcDb2dVertex
 10
812.0
 20
251.875
 30
0.0
 70
     0
 50
0.0
  0
VERTEX
  5
185
100
AcDbEntity
  8
0
100
AcDbVertex
100
AcDb2dVertex
 10
820.0
 20
251.875
 30
0.0
 70
     0
 50
0.0
  0
VERTEX
  5
186
100
AcDbEntity
  8
0
100
AcDbVertex
100
AcDb2dVertex
 10
820.0
 20
261.875
 30
0.0
 70
     0
 50
0.0
  0
SEQEND
  5
187
100
AcDbEntity
  8
0
  0
POLYLINE
  5
188
100
AcDbEntity
  8
0
100
AcDb2dPolyline
 66
     1
 10
0.0
 20
0.0
 30
0.0
  0
VERTEX
  5
189
100
AcDbEntity
  8
0
100
AcDbVertex
100
AcDb2dVertex
 10
1010.5
 20
214.25
 30
0.0
 70
     0
 50
0.0
  0
VERTEX
  5
18A
100
AcDbEntity
  8
0
100
AcDbVertex
100
AcDb2dVertex
 10
1150.5
 20
214.25
 30
0.0
 70
     0
 50
0.0
  0
VERTEX
  5
18B
100
AcDbEntity
  8
0
100
AcDbVertex
100
AcDb2dVertex
 10
1150.5
 20
204.25
 30
0.0
 70
     0
 50
0.0
  0
VERTEX
  5
18C
100
AcDbEntity
  8
0
100
AcDbVertex
100
AcDb2dVertex
 10
1158.5
 20
204.25
 30
0.0
 70
     0
 50
0.0
  0
VERTEX
  5
18D
100
AcDbEntity
  8
0
100
AcDbVertex
100
AcDb2dVertex
 10
1158.5
 20
173.25
 30
0.0
 70
     0
 50
0.0
  0
VERTEX
  5
18E
100
AcDbEntity
  8
0
100
AcDbVertex
100
AcDb2dVertex
 10
1150.5
 20
173.25
 30
0.0
 70
     0
 50
0.0
  0
VERTEX
  5
18F
100
AcDbEntity
  8
0
100
AcDbVertex
100
AcDb2dVertex
 10
1150.5
 20
115.25
 30
0.0
 70
     0
 50
0.0
  0
VERTEX
  5
190
100
AcDbEntity
  8
0
100
AcDbVertex
100
AcDb2dVertex
 10
1158.5
 20
115.25
 30
0.0
 70
     0
 50
0.0
  0
VERTEX
  5
191
100
AcDbEntity
  8
0
100
AcDbVertex
100
AcDb2dVertex
 10
1158.5
 20
84.25
 30
0.0
 70
     0
 50
0.0
  0
VERTEX
  5
192
100
AcDbEntity
  8
0
100
AcDbVertex
100
AcDb2dVertex
 10
1150.5
 20
84.25
 30
0.0
 70
     0
 50
0.0
  0
VERTEX
  5
193
100
AcDbEntity
  8
0
100
AcDbVertex
100
AcDb2dVertex
 10
1150.5
 20
74.25
 30
0.0
 70
     0
 50
0.0
  0
VERTEX
  5
194
100
AcDbEntity
  8
0
100
AcDbVertex
100
AcDb2dVertex
 10
1010.5
 20
74.25
 30
0.0
 70
     0
 50
0.0
  0
VERTEX
  5
195
100
AcDbEntity
  8
0
100
AcDbVertex
100
AcDb2dVertex
 10
1010.5
 20
84.25
 30
0.0
 70
     0
 50
0.0
  0
VERTEX
  5
196
100
AcDbEntity
  8
0
100
AcDbVertex
100
AcDb2dVertex
 10
1002.5
 20
84.25
 30
0.0
 70
     0
 50
0.0
  0
VERTEX
  5
197
100
AcDbEntity
  8
0
100
AcDbVertex
100
AcDb2dVertex
 10
1002.5
 20
115.25
 30
0.0
 70
     0
 50
0.0
  0
VERTEX
  5
198
100
AcDbEntity
  8
0
100
AcDbVertex
100
AcDb2dVertex
 10
1010.5
 20
115.25
 30
0.0
 70
     0
 50
0.0
  0
VERTEX
  5
199
100
AcDbEntity
  8
0
100
AcDbVertex
100
AcDb2dVertex
 10
1010.5
 20
173.25
 30
0.0
 70
     0
 50
0.0
  0
VERTEX
  5
19A
100
AcDbEntity
  8
0
100
AcDbVertex
100
AcDb2dVertex
 10
1002.5
 20
173.25
 30
0.0
 70
     0
 50
0.0
  0
VERTEX
  5
19B
100
AcDbEntity
  8
0
100
AcDbVertex
100
AcDb2dVertex
 10
1002.5
 20
204.25
 30
0.0
 70
     0
 50
0.0
  0
VERTEX
  5
19C
100
AcDbEntity
  8
0
100
AcDbVertex
100
AcDb2dVertex
 10
1010.5
 20
204.25
 30
0.0
 70
     0
 50
0.0
  0
VERTEX
  5
19D
100
AcDbEntity
  8
0
100
AcDbVertex
100
AcDb2dVertex
 10
1010.5
 20
214.25
 30
0.0
 70
     0
 50
0.0
  0
SEQEND
  5
19E
100
AcDbEntity
  8
0
  0
POLYLINE
  5
19F
100
AcDbEntity
  8
0
100
AcDb2dPolyline
 66
     1
 10
0.0
 20
0.0
 30
0.0
  0
VERTEX
  5
1A0
100
AcDbEntity
  8
0
100
AcDbVertex
100
AcDb2dVertex
 10
1391.5
 20
214.25
 30
0.0
 70
     0
 50
0.0
  0
VERTEX
  5
1A1
100
AcDbEntity
  8
0
100
AcDbVertex
100
AcDb2dVertex
 10
1531.5
 20
214.25
 30
0.0
 70
     0
 50
0.0
  0
VERTEX
  5
1A2
100
AcDbEntity
  8
0
100
AcDbVertex
100
AcDb2dVertex
 10
1531.5
 20
204.25
 30
0.0
 70
     0
 50
0.0
  0
VERTEX
  5
1A3
100
AcDbEntity
  8
0
100
AcDbVertex
100
AcDb2dVertex
 10
1539.5
 20
204.25
 30
0.0
 70
     0
 50
0.0
  0
VERTEX
  5
1A4
100
AcDbEntity
  8
0
100
AcDbVertex
100
AcDb2dVertex
 10
1539.5
 20
173.25
 30
0.0
 70
     0
 50
0.0
  0
VERTEX
  5
1A5
100
AcDbEntity
  8
0
100
AcDbVertex
100
AcDb2dVertex
 10
1531.5
 20
173.25
 30
0.0
 70
     0
 50
0.0
  0
VERTEX
  5
1A6
100
AcDbEntity
  8
0
100
AcDbVertex
100
AcDb2dVertex
 10
1531.5
 20
115.25
 30
0.0
 70
     0
 50
0.0
  0
VERTEX
  5
1A7
100
AcDbEntity
  8
0
100
AcDbVertex
100
AcDb2dVertex
 10
1539.5
 20
115.25
 30
0.0
 70
     0
 50
0.0
  0
VERTEX
  5
1A8
100
AcDbEntity
  8
0
100
AcDbVertex
100
AcDb2dVertex
 10
1539.5
 20
84.25
 30
0.0
 70
     0
 50
0.0
  0
VERTEX
  5
1A9
100
AcDbEntity
  8
0
100
AcDbVertex
100
AcDb2dVertex
 10
1531.5
 20
84.25
 30
0.0
 70
     0
 50
0.0
  0
VERTEX
  5
1AA
100
AcDbEntity
  8
0
100
AcDbVertex
100
AcDb2dVertex
 10
1531.5
 20
74.25
 30
0.0
 70
     0
 50
0.0
  0
VERTEX
  5
1AB
100
AcDbEntity
  8
0
100
AcDbVertex
100
AcDb2dVertex
 10
1391.5
 20
74.25
 30
0.0
 70
     0
 50
0.0
  0
VERTEX
  5
1AC
100
AcDbEntity
  8
0
100
AcDbVertex
100
AcDb2dVertex
 10
1391.5
 20
84.25
 30
0.0
 70
     0
 50
0.0
  0
VERTEX
  5
1AD
100
AcDbEntity
  8
0
100
AcDbVertex
100
AcDb2dVertex
 10
1383.5
 20
84.25
 30
0.0
 70
     0
 50
0.0
  0
VERTEX
  5
1AE
100
AcDbEntity
  8
0
100
AcDbVertex
100
AcDb2dVertex
 10
1383.5
 20
115.25
 30
0.0
 70
     0
 50
0.0
  0
VERTEX
  5
1AF
100
AcDbEntity
  8
0
100
AcDbVertex
100
AcDb2dVertex
 10
1391.5
 20
115.25
 30
0.0
 70
     0
 50
0.0
  0
VERTEX
  5
1B0
100
AcDbEntity
  8
0
100
AcDbVertex
100
AcDb2dVertex
 10
1391.5
 20
173.25
 30
0.0
 70
     0
 50
0.0
  0
VERTEX
  5
1B1
100
AcDbEntity
  8
0
100
AcDbVertex
100
AcDb2dVertex
 10
1383.5
 20
173.25
 30
0.0
 70
     0
 50
0.0
  0
VERTEX
  5
1B2
100
AcDbEntity
  8
0
100
AcDbVertex
100
AcDb2dVertex
 10
1383.5
 20
204.25
 30
0.0
 70
     0
 50
0.0
  0
VERTEX
  5
1B3
100
AcDbEntity
  8
0
100
AcDbVertex
100
AcDb2dVertex
 10
1391.5
 20
204.25
 30
0.0
 70
     0
 50
0.0
  0
VERTEX
  5
1B4
100
AcDbEntity
  8
0
100
AcDbVertex
100
AcDb2dVertex
 10
1391.5
 20
214.25
 30
0.0
 70
     0
 50
0.0
  0
SEQEND
  5
1B5
100
AcDbEntity
  8
0
  0
POLYLINE
  5
1B6
100
AcDbEntity
  8
0
100
AcDb2dPolyline
 66
     1
 10
0.0
 20
0.0
 30
0.0
  0
VERTEX
  5
1B7
100
AcDbEntity
  8
0
100
AcDbVertex
100
AcDb2dVertex
 10
1582.0
 20
261.875
 30
0.0
 70
     0
 50
0.0
  0
VERTEX
  5
1B8
100
AcDbEntity
  8
0
100
AcDbVertex
100
AcDb2dVertex
 10
1722.0
 20
261.875
 30
0.0
 70
     0
 50
0.0
  0
VERTEX
  5
1B9
100
AcDbEntity
  8
0
100
AcDbVertex
100
AcDb2dVertex
 10
1722.0
 20
251.875
 30
0.0
 70
     0
 50
0.0
  0
VERTEX
  5
1BA
100
AcDbEntity
  8
0
100
AcDbVertex
100
AcDb2dVertex
 10
1730.0
 20
251.875
 30
0.0
 70
     0
 50
0.0
  0
VERTEX
  5
1BB
100
AcDbEntity
  8
0
100
AcDbVertex
100
AcDb2dVertex
 10
1730.0
 20
220.875
 30
0.0
 70
     0
 50
0.0
  0
VERTEX
  5
1BC
100
AcDbEntity
  8
0
100
AcDbVertex
100
AcDb2dVertex
 10
1722.0
 20
220.875
 30
0.0
 70
     0
 50
0.0
  0
VERTEX
  5
1BD
100
AcDbEntity
  8
0
100
AcDbVertex
100
AcDb2dVertex
 10
1722.0
 20
162.875
 30
0.0
 70
     0
 50
0.0
  0
VERTEX
  5
1BE
100
AcDbEntity
  8
0
100
AcDbVertex
100
AcDb2dVertex
 10
1730.0
 20
162.875
 30
0.0
 70
     0
 50
0.0
  0
VERTEX
  5
1BF
100
AcDbEntity
  8
0
100
AcDbVertex
100
AcDb2dVertex
 10
1730.0
 20
131.875
 30
0.0
 70
     0
 50
0.0
  0
VERTEX
  5
1C0
100
AcDbEntity
  8
0
100
AcDbVertex
100
AcDb2dVertex
 10
1722.0
 20
131.875
 30
0.0
 70
     0
 50
0.0
  0
VERTEX
  5
1C1
100
AcDbEntity
  8
0
100
AcDbVertex
100
AcDb2dVertex
 10
1722.0
 20
121.875
 30
0.0
 70
     0
 50
0.0
  0
VERTEX
  5
1C2
100
AcDbEntity
  8
0
100
AcDbVertex
100
AcDb2dVertex
 10
1582.0
 20
121.875
 30
0.0
 70
     0
 50
0.0
  0
VERTEX
  5
1C3
100
AcDbEntity
  8
0
100
AcDbVertex
100
AcDb2dVertex
 10
1582.0
 20
131.875
 30
0.0
 70
     0
 50
0.0
  0
VERTEX
  5
1C4
100
AcDbEntity
  8
0
100
AcDbVertex
100
AcDb2dVertex
 10
1574.0
 20
131.875
 30
0.0
 70
     0
 50
0.0
  0
VERTEX
  5
1C5
100
AcDbEntity
  8
0
100
AcDbVertex
100
AcDb2dVertex
 10
1574.0
 20
162.875
 30
0.0
 70
     0
 50
0.0
  0
VERTEX
  5
1C6
100
AcDbEntity
  8
0
100
AcDbVertex
100
AcDb2dVertex
 10
1582.0
 20
162.875
 30
0.0
 70
     0
 50
0.0
  0
VERTEX
  5
1C7
100
AcDbEntity
  8
0
100
AcDbVertex
100
AcDb2dVertex
 10
1582.0
 20
220.875
 30
0.0
 70
     0
 50
0.0
  0
VERTEX
  5
1C8
100
AcDbEntity
  8
0
100
AcDbVertex
100
AcDb2dVertex
 10
1574.0
 20
220.875
 30
0.0
 70
     0
 50
0.0
  0
VERTEX
  5
1C9
100
AcDbEntity
  8
0
100
AcDbVertex
100
AcDb2dVertex
 10
1574.0
 20
251.875
 30
0.0
 70
     0
 50
0.0
  0
VERTEX
  5
1CA
100
AcDbEntity
  8
0
100
AcDbVertex
100
AcDb2dVertex
 10
1582.0
 20
251.875
 30
0.0
 70
     0
 50
0.0
  0
VERTEX
  5
1CB
100
AcDbEntity
  8
0
100
AcDbVertex
100
AcDb2dVertex
 10
1582.0
 20
261.875
 30
0.0
 70
     0
 50
0.0
  0
SEQEND
  5
1CC
100
AcDbEntity
  8
0
  0
POLYLINE
  5
1CD
100
AcDbEntity
  8
0
100
AcDb2dPolyline
 66
     1
 10
0.0
 20
0.0
 30
0.0
  0
VERTEX
  5
1CE
100
AcDbEntity
  8
0
100
AcDbVertex
100
AcDb2dVertex
 10
1772.5
 20
309.5
 30
0.0
 70
     0
 50
0.0
  0
VERTEX
  5
1CF
100
AcDbEntity
  8
0
100
AcDbVertex
100
AcDb2dVertex
 10
1912.5
 20
309.5
 30
0.0
 70
     0
 50
0.0
  0
VERTEX
  5
1D0
100
AcDbEntity
  8
0
100
AcDbVertex
100
AcDb2dVertex
 10
1912.5
 20
299.5
 30
0.0
 70
     0
 50
0.0
  0
VERTEX
  5
1D1
100
AcDbEntity
  8
0
100
AcDbVertex
100
AcDb2dVertex
 10
1920.5
 20
299.5
 30
0.0
 70
     0
 50
0.0
  0
VERTEX
  5
1D2
100
AcDbEntity
  8
0
100
AcDbVertex
100
AcDb2dVertex
 10
1920.5
 20
268.5
 30
0.0
 70
     0
 50
0.0
  0
VERTEX
  5
1D3
100
AcDbEntity
  8
0
100
AcDbVertex
100
AcDb2dVertex
 10
1912.5
 20
268.5
 30
0.0
 70
     0
 50
0.0
  0
VERTEX
  5
1D4
100
AcDbEntity
  8
0
100
AcDbVertex
100
AcDb2dVertex
 10
1912.5
 20
210.5
 30
0.0
 70
     0
 50
0.0
  0
VERTEX
  5
1D5
100
AcDbEntity
  8
0
100
AcDbVertex
100
AcDb2dVertex
 10
1920.5
 20
210.5
 30
0.0
 70
     0
 50
0.0
  0
VERTEX
  5
1D6
100
AcDbEntity
  8
0
100
AcDbVertex
100
AcDb2dVertex
 10
1920.5
 20
179.5
 30
0.0
 70
     0
 50
0.0
  0
VERTEX
  5
1D7
100
AcDbEntity
  8
0
100
AcDbVertex
100
AcDb2dVertex
 10
1912.5
 20
179.5
 30
0.0
 70
     0
 50
0.0
  0
VERTEX
  5
1D8
100
AcDbEntity
  8
0
100
AcDbVertex
100
AcDb2dVertex
 10
1912.5
 20
169.5
 30
0.0
 70
     0
 50
0.0
  0
VERTEX
  5
1D9
100
AcDbEntity
  8
0
100
AcDbVertex
100
AcDb2dVertex
 10
1772.5
 20
169.5
 30
0.0
 70
     0
 50
0.0
  0
VERTEX
  5
1DA
100
AcDbEntity
  8
0
100
AcDbVertex
100
AcDb2dVertex
 10
1772.5
 20
179.5
 30
0.0
 70
     0
 50
0.0
  0
VERTEX
  5
1DB
100
AcDbEntity
  8
0
100
AcDbVertex
100
AcDb2dVertex
 10
1764.5
 20
179.5
 30
0.0
 70
     0
 50
0.0
  0
VERTEX
  5
1DC
100
AcDbEntity
  8
0
100
AcDbVertex
100
AcDb2dVertex
 10
1764.5
 20
210.5
 30
0.0
 70
     0
 50
0.0
  0
VERTEX
  5
1DD
100
AcDbEntity
  8
0
100
AcDbVertex
100
AcDb2dVertex
 10
1772.5
 20
210.5
 30
0.0
 70
     0
 50
0.0
  0
VERTEX
  5
1DE
100
AcDbEntity
  8
0
100
AcDbVertex
100
AcDb2dVertex
 10
1772.5
 20
268.5
 30
0.0
 70
     0
 50
0.0
  0
VERTEX
  5
1DF
100
AcDbEntity
  8
0
100
AcDbVertex
100
AcDb2dVertex
 10
1764.5
 20
268.5
 30
0.0
 70
     0
 50
0.0
  0
VERTEX
  5
1E0
100
AcDbEntity
  8
0
100
AcDbVertex
100
AcDb2dVertex
 10
1764.5
 20
299.5
 30
0.0
 70
     0
 50
0.0
  0
VERTEX
  5
1E1
100
AcDbEntity
  8
0
100
AcDbVertex
100
AcDb2dVertex
 10
1772.5
 20
299.5
 30
0.0
 70
     0
 50
0.0
  0
VERTEX
  5
1E2
100
AcDbEntity
  8
0
100
AcDbVertex
100
AcDb2dVertex
 10
1772.5
 20
309.5
 30
0.0
 70
     0
 50
0.0
  0
SEQEND
  5
1E3
100
AcDbEntity
  8
0
  0
POLYLINE
  5
1E4
100
AcDbEntity
  8
0
100
AcDb2dPolyline
 66
     1
 10
0.0
 20
0.0
 30
0.0
  0
VERTEX
  5
1E5
100
AcDbEntity
  8
0
100
AcDbVertex
100
AcDb2dVertex
 10
1963.0
 20
261.875
 30
0.0
 70
     0
 50
0.0
  0
VERTEX
  5
1E6
100
AcDbEntity
  8
0
100
AcDbVertex
100
AcDb2dVertex
 10
2103.0
 20
261.875
 30
0.0
 70
     0
 50
0.0
  0
VERTEX
  5
1E7
100
AcDbEntity
  8
0
100
AcDbVertex
100
AcDb2dVertex
 10
2103.0
 20
251.875
 30
0.0
 70
     0
 50
0.0
  0
VERTEX
  5
1E8
100
AcDbEntity
  8
0
100
AcDbVertex
100
AcDb2dVertex
 10
2111.0
 20
251.875
 30
0.0
 70
     0
 50
0.0
  0
VERTEX
  5
1E9
100
AcDbEntity
  8
0
100
AcDbVertex
100
AcDb2dVertex
 10
2111.0
 20
220.875
 30
0.0
 70
     0
 50
0.0
  0
VERTEX
  5
1EA
100
AcDbEntity
  8
0
100
AcDbVertex
100
AcDb2dVertex
 10
2103.0
 20
220.875
 30
0.0
 70
     0
 50
0.0
  0
VERTEX
  5
1EB
100
AcDbEntity
  8
0
100
AcDbVertex
100
AcDb2dVertex
 10
2103.0
 20
162.875
 30
0.0
 70
     0
 50
0.0
  0
VERTEX
  5
1EC
100
AcDbEntity
  8
0
100
AcDbVertex
100
AcDb2dVertex
 10
2111.0
 20
162.875
 30
0.0
 70
     0
 50
0.0
  0
VERTEX
  5
1ED
100
AcDbEntity
  8
0
100
AcDbVertex
100
AcDb2dVertex
 10
2111.0
 20
131.875
 30
0.0
 70
     0
 50
0.0
  0
VERTEX
  5
1EE
100
AcDbEntity
  8
0
100
AcDbVertex
100
AcDb2dVertex
 10
2103.0
 20
131.875
 30
0.0
 70
     0
 50
0.0
  0
VERTEX
  5
1EF
100
AcDbEntity
  8
0
100
AcDbVertex
100
AcDb2dVertex
 10
2103.0
 20
121.875
 30
0.0
 70
     0
 50
0.0
  0
VERTEX
  5
1F0
100
AcDbEntity
  8
0
100
AcDbVertex
100
AcDb2dVertex
 10
1963.0
 20
121.875
 30
0.0
 70
     0
 50
0.0
  0
VERTEX
  5
1F1
100
AcDbEntity
  8
0
100
AcDbVertex
100
AcDb2dVertex
 10
1963.0
 20
131.875
 30
0.0
 70
     0
 50
0.0
  0
VERTEX
  5
1F2
100
AcDbEntity
  8
0
100
AcDbVertex
100
AcDb2dVertex
 10
1955.0
 20
131.875
 30
0.0
 70
     0
 50
0.0
  0
VERTEX
  5
1F3
100
AcDbEntity
  8
0
100
AcDbVertex
100
AcDb2dVertex
 10
1955.0
 20
162.875
 30
0.0
 70
     0
 50
0.0
  0
VERTEX
  5
1F4
100
AcDbEntity
  8
0
100
AcDbVertex
100
AcDb2dVertex
 10
1963.0
 20
162.875
 30
0.0
 70
     0
 50
0.0
  0
VERTEX
  5
1F5
100
AcDbEntity
  8
0
100
AcDbVertex
100
AcDb2dVertex
 10
1963.0
 20
220.875
 30
0.0
 70
     0
 50
0.0
  0
VERTEX
  5
1F6
100
AcDbEntity
  8
0
100
AcDbVertex
100
AcDb2dVertex
 10
1955.0
 20
220.875
 30
0.0
 70
     0
 50
0.0
  0
VERTEX
  5
1F7
100
AcDbEntity
  8
0
100
AcDbVertex
100
AcDb2dVertex
 10
1955.0
 20
251.875
 30
0.0
 70
     0
 50
0.0
  0
VERTEX
  5
1F8
100
AcDbEntity
  8
0
100
AcDbVertex
100
AcDb2dVertex
 10
1963.0
 20
251.875
 30
0.0
 70
     0
 50
0.0
  0
VERTEX
  5
1F9
100
AcDbEntity
  8
0
100
AcDbVertex
100
AcDb2dVertex
 10
1963.0
 20
261.875
 30
0.0
 70
     0
 50
0.0
  0
SEQEND
  5
1FA
100
AcDbEntity
  8
0
  0
POLYLINE
  5
1FB
100
AcDbEntity
  8
0
100
AcDb2dPolyline
 66
     1
 10
0.0
 20
0.0
 30
0.0
  0
VERTEX
  5
1FC
100
AcDbEntity
  8
0
100
AcDbVertex
100
AcDb2dVertex
 10
2153.5
 20
214.25
 30
0.0
 70
     0
 50
0.0
  0
VERTEX
  5
1FD
100
AcDbEntity
  8
0
100
AcDbVertex
100
AcDb2dVertex
 10
2293.5
 20
214.25
 30
0.0
 70
     0
 50
0.0
  0
VERTEX
  5
1FE
100
AcDbEntity
  8
0
100
AcDbVertex
100
AcDb2dVertex
 10
2293.5
 20
204.25
 30
0.0
 70
     0
 50
0.0
  0
VERTEX
  5
1FF
100
AcDbEntity
  8
0
100
AcDbVertex
100
AcDb2dVertex
 10
2301.5
 20
204.25
 30
0.0
 70
     0
 50
0.0
  0
VERTEX
  5
200
100
AcDbEntity
  8
0
100
AcDbVertex
100
AcDb2dVertex
 10
2301.5
 20
173.25
 30
0.0
 70
     0
 50
0.0
  0
VERTEX
  5
201
100
AcDbEntity
  8
0
100
AcDbVertex
100
AcDb2dVertex
 10
2293.5
 20
173.25
 30
0.0
 70
     0
 50
0.0
  0
VERTEX
  5
202
100
AcDbEntity
  8
0
100
AcDbVertex
100
AcDb2dVertex
 10
2293.5
 20
115.25
 30
0.0
 70
     0
 50
0.0
  0
VERTEX
  5
203
100
AcDbEntity
  8
0
100
AcDbVertex
100
AcDb2dVertex
 10
2301.5
 20
115.25
 30
0.0
 70
     0
 50
0.0
  0
VERTEX
  5
204
100
AcDbEntity
  8
0
100
AcDbVertex
100
AcDb2dVertex
 10
2301.5
 20
84.25
 30
0.0
 70
     0
 50
0.0
  0
VERTEX
  5
205
100
AcDbEntity
  8
0
100
AcDbVertex
100
AcDb2dVertex
 10
2293.5
 20
84.25
 30
0.0
 70
     0
 50
0.0
  0
VERTEX
  5
206
100
AcDbEntity
  8
0
100
AcDbVertex
100
AcDb2dVertex
 10
2293.5
 20
74.25
 30
0.0
 70
     0
 50
0.0
  0
VERTEX
  5
207
100
AcDbEntity
  8
0
100
AcDbVertex
100
AcDb2dVertex
 10
2153.5
 20
74.25
 30
0.0
 70
     0
 50
0.0
  0
VERTEX
  5
208
100
AcDbEntity
  8
0
100
AcDbVertex
100
AcDb2dVertex
 10
2153.5
 20
84.25
 30
0.0
 70
     0
 50
0.0
  0
VERTEX
  5
209
100
AcDbEntity
  8
0
100
AcDbVertex
100
AcDb2dVertex
 10
2145.5
 20
84.25
 30
0.0
 70
     0
 50
0.0
  0
VERTEX
  5
20A
100
AcDbEntity
  8
0
100
AcDbVertex
100
AcDb2dVertex
 10
2145.5
 20
115.25
 30
0.0
 70
     0
 50
0.0
  0
VERTEX
  5
20B
100
AcDbEntity
  8
0
100
AcDbVertex
100
AcDb2dVertex
 10
2153.5
 20
115.25
 30
0.0
 70
     0
 50
0.0
  0
VERTEX
  5
20C
100
AcDbEntity
  8
0
100
AcDbVertex
100
AcDb2dVertex
 10
2153.5
 20
173.25
 30
0.0
 70
     0
 50
0.0
  0
VERTEX
  5
20D
100
AcDbEntity
  8
0
100
AcDbVertex
100
AcDb2dVertex
 10
2145.5
 20
173.25
 30
0.0
 70
     0
 50
0.0
  0
VERTEX
  5
20E
100
AcDbEntity
  8
0
100
AcDbVertex
100
AcDb2dVertex
 10
2145.5
 20
204.25
 30
0.0
 70
     0
 50
0.0
  0
VERTEX
  5
20F
100
AcDbEntity
  8
0
100
AcDbVertex
100
AcDb2dVertex
 10
2153.5
 20
204.25
 30
0.0
 70
     0
 50
0.0
  0
VERTEX
  5
210
100
AcDbEntity
  8
0
100
AcDbVertex
100
AcDb2dVertex
 10
2153.5
 20
214.25
 30
0.0
 70
     0
 50
0.0
  0
SEQEND
  5
211
100
AcDbEntity
  8
0
  0
POLYLINE
  5
212
100
AcDbEntity
  8
0
100
AcDb2dPolyline
 66
     1
 10
0.0
 20
0.0
 30
0.0
  0
VERTEX
  5
213
100
AcDbEntity
  8
0
100
AcDbVertex
100
AcDb2dVertex
 10
2344.0
 20
214.25
 30
0.0
 70
     0
 50
0.0
  0
VERTEX
  5
214
100
AcDbEntity
  8
0
100
AcDbVertex
100
AcDb2dVertex
 10
2484.0
 20
214.25
 30
0.0
 70
     0
 50
0.0
  0
VERTEX
  5
215
100
AcDbEntity
  8
0
100
AcDbVertex
100
AcDb2dVertex
 10
2484.0
 20
204.25
 30
0.0
 70
     0
 50
0.0
  0
VERTEX
  5
216
100
AcDbEntity
  8
0
100
AcDbVertex
100
AcDb2dVertex
 10
2492.0
 20
204.25
 30
0.0
 70
     0
 50
0.0
  0
VERTEX
  5
217
100
AcDbEntity
  8
0
100
AcDbVertex
100
AcDb2dVertex
 10
2492.0
 20
173.25
 30
0.0
 70
     0
 50
0.0
  0
VERTEX
  5
218
100
AcDbEntity
  8
0
100
AcDbVertex
100
AcDb2dVertex
 10
2484.0
 20
173.25
 30
0.0
 70
     0
 50
0.0
  0
VERTEX
  5
219
100
AcDbEntity
  8
0
100
AcDbVertex
100
AcDb2dVertex
 10
2484.0
 20
115.25
 30
0.0
 70
     0
 50
0.0
  0
VERTEX
  5
21A
100
AcDbEntity
  8
0
100
AcDbVertex
100
AcDb2dVertex
 10
2492.0
 20
115.25
 30
0.0
 70
     0
 50
0.0
  0
VERTEX
  5
21B
100
AcDbEntity
  8
0
100
AcDbVertex
100
AcDb2dVertex
 10
2492.0
 20
84.25
 30
0.0
 70
     0
 50
0.0
  0
VERTEX
  5
21C
100
AcDbEntity
  8
0
100
AcDbVertex
100
AcDb2dVertex
 10
2484.0
 20
84.25
 30
0.0
 70
     0
 50
0.0
  0
VERTEX
  5
21D
100
AcDbEntity
  8
0
100
AcDbVertex
100
AcDb2dVertex
 10
2484.0
 20
74.25
 30
0.0
 70
     0
 50
0.0
  0
VERTEX
  5
21E
100
AcDbEntity
  8
0
100
AcDbVertex
100
AcDb2dVertex
 10
2344.0
 20
74.25
 30
0.0
 70
     0
 50
0.0
  0
VERTEX
  5
21F
100
AcDbEntity
  8
0
100
AcDbVertex
100
AcDb2dVertex
 10
2344.0
 20
84.25
 30
0.0
 70
     0
 50
0.0
  0
VERTEX
  5
220
100
AcDbEntity
  8
0
100
AcDbVertex
100
AcDb2dVertex
 10
2336.0
 20
84.25
 30
0.0
 70
     0
 50
0.0
  0
VERTEX
  5
221
100
AcDbEntity
  8
0
100
AcDbVertex
100
AcDb2dVertex
 10
2336.0
 20
115.25
 30
0.0
 70
     0
 50
0.0
  0
VERTEX
  5
222
100
AcDbEntity
  8
0
100
AcDbVertex
100
AcDb2dVertex
 10
2344.0
 20
115.25
 30
0.0
 70
     0
 50
0.0
  0
VERTEX
  5
223
100
AcDbEntity
  8
0
100
AcDbVertex
100
AcDb2dVertex
 10
2344.0
 20
173.25
 30
0.0
 70
     0
 50
0.0
  0
VERTEX
  5
224
100
AcDbEntity
  8
0
100
AcDbVertex
100
AcDb2dVertex
 10
2336.0
 20
173.25
 30
0.0
 70
     0
 50
0.0
  0
VERTEX
  5
225
100
AcDbEntity
  8
0
100
AcDbVertex
100
AcDb2dVertex
 10
2336.0
 20
204.25
 30
0.0
 70
     0
 50
0.0
  0
VERTEX
  5
226
100
AcDbEntity
  8
0
100
AcDbVertex
100
AcDb2dVertex
 10
2344.0
 20
204.25
 30
0.0
 70
     0
 50
0.0
  0
VERTEX
  5
227
100
AcDbEntity
  8
0
100
AcDbVertex
100
AcDb2dVertex
 10
2344.0
 20
214.25
 30
0.0
 70
     0
 50
0.0
  0
SEQEND
  5
228
100
AcDbEntity
  8
0
  0
POLYLINE
  5
229
100
AcDbEntity
  8
0
100
AcDb2dPolyline
 66
     1
 10
0.0
 20
0.0
 30
0.0
  0
VERTEX
  5
22A
100
AcDbEntity
  8
0
100
AcDbVertex
100
AcDb2dVertex
 10
58.0
 20
23.75
 30
0.0
 70
     0
 50
0.0
  0
VERTEX
  5
22B
100
AcDbEntity
  8
0
100
AcDbVertex
100
AcDb2dVertex
 10
198.0
 20
23.75
 30
0.0
 70
     0
 50
0.0
  0
VERTEX
  5
22C
100
AcDbEntity
  8
0
100
AcDbVertex
100
AcDb2dVertex
 10
198.0
 20
13.75
 30
0.0
 70
     0
 50
0.0
  0
VERTEX
  5
22D
100
AcDbEntity
  8
0
100
AcDbVertex
100
AcDb2dVertex
 10
206.0
 20
13.75
 30
0.0
 70
     0
 50
0.0
  0
VERTEX
  5
22E
100
AcDbEntity
  8
0
100
AcDbVertex
100
AcDb2dVertex
 10
206.0
 20
-17.25
 30
0.0
 70
     0
 50
0.0
  0
VERTEX
  5
22F
100
AcDbEntity
  8
0
100
AcDbVertex
100
AcDb2dVertex
 10
198.0
 20
-17.25
 30
0.0
 70
     0
 50
0.0
  0
VERTEX
  5
230
100
AcDbEntity
  8
0
100
AcDbVertex
100
AcDb2dVertex
 10
198.0
 20
-75.25
 30
0.0
 70
     0
 50
0.0
  0
VERTEX
  5
231
100
AcDbEntity
  8
0
100
AcDbVertex
100
AcDb2dVertex
 10
206.0
 20
-75.25
 30
0.0
 70
     0
 50
0.0
  0
VERTEX
  5
232
100
AcDbEntity
  8
0
100
AcDbVertex
100
AcDb2dVertex
 10
206.0
 20
-106.25
 30
0.0
 70
     0
 50
0.0
  0
VERTEX
  5
233
100
AcDbEntity
  8
0
100
AcDbVertex
100
AcDb2dVertex
 10
198.0
 20
-106.25
 30
0.0
 70
     0
 50
0.0
  0
VERTEX
  5
234
100
AcDbEntity
  8
0
100
AcDbVertex
100
AcDb2dVertex
 10
198.0
 20
-116.25
 30
0.0
 70
     0
 50
0.0
  0
VERTEX
  5
235
100
AcDbEntity
  8
0
100
AcDbVertex
100
AcDb2dVertex
 10
58.0
 20
-116.25
 30
0.0
 70
     0
 50
0.0
  0
VERTEX
  5
236
100
AcDbEntity
  8
0
100
AcDbVertex
100
AcDb2dVertex
 10
58.0
 20
-106.25
 30
0.0
 70
     0
 50
0.0
  0
VERTEX
  5
237
100
AcDbEntity
  8
0
100
AcDbVertex
100
AcDb2dVertex
 10
50.0
 20
-106.25
 30
0.0
 70
     0
 50
0.0
  0
VERTEX
  5
238
100
AcDbEntity
  8
0
100
AcDbVertex
100
AcDb2dVertex
 10
50.0
 20
-75.25
 30
0.0
 70
     0
 50
0.0
  0
VERTEX
  5
239
100
AcDbEntity
  8
0
100
AcDbVertex
100
AcDb2dVertex
 10
58.0
 20
-75.25
 30
0.0
 70
     0
 50
0.0
  0
VERTEX
  5
23A
100
AcDbEntity
  8
0
100
AcDbVertex
100
AcDb2dVertex
 10
58.0
 20
-17.25
 30
0.0
 70
     0
 50
0.0
  0
VERTEX
  5
23B
100
AcDbEntity
  8
0
100
AcDbVertex
100
AcDb2dVertex
 10
50.0
 20
-17.25
 30
0.0
 70
     0
 50
0.0
  0
VERTEX
  5
23C
100
AcDbEntity
  8
0
100
AcDbVertex
100
AcDb2dVertex
 10
50.0
 20
13.75
 30
0.0
 70
     0
 50
0.0
  0
VERTEX
  5
23D
100
AcDbEntity
  8
0
100
AcDbVertex
100
AcDb2dVertex
 10
58.0
 20
13.75
 30
0.0
 70
     0
 50
0.0
  0
VERTEX
  5
23E
100
AcDbEntity
  8
0
100
AcDbVertex
100
AcDb2dVertex
 10
58.0
 20
23.75
 30
0.0
 70
     0
 50
0.0
  0
SEQEND
  5
23F
100
AcDbEntity
  8
0
  0
POLYLINE
  5
240
100
AcDbEntity
  8
0
100
AcDb2dPolyline
 66
     1
 10
0.0
 20
0.0
 30
0.0
  0
VERTEX
  5
241
100
AcDbEntity
  8
0
100
AcDbVertex
100
AcDb2dVertex
 10
248.5
 20
23.75
 30
0.0
 70
     0
 50
0.0
  0
VERTEX
  5
242
100
AcDbEntity
  8
0
100
AcDbVertex
100
AcDb2dVertex
 10
388.5
 20
23.75
 30
0.0
 70
     0
 50
0.0
  0
VERTEX
  5
243
100
AcDbEntity
  8
0
100
AcDbVertex
100
AcDb2dVertex
 10
388.5
 20
13.75
 30
0.0
 70
     0
 50
0.0
  0
VERTEX
  5
244
100
AcDbEntity
  8
0
100
AcDbVertex
100
AcDb2dVertex
 10
396.5
 20
13.75
 30
0.0
 70
     0
 50
0.0
  0
VERTEX
  5
245
100
AcDbEntity
  8
0
100
AcDbVertex
100
AcDb2dVertex
 10
396.5
 20
-17.25
 30
0.0
 70
     0
 50
0.0
  0
VERTEX
  5
246
100
AcDbEntity
  8
0
100
AcDbVertex
100
AcDb2dVertex
 10
388.5
 20
-17.25
 30
0.0
 70
     0
 50
0.0
  0
VERTEX
  5
247
100
AcDbEntity
  8
0
100
AcDbVertex
100
AcDb2dVertex
 10
388.5
 20
-75.25
 30
0.0
 70
     0
 50
0.0
  0
VERTEX
  5
248
100
AcDbEntity
  8
0
100
AcDbVertex
100
AcDb2dVertex
 10
396.5
 20
-75.25
 30
0.0
 70
     0
 50
0.0
  0
VERTEX
  5
249
100
AcDbEntity
  8
0
100
AcDbVertex
100
AcDb2dVertex
 10
396.5
 20
-106.25
 30
0.0
 70
     0
 50
0.0
  0
VERTEX
  5
24A
100
AcDbEntity
  8
0
100
AcDbVertex
100
AcDb2dVertex
 10
388.5
 20
-106.25
 30
0.0
 70
     0
 50
0.0
  0
VERTEX
  5
24B
100
AcDbEntity
  8
0
100
AcDbVertex
100
AcDb2dVertex
 10
388.5
 20
-116.25
 30
0.0
 70
     0
 50
0.0
  0
VERTEX
  5
24C
100
AcDbEntity
  8
0
100
AcDbVertex
100
AcDb2dVertex
 10
248.5
 20
-116.25
 30
0.0
 70
     0
 50
0.0
  0
VERTEX
  5
24D
100
AcDbEntity
  8
0
100
AcDbVertex
100
AcDb2dVertex
 10
248.5
 20
-106.25
 30
0.0
 70
     0
 50
0.0
  0
VERTEX
  5
24E
100
AcDbEntity
  8
0
100
AcDbVertex
100
AcDb2dVertex
 10
240.5
 20
-106.25
 30
0.0
 70
     0
 50
0.0
  0
VERTEX
  5
24F
100
AcDbEntity
  8
0
100
AcDbVertex
100
AcDb2dVertex
 10
240.5
 20
-75.25
 30
0.0
 70
     0
 50
0.0
  0
VERTEX
  5
250
100
AcDbEntity
  8
0
100
AcDbVertex
100
AcDb2dVertex
 10
248.5
 20
-75.25
 30
0.0
 70
     0
 50
0.0
  0
VERTEX
  5
251
100
AcDbEntity
  8
0
100
AcDbVertex
100
AcDb2dVertex
 10
248.5
 20
-17.25
 30
0.0
 70
     0
 50
0.0
  0
VERTEX
  5
252
100
AcDbEntity
  8
0
100
AcDbVertex
100
AcDb2dVertex
 10
240.5
 20
-17.25
 30
0.0
 70
     0
 50
0.0
  0
VERTEX
  5
253
100
AcDbEntity
  8
0
100
AcDbVertex
100
AcDb2dVertex
 10
240.5
 20
13.75
 30
0.0
 70
     0
 50
0.0
  0
VERTEX
  5
254
100
AcDbEntity
  8
0
100
AcDbVertex
100
AcDb2dVertex
 10
248.5
 20
13.75
 30
0.0
 70
     0
 50
0.0
  0
VERTEX
  5
255
100
AcDbEntity
  8
0
100
AcDbVertex
100
AcDb2dVertex
 10
248.5
 20
23.75
 30
0.0
 70
     0
 50
0.0
  0
SEQEND
  5
256
100
AcDbEntity
  8
0
  0
POLYLINE
  5
257
100
AcDbEntity
  8
0
100
AcDb2dPolyline
 66
     1
 10
0.0
 20
0.0
 30
0.0
  0
VERTEX
  5
258
100
AcDbEntity
  8
0
100
AcDbVertex
100
AcDb2dVertex
 10
439.0
 20
71.375
 30
0.0
 70
     0
 50
0.0
  0
VERTEX
  5
259
100
AcDbEntity
  8
0
100
AcDbVertex
100
AcDb2dVertex
 10
579.0
 20
71.375
 30
0.0
 70
     0
 50
0.0
  0
VERTEX
  5
25A
100
AcDbEntity
  8
0
100
AcDbVertex
100
AcDb2dVertex
 10
579.0
 20
61.375
 30
0.0
 70
     0
 50
0.0
  0
VERTEX
  5
25B
100
AcDbEntity
  8
0
100
AcDbVertex
100
AcDb2dVertex
 10
587.0
 20
61.375
 30
0.0
 70
     0
 50
0.0
  0
VERTEX
  5
25C
100
AcDbEntity
  8
0
100
AcDbVertex
100
AcDb2dVertex
 10
587.0
 20
30.375
 30
0.0
 70
     0
 50
0.0
  0
VERTEX
  5
25D
100
AcDbEntity
  8
0
100
AcDbVertex
100
AcDb2dVertex
 10
579.0
 20
30.375
 30
0.0
 70
     0
 50
0.0
  0
VERTEX
  5
25E
100
AcDbEntity
  8
0
100
AcDbVertex
100
AcDb2dVertex
 10
579.0
 20
-27.625
 30
0.0
 70
     0
 50
0.0
  0
VERTEX
  5
25F
100
AcDbEntity
  8
0
100
AcDbVertex
100
AcDb2dVertex
 10
587.0
 20
-27.625
 30
0.0
 70
     0
 50
0.0
  0
VERTEX
  5
260
100
AcDbEntity
  8
0
100
AcDbVertex
100
AcDb2dVertex
 10
587.0
 20
-58.625
 30
0.0
 70
     0
 50
0.0
  0
VERTEX
  5
261
100
AcDbEntity
  8
0
100
AcDbVertex
100
AcDb2dVertex
 10
579.0
 20
-58.625
 30
0.0
 70
     0
 50
0.0
  0
VERTEX
  5
262
100
AcDbEntity
  8
0
100
AcDbVertex
100
AcDb2dVertex
 10
579.0
 20
-68.625
 30
0.0
 70
     0
 50
0.0
  0
VERTEX
  5
263
100
AcDbEntity
  8
0
100
AcDbVertex
100
AcDb2dVertex
 10
439.0
 20
-68.625
 30
0.0
 70
     0
 50
0.0
  0
VERTEX
  5
264
100
AcDbEntity
  8
0
100
AcDbVertex
100
AcDb2dVertex
 10
439.0
 20
-58.625
 30
0.0
 70
     0
 50
0.0
  0
VERTEX
  5
265
100
AcDbEntity
  8
0
100
AcDbVertex
100
AcDb2dVertex
 10
431.0
 20
-58.625
 30
0.0
 70
     0
 50
0.0
  0
VERTEX
  5
266
100
AcDbEntity
  8
0
100
AcDbVertex
100
AcDb2dVertex
 10
431.0
 20
-27.625
 30
0.0
 70
     0
 50
0.0
  0
VERTEX
  5
267
100
AcDbEntity
  8
0
100
AcDbVertex
100
AcDb2dVertex
 10
439.0
 20
-27.625
 30
0.0
 70
     0
 50
0.0
  0
VERTEX
  5
268
100
AcDbEntity
  8
0
100
AcDbVertex
100
AcDb2dVertex
 10
439.0
 20
30.375
 30
0.0
 70
     0
 50
0.0
  0
VERTEX
  5
269
100
AcDbEntity
  8
0
100
AcDbVertex
100
AcDb2dVertex
 10
431.0
 20
30.375
 30
0.0
 70
     0
 50
0.0
  0
VERTEX
  5
26A
100
AcDbEntity
  8
0
100
AcDbVertex
100
AcDb2dVertex
 10
431.0
 20
61.375
 30
0.0
 70
     0
 50
0.0
  0
VERTEX
  5
26B
100
AcDbEntity
  8
0
100
AcDbVertex
100
AcDb2dVertex
 10
439.0
 20
61.375
 30
0.0
 70
     0
 50
0.0
  0
VERTEX
  5
26C
100
AcDbEntity
  8
0
100
AcDbVertex
100
AcDb2dVertex
 10
439.0
 20
71.375
 30
0.0
 70
     0
 50
0.0
  0
SEQEND
  5
26D
100
AcDbEntity
  8
0
  0
POLYLINE
  5
26E
100
AcDbEntity
  8
0
100
AcDb2dPolyline
 66
     1
 10
0.0
 20
0.0
 30
0.0
  0
VERTEX
  5
26F
100
AcDbEntity
  8
0
100
AcDbVertex
100
AcDb2dVertex
 10
629.5
 20
119.0
 30
0.0
 70
     0
 50
0.0
  0
VERTEX
  5
270
100
AcDbEntity
  8
0
100
AcDbVertex
100
AcDb2dVertex
 10
769.5
 20
119.0
 30
0.0
 70
     0
 50
0.0
  0
VERTEX
  5
271
100
AcDbEntity
  8
0
100
AcDbVertex
100
AcDb2dVertex
 10
769.5
 20
109.0
 30
0.0
 70
     0
 50
0.0
  0
VERTEX
  5
272
100
AcDbEntity
  8
0
100
AcDbVertex
100
AcDb2dVertex
 10
777.5
 20
109.0
 30
0.0
 70
     0
 50
0.0
  0
VERTEX
  5
273
100
AcDbEntity
  8
0
100
AcDbVertex
100
AcDb2dVertex
 10
777.5
 20
78.0
 30
0.0
 70
     0
 50
0.0
  0
VERTEX
  5
274
100
AcDbEntity
  8
0
100
AcDbVertex
100
AcDb2dVertex
 10
769.5
 20
78.0
 30
0.0
 70
     0
 50
0.0
  0
VERTEX
  5
275
100
AcDbEntity
  8
0
100
AcDbVertex
100
AcDb2dVertex
 10
769.5
 20
20.0
 30
0.0
 70
     0
 50
0.0
  0
VERTEX
  5
276
100
AcDbEntity
  8
0
100
AcDbVertex
100
AcDb2dVertex
 10
777.5
 20
20.0
 30
0.0
 70
     0
 50
0.0
  0
VERTEX
  5
277
100
AcDbEntity
  8
0
100
AcDbVertex
100
AcDb2dVertex
 10
777.5
 20
-11.0
 30
0.0
 70
     0
 50
0.0
  0
VERTEX
  5
278
100
AcDbEntity
  8
0
100
AcDbVertex
100
AcDb2dVertex
 10
769.5
 20
-11.0
 30
0.0
 70
     0
 50
0.0
  0
VERTEX
  5
279
100
AcDbEntity
  8
0
100
AcDbVertex
100
AcDb2dVertex
 10
769.5
 20
-21.0
 30
0.0
 70
     0
 50
0.0
  0
VERTEX
  5
27A
100
AcDbEntity
  8
0
100
AcDbVertex
100
AcDb2dVertex
 10
629.5
 20
-21.0
 30
0.0
 70
     0
 50
0.0
  0
VERTEX
  5
27B
100
AcDbEntity
  8
0
100
AcDbVertex
100
AcDb2dVertex
 10
629.5
 20
-11.0
 30
0.0
 70
     0
 50
0.0
  0
VERTEX
  5
27C
100
AcDbEntity
  8
0
100
AcDbVertex
100
AcDb2dVertex
 10
621.5
 20
-11.0
 30
0.0
 70
     0
 50
0.0
  0
VERTEX
  5
27D
100
AcDbEntity
  8
0
100
AcDbVertex
100
AcDb2dVertex
 10
621.5
 20
20.0
 30
0.0
 70
     0
 50
0.0
  0
VERTEX
  5
27E
100
AcDbEntity
  8
0
100
AcDbVertex
100
AcDb2dVertex
 10
629.5
 20
20.0
 30
0.0
 70
     0
 50
0.0
  0
VERTEX
  5
27F
100
AcDbEntity
  8
0
100
AcDbVertex
100
AcDb2dVertex
 10
629.5
 20
78.0
 30
0.0
 70
     0
 50
0.0
  0
VERTEX
  5
280
100
AcDbEntity
  8
0
100
AcDbVertex
100
AcDb2dVertex
 10
621.5
 20
78.0
 30
0.0
 70
     0
 50
0.0
  0
VERTEX
  5
281
100
AcDbEntity
  8
0
100
AcDbVertex
100
AcDb2dVertex
 10
621.5
 20
109.0
 30
0.0
 70
     0
 50
0.0
  0
VERTEX
  5
282
100
AcDbEntity
  8
0
100
AcDbVertex
100
AcDb2dVertex
 10
629.5
 20
109.0
 30
0.0
 70
     0
 50
0.0
  0
VERTEX
  5
283
100
AcDbEntity
  8
0
100
AcDbVertex
100
AcDb2dVertex
 10
629.5
 20
119.0
 30
0.0
 70
     0
 50
0.0
  0
SEQEND
  5
284
100
AcDbEntity
  8
0
  0
POLYLINE
  5
285
100
AcDbEntity
  8
0
100
AcDb2dPolyline
 66
     1
 10
0.0
 20
0.0
 30
0.0
  0
VERTEX
  5
286
100
AcDbEntity
  8
0
100
AcDbVertex
100
AcDb2dVertex
 10
820.0
 20
71.375
 30
0.0
 70
     0
 50
0.0
  0
VERTEX
  5
287
100
AcDbEntity
  8
0
100
AcDbVertex
100
AcDb2dVertex
 10
960.0
 20
71.375
 30
0.0
 70
     0
 50
0.0
  0
VERTEX
  5
288
100
AcDbEntity
  8
0
100
AcDbVertex
100
AcDb2dVertex
 10
960.0
 20
61.375
 30
0.0
 70
     0
 50
0.0
  0
VERTEX
  5
289
100
AcDbEntity
  8
0
100
AcDbVertex
100
AcDb2dVertex
 10
968.0
 20
61.375
 30
0.0
 70
     0
 50
0.0
  0
VERTEX
  5
28A
100
AcDbEntity
  8
0
100
AcDbVertex
100
AcDb2dVertex
 10
968.0
 20
30.375
 30
0.0
 70
     0
 50
0.0
  0
VERTEX
  5
28B
100
AcDbEntity
  8
0
100
AcDbVertex
100
AcDb2dVertex
 10
960.0
 20
30.375
 30
0.0
 70
     0
 50
0.0
  0
VERTEX
  5
28C
100
AcDbEntity
  8
0
100
AcDbVertex
100
AcDb2dVertex
 10
960.0
 20
-27.625
 30
0.0
 70
     0
 50
0.0
  0
VERTEX
  5
28D
100
AcDbEntity
  8
0
100
AcDbVertex
100
AcDb2dVertex
 10
968.0
 20
-27.625
 30
0.0
 70
     0
 50
0.0
  0
VERTEX
  5
28E
100
AcDbEntity
  8
0
100
AcDbVertex
100
AcDb2dVertex
 10
968.0
 20
-58.625
 30
0.0
 70
     0
 50
0.0
  0
VERTEX
  5
28F
100
AcDbEntity
  8
0
100
AcDbVertex
100
AcDb2dVertex
 10
960.0
 20
-58.625
 30
0.0
 70
     0
 50
0.0
  0
VERTEX
  5
290
100
AcDbEntity
  8
0
100
AcDbVertex
100
AcDb2dVertex
 10
960.0
 20
-68.625
 30
0.0
 70
     0
 50
0.0
  0
VERTEX
  5
291
100
AcDbEntity
  8
0
100
AcDbVertex
100
AcDb2dVertex
 10
820.0
 20
-68.625
 30
0.0
 70
     0
 50
0.0
  0
VERTEX
  5
292
100
AcDbEntity
  8
0
100
AcDbVertex
100
AcDb2dVertex
 10
820.0
 20
-58.625
 30
0.0
 70
     0
 50
0.0
  0
VERTEX
  5
293
100
AcDbEntity
  8
0
100
AcDbVertex
100
AcDb2dVertex
 10
812.0
 20
-58.625
 30
0.0
 70
     0
 50
0.0
  0
VERTEX
  5
294
100
AcDbEntity
  8
0
100
AcDbVertex
100
AcDb2dVertex
 10
812.0
 20
-27.625
 30
0.0
 70
     0
 50
0.0
  0
VERTEX
  5
295
100
AcDbEntity
  8
0
100
AcDbVertex
100
AcDb2dVertex
 10
820.0
 20
-27.625
 30
0.0
 70
     0
 50
0.0
  0
VERTEX
  5
296
100
AcDbEntity
  8
0
100
AcDbVertex
100
AcDb2dVertex
 10
820.0
 20
30.375
 30
0.0
 70
     0
 50
0.0
  0
VERTEX
  5
297
100
AcDbEntity
  8
0
100
AcDbVertex
100
AcDb2dVertex
 10
812.0
 20
30.375
 30
0.0
 70
     0
 50
0.0
  0
VERTEX
  5
298
100
AcDbEntity
  8
0
100
AcDbVertex
100
AcDb2dVertex
 10
812.0
 20
61.375
 30
0.0
 70
     0
 50
0.0
  0
VERTEX
  5
299
100
AcDbEntity
  8
0
100
AcDbVertex
100
AcDb2dVertex
 10
820.0
 20
61.375
 30
0.0
 70
     0
 50
0.0
  0
VERTEX
  5
29A
100
AcDbEntity
  8
0
100
AcDbVertex
100
AcDb2dVertex
 10
820.0
 20
71.375
 30
0.0
 70
     0
 50
0.0
  0
SEQEND
  5
29B
100
AcDbEntity
  8
0
  0
POLYLINE
  5
29C
100
AcDbEntity
  8
0
100
AcDb2dPolyline
 66
     1
 10
0.0
 20
0.0
 30
0.0
  0
VERTEX
  5
29D
100
AcDbEntity
  8
0
100
AcDbVertex
100
AcDb2dVertex
 10
1010.5
 20
23.75
 30
0.0
 70
     0
 50
0.0
  0
VERTEX
  5
29E
100
AcDbEntity
  8
0
100
AcDbVertex
100
AcDb2dVertex
 10
1150.5
 20
23.75
 30
0.0
 70
     0
 50
0.0
  0
VERTEX
  5
29F
100
AcDbEntity
  8
0
100
AcDbVertex
100
AcDb2dVertex
 10
1150.5
 20
13.75
 30
0.0
 70
     0
 50
0.0
  0
VERTEX
  5
2A0
100
AcDbEntity
  8
0
100
AcDbVertex
100
AcDb2dVertex
 10
1158.5
 20
13.75
 30
0.0
 70
     0
 50
0.0
  0
VERTEX
  5
2A1
100
AcDbEntity
  8
0
100
AcDbVertex
100
AcDb2dVertex
 10
1158.5
 20
-17.25
 30
0.0
 70
     0
 50
0.0
  0
VERTEX
  5
2A2
100
AcDbEntity
  8
0
100
AcDbVertex
100
AcDb2dVertex
 10
1150.5
 20
-17.25
 30
0.0
 70
     0
 50
0.0
  0
VERTEX
  5
2A3
100
AcDbEntity
  8
0
100
AcDbVertex
100
AcDb2dVertex
 10
1150.5
 20
-75.25
 30
0.0
 70
     0
 50
0.0
  0
VERTEX
  5
2A4
100
AcDbEntity
  8
0
100
AcDbVertex
100
AcDb2dVertex
 10
1158.5
 20
-75.25
 30
0.0
 70
     0
 50
0.0
  0
VERTEX
  5
2A5
100
AcDbEntity
  8
0
100
AcDbVertex
100
AcDb2dVertex
 10
1158.5
 20
-106.25
 30
0.0
 70
     0
 50
0.0
  0
VERTEX
  5
2A6
100
AcDbEntity
  8
0
100
AcDbVertex
100
AcDb2dVertex
 10
1150.5
 20
-106.25
 30
0.0
 70
     0
 50
0.0
  0
VERTEX
  5
2A7
100
AcDbEntity
  8
0
100
AcDbVertex
100
AcDb2dVertex
 10
1150.5
 20
-116.25
 30
0.0
 70
     0
 50
0.0
  0
VERTEX
  5
2A8
100
AcDbEntity
  8
0
100
AcDbVertex
100
AcDb2dVertex
 10
1010.5
 20
-116.25
 30
0.0
 70
     0
 50
0.0
  0
VERTEX
  5
2A9
100
AcDbEntity
  8
0
100
AcDbVertex
100
AcDb2dVertex
 10
1010.5
 20
-106.25
 30
0.0
 70
     0
 50
0.0
  0
VERTEX
  5
2AA
100
AcDbEntity
  8
0
100
AcDbVertex
100
AcDb2dVertex
 10
1002.5
 20
-106.25
 30
0.0
 70
     0
 50
0.0
  0
VERTEX
  5
2AB
100
AcDbEntity
  8
0
100
AcDbVertex
100
AcDb2dVertex
 10
1002.5
 20
-75.25
 30
0.0
 70
     0
 50
0.0
  0
VERTEX
  5
2AC
100
AcDbEntity
  8
0
100
AcDbVertex
100
AcDb2dVertex
 10
1010.5
 20
-75.25
 30
0.0
 70
     0
 50
0.0
  0
VERTEX
  5
2AD
100
AcDbEntity
  8
0
100
AcDbVertex
100
AcDb2dVertex
 10
1010.5
 20
-17.25
 30
0.0
 70
     0
 50
0.0
  0
VERTEX
  5
2AE
100
AcDbEntity
  8
0
100
AcDbVertex
100
AcDb2dVertex
 10
1002.5
 20
-17.25
 30
0.0
 70
     0
 50
0.0
  0
VERTEX
  5
2AF
100
AcDbEntity
  8
0
100
AcDbVertex
100
AcDb2dVertex
 10
1002.5
 20
13.75
 30
0.0
 70
     0
 50
0.0
  0
VERTEX
  5
2B0
100
AcDbEntity
  8
0
100
AcDbVertex
100
AcDb2dVertex
 10
1010.5
 20
13.75
 30
0.0
 70
     0
 50
0.0
  0
VERTEX
  5
2B1
100
AcDbEntity
  8
0
100
AcDbVertex
100
AcDb2dVertex
 10
1010.5
 20
23.75
 30
0.0
 70
     0
 50
0.0
  0
SEQEND
  5
2B2
100
AcDbEntity
  8
0
  0
POLYLINE
  5
2B3
100
AcDbEntity
  8
0
100
AcDb2dPolyline
 66
     1
 10
0.0
 20
0.0
 30
0.0
  0
VERTEX
  5
2B4
100
AcDbEntity
  8
0
100
AcDbVertex
100
AcDb2dVertex
 10
1391.5
 20
23.75
 30
0.0
 70
     0
 50
0.0
  0
VERTEX
  5
2B5
100
AcDbEntity
  8
0
100
AcDbVertex
100
AcDb2dVertex
 10
1531.5
 20
23.75
 30
0.0
 70
     0
 50
0.0
  0
VERTEX
  5
2B6
100
AcDbEntity
  8
0
100
AcDbVertex
100
AcDb2dVertex
 10
1531.5
 20
13.75
 30
0.0
 70
     0
 50
0.0
  0
VERTEX
  5
2B7
100
AcDbEntity
  8
0
100
AcDbVertex
100
AcDb2dVertex
 10
1539.5
 20
13.75
 30
0.0
 70
     0
 50
0.0
  0
VERTEX
  5
2B8
100
AcDbEntity
  8
0
100
AcDbVertex
100
AcDb2dVertex
 10
1539.5
 20
-17.25
 30
0.0
 70
     0
 50
0.0
  0
VERTEX
  5
2B9
100
AcDbEntity
  8
0
100
AcDbVertex
100
AcDb2dVertex
 10
1531.5
 20
-17.25
 30
0.0
 70
     0
 50
0.0
  0
VERTEX
  5
2BA
100
AcDbEntity
  8
0
100
AcDbVertex
100
AcDb2dVertex
 10
1531.5
 20
-75.25
 30
0.0
 70
     0
 50
0.0
  0
VERTEX
  5
2BB
100
AcDbEntity
  8
0
100
AcDbVertex
100
AcDb2dVertex
 10
1539.5
 20
-75.25
 30
0.0
 70
     0
 50
0.0
  0
VERTEX
  5
2BC
100
AcDbEntity
  8
0
100
AcDbVertex
100
AcDb2dVertex
 10
1539.5
 20
-106.25
 30
0.0
 70
     0
 50
0.0
  0
VERTEX
  5
2BD
100
AcDbEntity
  8
0
100
AcDbVertex
100
AcDb2dVertex
 10
1531.5
 20
-106.25
 30
0.0
 70
     0
 50
0.0
  0
VERTEX
  5
2BE
100
AcDbEntity
  8
0
100
AcDbVertex
100
AcDb2dVertex
 10
1531.5
 20
-116.25
 30
0.0
 70
     0
 50
0.0
  0
VERTEX
  5
2BF
100
AcDbEntity
  8
0
100
AcDbVertex
100
AcDb2dVertex
 10
1391.5
 20
-116.25
 30
0.0
 70
     0
 50
0.0
  0
VERTEX
  5
2C0
100
AcDbEntity
  8
0
100
AcDbVertex
100
AcDb2dVertex
 10
1391.5
 20
-106.25
 30
0.0
 70
     0
 50
0.0
  0
VERTEX
  5
2C1
100
AcDbEntity
  8
0
100
AcDbVertex
100
AcDb2dVertex
 10
1383.5
 20
-106.25
 30
0.0
 70
     0
 50
0.0
  0
VERTEX
  5
2C2
100
AcDbEntity
  8
0
100
AcDbVertex
100
AcDb2dVertex
 10
1383.5
 20
-75.25
 30
0.0
 70
     0
 50
0.0
  0
VERTEX
  5
2C3
100
AcDbEntity
  8
0
100
AcDbVertex
100
AcDb2dVertex
 10
1391.5
 20
-75.25
 30
0.0
 70
     0
 50
0.0
  0
VERTEX
  5
2C4
100
AcDbEntity
  8
0
100
AcDbVertex
100
AcDb2dVertex
 10
1391.5
 20
-17.25
 30
0.0
 70
     0
 50
0.0
  0
VERTEX
  5
2C5
100
AcDbEntity
  8
0
100
AcDbVertex
100
AcDb2dVertex
 10
1383.5
 20
-17.25
 30
0.0
 70
     0
 50
0.0
  0
VERTEX
  5
2C6
100
AcDbEntity
  8
0
100
AcDbVertex
100
AcDb2dVertex
 10
1383.5
 20
13.75
 30
0.0
 70
     0
 50
0.0
  0
VERTEX
  5
2C7
100
AcDbEntity
  8
0
100
AcDbVertex
100
AcDb2dVertex
 10
1391.5
 20
13.75
 30
0.0
 70
     0
 50
0.0
  0
VERTEX
  5
2C8
100
AcDbEntity
  8
0
100
AcDbVertex
100
AcDb2dVertex
 10
1391.5
 20
23.75
 30
0.0
 70
     0
 50
0.0
  0
SEQEND
  5
2C9
100
AcDbEntity
  8
0
  0
POLYLINE
  5
2CA
100
AcDbEntity
  8
0
100
AcDb2dPolyline
 66
     1
 10
0.0
 20
0.0
 30
0.0
  0
VERTEX
  5
2CB
100
AcDbEntity
  8
0
100
AcDbVertex
100
AcDb2dVertex
 10
1582.0
 20
71.375
 30
0.0
 70
     0
 50
0.0
  0
VERTEX
  5
2CC
100
AcDbEntity
  8
0
100
AcDbVertex
100
AcDb2dVertex
 10
1722.0
 20
71.375
 30
0.0
 70
     0
 50
0.0
  0
VERTEX
  5
2CD
100
AcDbEntity
  8
0
100
AcDbVertex
100
AcDb2dVertex
 10
1722.0
 20
61.375
 30
0.0
 70
     0
 50
0.0
  0
VERTEX
  5
2CE
100
AcDbEntity
  8
0
100
AcDbVertex
100
AcDb2dVertex
 10
1730.0
 20
61.375
 30
0.0
 70
     0
 50
0.0
  0
VERTEX
  5
2CF
100
AcDbEntity
  8
0
100
AcDbVertex
100
AcDb2dVertex
 10
1730.0
 20
30.375
 30
0.0
 70
     0
 50
0.0
  0
VERTEX
  5
2D0
100
AcDbEntity
  8
0
100
AcDbVertex
100
AcDb2dVertex
 10
1722.0
 20
30.375
 30
0.0
 70
     0
 50
0.0
  0
VERTEX
  5
2D1
100
AcDbEntity
  8
0
100
AcDbVertex
100
AcDb2dVertex
 10
1722.0
 20
-27.625
 30
0.0
 70
     0
 50
0.0
  0
VERTEX
  5
2D2
100
AcDbEntity
  8
0
100
AcDbVertex
100
AcDb2dVertex
 10
1730.0
 20
-27.625
 30
0.0
 70
     0
 50
0.0
  0
VERTEX
  5
2D3
100
AcDbEntity
  8
0
100
AcDbVertex
100
AcDb2dVertex
 10
1730.0
 20
-58.625
 30
0.0
 70
     0
 50
0.0
  0
VERTEX
  5
2D4
100
AcDbEntity
  8
0
100
AcDbVertex
100
AcDb2dVertex
 10
1722.0
 20
-58.625
 30
0.0
 70
     0
 50
0.0
  0
VERTEX
  5
2D5
100
AcDbEntity
  8
0
100
AcDbVertex
100
AcDb2dVertex
 10
1722.0
 20
-68.625
 30
0.0
 70
     0
 50
0.0
  0
VERTEX
  5
2D6
100
AcDbEntity
  8
0
100
AcDbVertex
100
AcDb2dVertex
 10
1582.0
 20
-68.625
 30
0.0
 70
     0
 50
0.0
  0
VERTEX
  5
2D7
100
AcDbEntity
  8
0
100
AcDbVertex
100
AcDb2dVertex
 10
1582.0
 20
-58.625
 30
0.0
 70
     0
 50
0.0
  0
VERTEX
  5
2D8
100
AcDbEntity
  8
0
100
AcDbVertex
100
AcDb2dVertex
 10
1574.0
 20
-58.625
 30
0.0
 70
     0
 50
0.0
  0
VERTEX
  5
2D9
100
AcDbEntity
  8
0
100
AcDbVertex
100
AcDb2dVertex
 10
1574.0
 20
-27.625
 30
0.0
 70
     0
 50
0.0
  0
VERTEX
  5
2DA
100
AcDbEntity
  8
0
100
AcDbVertex
100
AcDb2dVertex
 10
1582.0
 20
-27.625
 30
0.0
 70
     0
 50
0.0
  0
VERTEX
  5
2DB
100
AcDbEntity
  8
0
100
AcDbVertex
100
AcDb2dVertex
 10
1582.0
 20
30.375
 30
0.0
 70
     0
 50
0.0
  0
VERTEX
  5
2DC
100
AcDbEntity
  8
0
100
AcDbVertex
100
AcDb2dVertex
 10
1574.0
 20
30.375
 30
0.0
 70
     0
 50
0.0
  0
VERTEX
  5
2DD
100
AcDbEntity
  8
0
100
AcDbVertex
100
AcDb2dVertex
 10
1574.0
 20
61.375
 30
0.0
 70
     0
 50
0.0
  0
VERTEX
  5
2DE
100
AcDbEntity
  8
0
100
AcDbVertex
100
AcDb2dVertex
 10
1582.0
 20
61.375
 30
0.0
 70
     0
 50
0.0
  0
VERTEX
  5
2DF
100
AcDbEntity
  8
0
100
AcDbVertex
100
AcDb2dVertex
 10
1582.0
 20
71.375
 30
0.0
 70
     0
 50
0.0
  0
SEQEND
  5
2E0
100
AcDbEntity
  8
0
  0
POLYLINE
  5
2E1
100
AcDbEntity
  8
0
100
AcDb2dPolyline
 66
     1
 10
0.0
 20
0.0
 30
0.0
  0
VERTEX
  5
2E2
100
AcDbEntity
  8
0
100
AcDbVertex
100
AcDb2dVertex
 10
1772.5
 20
119.0
 30
0.0
 70
     0
 50
0.0
  0
VERTEX
  5
2E3
100
AcDbEntity
  8
0
100
AcDbVertex
100
AcDb2dVertex
 10
1912.5
 20
119.0
 30
0.0
 70
     0
 50
0.0
  0
VERTEX
  5
2E4
100
AcDbEntity
  8
0
100
AcDbVertex
100
AcDb2dVertex
 10
1912.5
 20
109.0
 30
0.0
 70
     0
 50
0.0
  0
VERTEX
  5
2E5
100
AcDbEntity
  8
0
100
AcDbVertex
100
AcDb2dVertex
 10
1920.5
 20
109.0
 30
0.0
 70
     0
 50
0.0
  0
VERTEX
  5
2E6
100
AcDbEntity
  8
0
100
AcDbVertex
100
AcDb2dVertex
 10
1920.5
 20
78.0
 30
0.0
 70
     0
 50
0.0
  0
VERTEX
  5
2E7
100
AcDbEntity
  8
0
100
AcDbVertex
100
AcDb2dVertex
 10
1912.5
 20
78.0
 30
0.0
 70
     0
 50
0.0
  0
VERTEX
  5
2E8
100
AcDbEntity
  8
0
100
AcDbVertex
100
AcDb2dVertex
 10
1912.5
 20
20.0
 30
0.0
 70
     0
 50
0.0
  0
VERTEX
  5
2E9
100
AcDbEntity
  8
0
100
AcDbVertex
100
AcDb2dVertex
 10
1920.5
 20
20.0
 30
0.0
 70
     0
 50
0.0
  0
VERTEX
  5
2EA
100
AcDbEntity
  8
0
100
AcDbVertex
100
AcDb2dVertex
 10
1920.5
 20
-11.0
 30
0.0
 70
     0
 50
0.0
  0
VERTEX
  5
2EB
100
AcDbEntity
  8
0
100
AcDbVertex
100
AcDb2dVertex
 10
1912.5
 20
-11.0
 30
0.0
 70
     0
 50
0.0
  0
VERTEX
  5
2EC
100
AcDbEntity
  8
0
100
AcDbVertex
100
AcDb2dVertex
 10
1912.5
 20
-21.0
 30
0.0
 70
     0
 50
0.0
  0
VERTEX
  5
2ED
100
AcDbEntity
  8
0
100
AcDbVertex
100
AcDb2dVertex
 10
1772.5
 20
-21.0
 30
0.0
 70
     0
 50
0.0
  0
VERTEX
  5
2EE
100
AcDbEntity
  8
0
100
AcDbVertex
100
AcDb2dVertex
 10
1772.5
 20
-11.0
 30
0.0
 70
     0
 50
0.0
  0
VERTEX
  5
2EF
100
AcDbEntity
  8
0
100
AcDbVertex
100
AcDb2dVertex
 10
1764.5
 20
-11.0
 30
0.0
 70
     0
 50
0.0
  0
VERTEX
  5
2F0
100
AcDbEntity
  8
0
100
AcDbVertex
100
AcDb2dVertex
 10
1764.5
 20
20.0
 30
0.0
 70
     0
 50
0.0
  0
VERTEX
  5
2F1
100
AcDbEntity
  8
0
100
AcDbVertex
100
AcDb2dVertex
 10
1772.5
 20
20.0
 30
0.0
 70
     0
 50
0.0
  0
VERTEX
  5
2F2
100
AcDbEntity
  8
0
100
AcDbVertex
100
AcDb2dVertex
 10
1772.5
 20
78.0
 30
0.0
 70
     0
 50
0.0
  0
VERTEX
  5
2F3
100
AcDbEntity
  8
0
100
AcDbVertex
100
AcDb2dVertex
 10
1764.5
 20
78.0
 30
0.0
 70
     0
 50
0.0
  0
VERTEX
  5
2F4
100
AcDbEntity
  8
0
100
AcDbVertex
100
AcDb2dVertex
 10
1764.5
 20
109.0
 30
0.0
 70
     0
 50
0.0
  0
VERTEX
  5
2F5
100
AcDbEntity
  8
0
100
AcDbVertex
100
AcDb2dVertex
 10
1772.5
 20
109.0
 30
0.0
 70
     0
 50
0.0
  0
VERTEX
  5
2F6
100
AcDbEntity
  8
0
100
AcDbVertex
100
AcDb2dVertex
 10
1772.5
 20
119.0
 30
0.0
 70
     0
 50
0.0
  0
SEQEND
  5
2F7
100
AcDbEntity
  8
0
  0
POLYLINE
  5
2F8
100
AcDbEntity
  8
0
100
AcDb2dPolyline
 66
     1
 10
0.0
 20
0.0
 30
0.0
  0
VERTEX
  5
2F9
100
AcDbEntity
  8
0
100
AcDbVertex
100
AcDb2dVertex
 10
1963.0
 20
71.375
 30
0.0
 70
     0
 50
0.0
  0
VERTEX
  5
2FA
100
AcDbEntity
  8
0
100
AcDbVertex
100
AcDb2dVertex
 10
2103.0
 20
71.375
 30
0.0
 70
     0
 50
0.0
  0
VERTEX
  5
2FB
100
AcDbEntity
  8
0
100
AcDbVertex
100
AcDb2dVertex
 10
2103.0
 20
61.375
 30
0.0
 70
     0
 50
0.0
  0
VERTEX
  5
2FC
100
AcDbEntity
  8
0
100
AcDbVertex
100
AcDb2dVertex
 10
2111.0
 20
61.375
 30
0.0
 70
     0
 50
0.0
  0
VERTEX
  5
2FD
100
AcDbEntity
  8
0
100
AcDbVertex
100
AcDb2dVertex
 10
2111.0
 20
30.375
 30
0.0
 70
     0
 50
0.0
  0
VERTEX
  5
2FE
100
AcDbEntity
  8
0
100
AcDbVertex
100
AcDb2dVertex
 10
2103.0
 20
30.375
 30
0.0
 70
     0
 50
0.0
  0
VERTEX
  5
2FF
100
AcDbEntity
  8
0
100
AcDbVertex
100
AcDb2dVertex
 10
2103.0
 20
-27.625
 30
0.0
 70
     0
 50
0.0
  0
VERTEX
  5
300
100
AcDbEntity
  8
0
100
AcDbVertex
100
AcDb2dVertex
 10
2111.0
 20
-27.625
 30
0.0
 70
     0
 50
0.0
  0
VERTEX
  5
301
100
AcDbEntity
  8
0
100
AcDbVertex
100
AcDb2dVertex
 10
2111.0
 20
-58.625
 30
0.0
 70
     0
 50
0.0
  0
VERTEX
  5
302
100
AcDbEntity
  8
0
100
AcDbVertex
100
AcDb2dVertex
 10
2103.0
 20
-58.625
 30
0.0
 70
     0
 50
0.0
  0
VERTEX
  5
303
100
AcDbEntity
  8
0
100
AcDbVertex
100
AcDb2dVertex
 10
2103.0
 20
-68.625
 30
0.0
 70
     0
 50
0.0
  0
VERTEX
  5
304
100
AcDbEntity
  8
0
100
AcDbVertex
100
AcDb2dVertex
 10
1963.0
 20
-68.625
 30
0.0
 70
     0
 50
0.0
  0
VERTEX
  5
305
100
AcDbEntity
  8
0
100
AcDbVertex
100
AcDb2dVertex
 10
1963.0
 20
-58.625
 30
0.0
 70
     0
 50
0.0
  0
VERTEX
  5
306
100
AcDbEntity
  8
0
100
AcDbVertex
100
AcDb2dVertex
 10
1955.0
 20
-58.625
 30
0.0
 70
     0
 50
0.0
  0
VERTEX
  5
307
100
AcDbEntity
  8
0
100
AcDbVertex
100
AcDb2dVertex
 10
1955.0
 20
-27.625
 30
0.0
 70
     0
 50
0.0
  0
VERTEX
  5
308
100
AcDbEntity
  8
0
100
AcDbVertex
100
AcDb2dVertex
 10
1963.0
 20
-27.625
 30
0.0
 70
     0
 50
0.0
  0
VERTEX
  5
309
100
AcDbEntity
  8
0
100
AcDbVertex
100
AcDb2dVertex
 10
1963.0
 20
30.375
 30
0.0
 70
     0
 50
0.0
  0
VERTEX
  5
30A
100
AcDbEntity
  8
0
100
AcDbVertex
100
AcDb2dVertex
 10
1955.0
 20
30.375
 30
0.0
 70
     0
 50
0.0
  0
VERTEX
  5
30B
100
AcDbEntity
  8
0
100
AcDbVertex
100
AcDb2dVertex
 10
1955.0
 20
61.375
 30
0.0
 70
     0
 50
0.0
  0
VERTEX
  5
30C
100
AcDbEntity
  8
0
100
AcDbVertex
100
AcDb2dVertex
 10
1963.0
 20
61.375
 30
0.0
 70
     0
 50
0.0
  0
VERTEX
  5
30D
100
AcDbEntity
  8
0
100
AcDbVertex
100
AcDb2dVertex
 10
1963.0
 20
71.375
 30
0.0
 70
     0
 50
0.0
  0
SEQEND
  5
30E
100
AcDbEntity
  8
0
  0
POLYLINE
  5
30F
100
AcDbEntity
  8
0
100
AcDb2dPolyline
 66
     1
 10
0.0
 20
0.0
 30
0.0
  0
VERTEX
  5
310
100
AcDbEntity
  8
0
100
AcDbVertex
100
AcDb2dVertex
 10
2153.5
 20
23.75
 30
0.0
 70
     0
 50
0.0
  0
VERTEX
  5
311
100
AcDbEntity
  8
0
100
AcDbVertex
100
AcDb2dVertex
 10
2293.5
 20
23.75
 30
0.0
 70
     0
 50
0.0
  0
VERTEX
  5
312
100
AcDbEntity
  8
0
100
AcDbVertex
100
AcDb2dVertex
 10
2293.5
 20
13.75
 30
0.0
 70
     0
 50
0.0
  0
VERTEX
  5
313
100
AcDbEntity
  8
0
100
AcDbVertex
100
AcDb2dVertex
 10
2301.5
 20
13.75
 30
0.0
 70
     0
 50
0.0
  0
VERTEX
  5
314
100
AcDbEntity
  8
0
100
AcDbVertex
100
AcDb2dVertex
 10
2301.5
 20
-17.25
 30
0.0
 70
     0
 50
0.0
  0
VERTEX
  5
315
100
AcDbEntity
  8
0
100
AcDbVertex
100
AcDb2dVertex
 10
2293.5
 20
-17.25
 30
0.0
 70
     0
 50
0.0
  0
VERTEX
  5
316
100
AcDbEntity
  8
0
100
AcDbVertex
100
AcDb2dVertex
 10
2293.5
 20
-75.25
 30
0.0
 70
     0
 50
0.0
  0
VERTEX
  5
317
100
AcDbEntity
  8
0
100
AcDbVertex
100
AcDb2dVertex
 10
2301.5
 20
-75.25
 30
0.0
 70
     0
 50
0.0
  0
VERTEX
  5
318
100
AcDbEntity
  8
0
100
AcDbVertex
100
AcDb2dVertex
 10
2301.5
 20
-106.25
 30
0.0
 70
     0
 50
0.0
  0
VERTEX
  5
319
100
AcDbEntity
  8
0
100
AcDbVertex
100
AcDb2dVertex
 10
2293.5
 20
-106.25
 30
0.0
 70
     0
 50
0.0
  0
VERTEX
  5
31A
100
AcDbEntity
  8
0
100
AcDbVertex
100
AcDb2dVertex
 10
2293.5
 20
-116.25
 30
0.0
 70
     0
 50
0.0
  0
VERTEX
  5
31B
100
AcDbEntity
  8
0
100
AcDbVertex
100
AcDb2dVertex
 10
2153.5
 20
-116.25
 30
0.0
 70
     0
 50
0.0
  0
VERTEX
  5
31C
100
AcDbEntity
  8
0
100
AcDbVertex
100
AcDb2dVertex
 10
2153.5
 20
-106.25
 30
0.0
 70
     0
 50
0.0
  0
VERTEX
  5
31D
100
AcDbEntity
  8
0
100
AcDbVertex
100
AcDb2dVertex
 10
2145.5
 20
-106.25
 30
0.0
 70
     0
 50
0.0
  0
VERTEX
  5
31E
100
AcDbEntity
  8
0
100
AcDbVertex
100
AcDb2dVertex
 10
2145.5
 20
-75.25
 30
0.0
 70
     0
 50
0.0
  0
VERTEX
  5
31F
100
AcDbEntity
  8
0
100
AcDbVertex
100
AcDb2dVertex
 10
2153.5
 20
-75.25
 30
0.0
 70
     0
 50
0.0
  0
VERTEX
  5
320
100
AcDbEntity
  8
0
100
AcDbVertex
100
AcDb2dVertex
 10
2153.5
 20
-17.25
 30
0.0
 70
     0
 50
0.0
  0
VERTEX
  5
321
100
AcDbEntity
  8
0
100
AcDbVertex
100
AcDb2dVertex
 10
2145.5
 20
-17.25
 30
0.0
 70
     0
 50
0.0
  0
VERTEX
  5
322
100
AcDbEntity
  8
0
100
AcDbVertex
100
AcDb2dVertex
 10
2145.5
 20
13.75
 30
0.0
 70
     0
 50
0.0
  0
VERTEX
  5
323
100
AcDbEntity
  8
0
100
AcDbVertex
100
AcDb2dVertex
 10
2153.5
 20
13.75
 30
0.0
 70
     0
 50
0.0
  0
VERTEX
  5
324
100
AcDbEntity
  8
0
100
AcDbVertex
100
AcDb2dVertex
 10
2153.5
 20
23.75
 30
0.0
 70
     0
 50
0.0
  0
SEQEND
  5
325
100
AcDbEntity
  8
0
  0
POLYLINE
  5
326
100
AcDbEntity
  8
0
100
AcDb2dPolyline
 66
     1
 10
0.0
 20
0.0
 30
0.0
  0
VERTEX
  5
327
100
AcDbEntity
  8
0
100
AcDbVertex
100
AcDb2dVertex
 10
2344.0
 20
23.75
 30
0.0
 70
     0
 50
0.0
  0
VERTEX
  5
328
100
AcDbEntity
  8
0
100
AcDbVertex
100
AcDb2dVertex
 10
2484.0
 20
23.75
 30
0.0
 70
     0
 50
0.0
  0
VERTEX
  5
329
100
AcDbEntity
  8
0
100
AcDbVertex
100
AcDb2dVertex
 10
2484.0
 20
13.75
 30
0.0
 70
     0
 50
0.0
  0
VERTEX
  5
32A
100
AcDbEntity
  8
0
100
AcDbVertex
100
AcDb2dVertex
 10
2492.0
 20
13.75
 30
0.0
 70
     0
 50
0.0
  0
VERTEX
  5
32B
100
AcDbEntity
  8
0
100
AcDbVertex
100
AcDb2dVertex
 10
2492.0
 20
-17.25
 30
0.0
 70
     0
 50
0.0
  0
VERTEX
  5
32C
100
AcDbEntity
  8
0
100
AcDbVertex
100
AcDb2dVertex
 10
2484.0
 20
-17.25
 30
0.0
 70
     0
 50
0.0
  0
VERTEX
  5
32D
100
AcDbEntity
  8
0
100
AcDbVertex
100
AcDb2dVertex
 10
2484.0
 20
-75.25
 30
0.0
 70
     0
 50
0.0
  0
VERTEX
  5
32E
100
AcDbEntity
  8
0
100
AcDbVertex
100
AcDb2dVertex
 10
2492.0
 20
-75.25
 30
0.0
 70
     0
 50
0.0
  0
VERTEX
  5
32F
100
AcDbEntity
  8
0
100
AcDbVertex
100
AcDb2dVertex
 10
2492.0
 20
-106.25
 30
0.0
 70
     0
 50
0.0
  0
VERTEX
  5
330
100
AcDbEntity
  8
0
100
AcDbVertex
100
AcDb2dVertex
 10
2484.0
 20
-106.25
 30
0.0
 70
     0
 50
0.0
  0
VERTEX
  5
331
100
AcDbEntity
  8
0
100
AcDbVertex
100
AcDb2dVertex
 10
2484.0
 20
-116.25
 30
0.0
 70
     0
 50
0.0
  0
VERTEX
  5
332
100
AcDbEntity
  8
0
100
AcDbVertex
100
AcDb2dVertex
 10
2344.0
 20
-116.25
 30
0.0
 70
     0
 50
0.0
  0
VERTEX
  5
333
100
AcDbEntity
  8
0
100
AcDbVertex
100
AcDb2dVertex
 10
2344.0
 20
-106.25
 30
0.0
 70
     0
 50
0.0
  0
VERTEX
  5
334
100
AcDbEntity
  8
0
100
AcDbVertex
100
AcDb2dVertex
 10
2336.0
 20
-106.25
 30
0.0
 70
     0
 50
0.0
  0
VERTEX
  5
335
100
AcDbEntity
  8
0
100
AcDbVertex
100
AcDb2dVertex
 10
2336.0
 20
-75.25
 30
0.0
 70
     0
 50
0.0
  0
VERTEX
  5
336
100
AcDbEntity
  8
0
100
AcDbVertex
100
AcDb2dVertex
 10
2344.0
 20
-75.25
 30
0.0
 70
     0
 50
0.0
  0
VERTEX
  5
337
100
AcDbEntity
  8
0
100
AcDbVertex
100
AcDb2dVertex
 10
2344.0
 20
-17.25
 30
0.0
 70
     0
 50
0.0
  0
VERTEX
  5
338
100
AcDbEntity
  8
0
100
AcDbVertex
100
AcDb2dVertex
 10
2336.0
 20
-17.25
 30
0.0
 70
     0
 50
0.0
  0
VERTEX
  5
339
100
AcDbEntity
  8
0
100
AcDbVertex
100
AcDb2dVertex
 10
2336.0
 20
13.75
 30
0.0
 70
     0
 50
0.0
  0
VERTEX
  5
33A
100
AcDbEntity
  8
0
100
AcDbVertex
100
AcDb2dVertex
 10
2344.0
 20
13.75
 30
0.0
 70
     0
 50
0.0
  0
VERTEX
  5
33B
100
AcDbEntity
  8
0
100
AcDbVertex
100
AcDb2dVertex
 10
2344.0
 20
23.75
 30
0.0
 70
     0
 50
0.0
  0
SEQEND
  5
33C
100
AcDbEntity
  8
0
  0
POLYLINE
  5
33D
100
AcDbEntity
  8
0
100
AcDb2dPolyline
 66
     1
 10
0.0
 20
0.0
 30
0.0
  0
VERTEX
  5
33E
100
AcDbEntity
  8
0
100
AcDbVertex
100
AcDb2dVertex
 10
58.0
 20
-166.75
 30
0.0
 70
     0
 50
0.0
  0
VERTEX
  5
33F
100
AcDbEntity
  8
0
100
AcDbVertex
100
AcDb2dVertex
 10
198.0
 20
-166.75
 30
0.0
 70
     0
 50
0.0
  0
VERTEX
  5
340
100
AcDbEntity
  8
0
100
AcDbVertex
100
AcDb2dVertex
 10
198.0
 20
-176.75
 30
0.0
 70
     0
 50
0.0
  0
VERTEX
  5
341
100
AcDbEntity
  8
0
100
AcDbVertex
100
AcDb2dVertex
 10
206.0
 20
-176.75
 30
0.0
 70
     0
 50
0.0
  0
VERTEX
  5
342
100
AcDbEntity
  8
0
100
AcDbVertex
100
AcDb2dVertex
 10
206.0
 20
-207.75
 30
0.0
 70
     0
 50
0.0
  0
VERTEX
  5
343
100
AcDbEntity
  8
0
100
AcDbVertex
100
AcDb2dVertex
 10
198.0
 20
-207.75
 30
0.0
 70
     0
 50
0.0
  0
VERTEX
  5
344
100
AcDbEntity
  8
0
100
AcDbVertex
100
AcDb2dVertex
 10
198.0
 20
-265.75
 30
0.0
 70
     0
 50
0.0
  0
VERTEX
  5
345
100
AcDbEntity
  8
0
100
AcDbVertex
100
AcDb2dVertex
 10
206.0
 20
-265.75
 30
0.0
 70
     0
 50
0.0
  0
VERTEX
  5
346
100
AcDbEntity
  8
0
100
AcDbVertex
100
AcDb2dVertex
 10
206.0
 20
-296.75
 30
0.0
 70
     0
 50
0.0
  0
VERTEX
  5
347
100
AcDbEntity
  8
0
100
AcDbVertex
100
AcDb2dVertex
 10
198.0
 20
-296.75
 30
0.0
 70
     0
 50
0.0
  0
VERTEX
  5
348
100
AcDbEntity
  8
0
100
AcDbVertex
100
AcDb2dVertex
 10
198.0
 20
-306.75
 30
0.0
 70
     0
 50
0.0
  0
VERTEX
  5
349
100
AcDbEntity
  8
0
100
AcDbVertex
100
AcDb2dVertex
 10
58.0
 20
-306.75
 30
0.0
 70
     0
 50
0.0
  0
VERTEX
  5
34A
100
AcDbEntity
  8
0
100
AcDbVertex
100
AcDb2dVertex
 10
58.0
 20
-296.75
 30
0.0
 70
     0
 50
0.0
  0
VERTEX
  5
34B
100
AcDbEntity
  8
0
100
AcDbVertex
100
AcDb2dVertex
 10
50.0
 20
-296.75
 30
0.0
 70
     0
 50
0.0
  0
VERTEX
  5
34C
100
AcDbEntity
  8
0
100
AcDbVertex
100
AcDb2dVertex
 10
50.0
 20
-265.75
 30
0.0
 70
     0
 50
0.0
  0
VERTEX
  5
34D
100
AcDbEntity
  8
0
100
AcDbVertex
100
AcDb2dVertex
 10
58.0
 20
-265.75
 30
0.0
 70
     0
 50
0.0
  0
VERTEX
  5
34E
100
AcDbEntity
  8
0
100
AcDbVertex
100
AcDb2dVertex
 10
58.0
 20
-207.75
 30
0.0
 70
     0
 50
0.0
  0
VERTEX
  5
34F
100
AcDbEntity
  8
0
100
AcDbVertex
100
AcDb2dVertex
 10
50.0
 20
-207.75
 30
0.0
 70
     0
 50
0.0
  0
VERTEX
  5
350
100
AcDbEntity
  8
0
100
AcDbVertex
100
AcDb2dVertex
 10
50.0
 20
-176.75
 30
0.0
 70
     0
 50
0.0
  0
VERTEX
  5
351
100
AcDbEntity
  8
0
100
AcDbVertex
100
AcDb2dVertex
 10
58.0
 20
-176.75
 30
0.0
 70
     0
 50
0.0
  0
VERTEX
  5
352
100
AcDbEntity
  8
0
100
AcDbVertex
100
AcDb2dVertex
 10
58.0
 20
-166.75
 30
0.0
 70
     0
 50
0.0
  0
SEQEND
  5
353
100
AcDbEntity
  8
0
  0
POLYLINE
  5
354
100
AcDbEntity
  8
0
100
AcDb2dPolyline
 66
     1
 10
0.0
 20
0.0
 30
0.0
  0
VERTEX
  5
355
100
AcDbEntity
  8
0
100
AcDbVertex
100
AcDb2dVertex
 10
248.5
 20
-166.75
 30
0.0
 70
     0
 50
0.0
  0
VERTEX
  5
356
100
AcDbEntity
  8
0
100
AcDbVertex
100
AcDb2dVertex
 10
388.5
 20
-166.75
 30
0.0
 70
     0
 50
0.0
  0
VERTEX
  5
357
100
AcDbEntity
  8
0
100
AcDbVertex
100
AcDb2dVertex
 10
388.5
 20
-176.75
 30
0.0
 70
     0
 50
0.0
  0
VERTEX
  5
358
100
AcDbEntity
  8
0
100
AcDbVertex
100
AcDb2dVertex
 10
396.5
 20
-176.75
 30
0.0
 70
     0
 50
0.0
  0
VERTEX
  5
359
100
AcDbEntity
  8
0
100
AcDbVertex
100
AcDb2dVertex
 10
396.5
 20
-207.75
 30
0.0
 70
     0
 50
0.0
  0
VERTEX
  5
35A
100
AcDbEntity
  8
0
100
AcDbVertex
100
AcDb2dVertex
 10
388.5
 20
-207.75
 30
0.0
 70
     0
 50
0.0
  0
VERTEX
  5
35B
100
AcDbEntity
  8
0
100
AcDbVertex
100
AcDb2dVertex
 10
388.5
 20
-265.75
 30
0.0
 70
     0
 50
0.0
  0
VERTEX
  5
35C
100
AcDbEntity
  8
0
100
AcDbVertex
100
AcDb2dVertex
 10
396.5
 20
-265.75
 30
0.0
 70
     0
 50
0.0
  0
VERTEX
  5
35D
100
AcDbEntity
  8
0
100
AcDbVertex
100
AcDb2dVertex
 10
396.5
 20
-296.75
 30
0.0
 70
     0
 50
0.0
  0
VERTEX
  5
35E
100
AcDbEntity
  8
0
100
AcDbVertex
100
AcDb2dVertex
 10
388.5
 20
-296.75
 30
0.0
 70
     0
 50
0.0
  0
VERTEX
  5
35F
100
AcDbEntity
  8
0
100
AcDbVertex
100
AcDb2dVertex
 10
388.5
 20
-306.75
 30
0.0
 70
     0
 50
0.0
  0
VERTEX
  5
360
100
AcDbEntity
  8
0
100
AcDbVertex
100
AcDb2dVertex
 10
248.5
 20
-306.75
 30
0.0
 70
     0
 50
0.0
  0
VERTEX
  5
361
100
AcDbEntity
  8
0
100
AcDbVertex
100
AcDb2dVertex
 10
248.5
 20
-296.75
 30
0.0
 70
     0
 50
0.0
  0
VERTEX
  5
362
100
AcDbEntity
  8
0
100
AcDbVertex
100
AcDb2dVertex
 10
240.5
 20
-296.75
 30
0.0
 70
     0
 50
0.0
  0
VERTEX
  5
363
100
AcDbEntity
  8
0
100
AcDbVertex
100
AcDb2dVertex
 10
240.5
 20
-265.75
 30
0.0
 70
     0
 50
0.0
  0
VERTEX
  5
364
100
AcDbEntity
  8
0
100
AcDbVertex
100
AcDb2dVertex
 10
248.5
 20
-265.75
 30
0.0
 70
     0
 50
0.0
  0
VERTEX
  5
365
100
AcDbEntity
  8
0
100
AcDbVertex
100
AcDb2dVertex
 10
248.5
 20
-207.75
 30
0.0
 70
     0
 50
0.0
  0
VERTEX
  5
366
100
AcDbEntity
  8
0
100
AcDbVertex
100
AcDb2dVertex
 10
240.5
 20
-207.75
 30
0.0
 70
     0
 50
0.0
  0
VERTEX
  5
367
100
AcDbEntity
  8
0
100
AcDbVertex
100
AcDb2dVertex
 10
240.5
 20
-176.75
 30
0.0
 70
     0
 50
0.0
  0
VERTEX
  5
368
100
AcDbEntity
  8
0
100
AcDbVertex
100
AcDb2dVertex
 10
248.5
 20
-176.75
 30
0.0
 70
     0
 50
0.0
  0
VERTEX
  5
369
100
AcDbEntity
  8
0
100
AcDbVertex
100
AcDb2dVertex
 10
248.5
 20
-166.75
 30
0.0
 70
     0
 50
0.0
  0
SEQEND
  5
36A
100
AcDbEntity
  8
0
  0
POLYLINE
  5
36B
100
AcDbEntity
  8
0
100
AcDb2dPolyline
 66
     1
 10
0.0
 20
0.0
 30
0.0
  0
VERTEX
  5
36C
100
AcDbEntity
  8
0
100
AcDbVertex
100
AcDb2dVertex
 10
1201.0
 20
-166.75
 30
0.0
 70
     0
 50
0.0
  0
VERTEX
  5
36D
100
AcDbEntity
  8
0
100
AcDbVertex
100
AcDb2dVertex
 10
1341.0
 20
-166.75
 30
0.0
 70
     0
 50
0.0
  0
VERTEX
  5
36E
100
AcDbEntity
  8
0
100
AcDbVertex
100
AcDb2dVertex
 10
1341.0
 20
-176.75
 30
0.0
 70
     0
 50
0.0
  0
VERTEX
  5
36F
100
AcDbEntity
  8
0
100
AcDbVertex
100
AcDb2dVertex
 10
1349.0
 20
-176.75
 30
0.0
 70
     0
 50
0.0
  0
VERTEX
  5
370
100
AcDbEntity
  8
0
100
AcDbVertex
100
AcDb2dVertex
 10
1349.0
 20
-207.75
 30
0.0
 70
     0
 50
0.0
  0
VERTEX
  5
371
100
AcDbEntity
  8
0
100
AcDbVertex
100
AcDb2dVertex
 10
1341.0
 20
-207.75
 30
0.0
 70
     0
 50
0.0
  0
VERTEX
  5
372
100
AcDbEntity
  8
0
100
AcDbVertex
100
AcDb2dVertex
 10
1341.0
 20
-212.75
 30
0.0
 70
     0
 50
0.0
  0
VERTEX
  5
373
100
AcDbEntity
  8
0
100
AcDbVertex
100
AcDb2dVertex
 10
1737.7
 20
-212.75
 30
0.0
 70
     0
 50
0.0
  0
VERTEX
  5
374
100
AcDbEntity
  8
0
100
AcDbVertex
100
AcDb2dVertex
 10
1737.7
 20
-181.45
 30
0.0
 70
     0
 50
0.0
  0
VERTEX
  5
375
100
AcDbEntity
  8
0
100
AcDbVertex
100
AcDb2dVertex
 10
1754.9
 20
-181.45
 30
0.0
 70
     0
 50
0.0
  0
VERTEX
  5
376
100
AcDbEntity
  8
0
100
AcDbVertex
100
AcDb2dVertex
 10
1754.9
 20
-172.25
 30
0.0
 70
     0
 50
0.0
  0
VERTEX
  5
377
100
AcDbEntity
  8
0
100
AcDbVertex
100
AcDb2dVertex
 10
1787.9
 20
-172.25
 30
0.0
 70
     0
 50
0.0
  0
VERTEX
  5
378
100
AcDbEntity
  8
0
100
AcDbVertex
100
AcDb2dVertex
 10
1787.9
 20
-181.45
 30
0.0
 70
     0
 50
0.0
  0
VERTEX
  5
379
100
AcDbEntity
  8
0
100
AcDbVertex
100
AcDb2dVertex
 10
1805.1
 20
-181.45
 30
0.0
 70
     0
 50
0.0
  0
VERTEX
  5
37A
100
AcDbEntity
  8
0
100
AcDbVertex
100
AcDb2dVertex
 10
1805.1
 20
-212.75
 30
0.0
 70
     0
 50
0.0
  0
VERTEX
  5
37B
100
AcDbEntity
  8
0
100
AcDbVertex
100
AcDb2dVertex
 10
1813.4
 20
-212.75
 30
0.0
 70
     0
 50
0.0
  0
VERTEX
  5
37C
100
AcDbEntity
  8
0
100
AcDbVertex
100
AcDb2dVertex
 10
1813.4
 20
-240.75
 30
0.0
 70
     0
 50
0.0
  0
VERTEX
  5
37D
100
AcDbEntity
  8
0
100
AcDbVertex
100
AcDb2dVertex
 10
1805.1
 20
-240.75
 30
0.0
 70
     0
 50
0.0
  0
VERTEX
  5
37E
100
AcDbEntity
  8
0
100
AcDbVertex
100
AcDb2dVertex
 10
1805.1
 20
-303.45
 30
0.0
 70
     0
 50
0.0
  0
VERTEX
  5
37F
100
AcDbEntity
  8
0
100
AcDbVertex
100
AcDb2dVertex
 10
1787.9
 20
-303.45
 30
0.0
 70
     0
 50
0.0
  0
VERTEX
  5
380
100
AcDbEntity
  8
0
100
AcDbVertex
100
AcDb2dVertex
 10
1787.9
 20
-313.25
 30
0.0
 70
     0
 50
0.0
  0
VERTEX
  5
381
100
AcDbEntity
  8
0
100
AcDbVertex
100
AcDb2dVertex
 10
1754.9
 20
-313.25
 30
0.0
 70
     0
 50
0.0
  0
VERTEX
  5
382
100
AcDbEntity
  8
0
100
AcDbVertex
100
AcDb2dVertex
 10
1754.9
 20
-303.45
 30
0.0
 70
     0
 50
0.0
  0
VERTEX
  5
383
100
AcDbEntity
  8
0
100
AcDbVertex
100
AcDb2dVertex
 10
1737.7
 20
-303.45
 30
0.0
 70
     0
 50
0.0
  0
VERTEX
  5
384
100
AcDbEntity
  8
0
100
AcDbVertex
100
AcDb2dVertex
 10
1737.7
 20
-258.75
 30
0.0
 70
     0
 50
0.0
  0
VERTEX
  5
385
100
AcDbEntity
  8
0
100
AcDbVertex
100
AcDb2dVertex
 10
1341.0
 20
-258.75
 30
0.0
 70
     0
 50
0.0
  0
VERTEX
  5
386
100
AcDbEntity
  8
0
100
AcDbVertex
100
AcDb2dVertex
 10
1341.0
 20
-264.75
 30
0.0
 70
     0
 50
0.0
  0
VERTEX
  5
387
100
AcDbEntity
  8
0
100
AcDbVertex
100
AcDb2dVertex
 10
1349.0
 20
-264.75
 30
0.0
 70
     0
 50
0.0
  0
VERTEX
  5
388
100
AcDbEntity
  8
0
100
AcDbVertex
100
AcDb2dVertex
 10
1349.0
 20
-295.75
 30
0.0
 70
     0
 50
0.0
  0
VERTEX
  5
389
100
AcDbEntity
  8
0
100
AcDbVertex
100
AcDb2dVertex
 10
1341.0
 20
-295.75
 30
0.0
 70
     0
 50
0.0
  0
VERTEX
  5
38A
100
AcDbEntity
  8
0
100
AcDbVertex
100
AcDb2dVertex
 10
1341.0
 20
-305.75
 30
0.0
 70
     0
 50
0.0
  0
VERTEX
  5
38B
100
AcDbEntity
  8
0
100
AcDbVertex
100
AcDb2dVertex
 10
1201.0
 20
-305.75
 30
0.0
 70
     0
 50
0.0
  0
VERTEX
  5
38C
100
AcDbEntity
  8
0
100
AcDbVertex
100
AcDb2dVertex
 10
1201.0
 20
-295.75
 30
0.0
 70
     0
 50
0.0
  0
VERTEX
  5
38D
100
AcDbEntity
  8
0
100
AcDbVertex
100
AcDb2dVertex
 10
1193.0
 20
-295.75
 30
0.0
 70
     0
 50
0.0
  0
VERTEX
  5
38E
100
AcDbEntity
  8
0
100
AcDbVertex
100
AcDb2dVertex
 10
1193.0
 20
-264.75
 30
0.0
 70
     0
 50
0.0
  0
VERTEX
  5
38F
100
AcDbEntity
  8
0
100
AcDbVertex
100
AcDb2dVertex
 10
1201.0
 20
-264.75
 30
0.0
 70
     0
 50
0.0
  0
VERTEX
  5
390
100
AcDbEntity
  8
0
100
AcDbVertex
100
AcDb2dVertex
 10
1201.0
 20
-258.75
 30
0.0
 70
     0
 50
0.0
  0
VERTEX
  5
391
100
AcDbEntity
  8
0
100
AcDbVertex
100
AcDb2dVertex
 10
804.3
 20
-258.75
 30
0.0
 70
     0
 50
0.0
  0
VERTEX
  5
392
100
AcDbEntity
  8
0
100
AcDbVertex
100
AcDb2dVertex
 10
804.3
 20
-303.45
 30
0.0
 70
     0
 50
0.0
  0
VERTEX
  5
393
100
AcDbEntity
  8
0
100
AcDbVertex
100
AcDb2dVertex
 10
787.1
 20
-303.45
 30
0.0
 70
     0
 50
0.0
  0
VERTEX
  5
394
100
AcDbEntity
  8
0
100
AcDbVertex
100
AcDb2dVertex
 10
787.1
 20
-313.25
 30
0.0
 70
     0
 50
0.0
  0
VERTEX
  5
395
100
AcDbEntity
  8
0
100
AcDbVertex
100
AcDb2dVertex
 10
754.1
 20
-313.25
 30
0.0
 70
     0
 50
0.0
  0
VERTEX
  5
396
100
AcDbEntity
  8
0
100
AcDbVertex
100
AcDb2dVertex
 10
754.1
 20
-303.45
 30
0.0
 70
     0
 50
0.0
  0
VERTEX
  5
397
100
AcDbEntity
  8
0
100
AcDbVertex
100
AcDb2dVertex
 10
736.9
 20
-303.45
 30
0.0
 70
     0
 50
0.0
  0
VERTEX
  5
398
100
AcDbEntity
  8
0
100
AcDbVertex
100
AcDb2dVertex
 10
736.9
 20
-240.75
 30
0.0
 70
     0
 50
0.0
  0
VERTEX
  5
399
100
AcDbEntity
  8
0
100
AcDbVertex
100
AcDb2dVertex
 10
728.6
 20
-240.75
 30
0.0
 70
     0
 50
0.0
  0
VERTEX
  5
39A
100
AcDbEntity
  8
0
100
AcDbVertex
100
AcDb2dVertex
 10
728.6
 20
-213.75
 30
0.0
 70
     0
 50
0.0
  0
VERTEX
  5
39B
100
AcDbEntity
  8
0
100
AcDbVertex
100
AcDb2dVertex
 10
736.9
 20
-213.75
 30
0.0
 70
     0
 50
0.0
  0
VERTEX
  5
39C
100
AcDbEntity
  8
0
100
AcDbVertex
100
AcDb2dVertex
 10
736.9
 20
-181.45
 30
0.0
 70
     0
 50
0.0
  0
VERTEX
  5
39D
100
AcDbEntity
  8
0
100
AcDbVertex
100
AcDb2dVertex
 10
754.1
 20
-181.45
 30
0.0
 70
     0
 50
0.0
  0
VERTEX
  5
39E
100
AcDbEntity
  8
0
100
AcDbVertex
100
AcDb2dVertex
 10
754.1
 20
-172.25
 30
0.0
 70
     0
 50
0.0
  0
VERTEX
  5
39F
100
AcDbEntity
  8
0
100
AcDbVertex
100
AcDb2dVertex
 10
787.1
 20
-172.25
 30
0.0
 70
     0
 50
0.0
  0
VERTEX
  5
3A0
100
AcDbEntity
  8
0
100
AcDbVertex
100
AcDb2dVertex
 10
787.1
 20
-181.45
 30
0.0
 70
     0
 50
0.0
  0
VERTEX
  5
3A1
100
AcDbEntity
  8
0
100
AcDbVertex
100
AcDb2dVertex
 10
804.3
 20
-181.45
 30
0.0
 70
     0
 50
0.0
  0
VERTEX
  5
3A2
100
AcDbEntity
  8
0
100
AcDbVertex
100
AcDb2dVertex
 10
804.3
 20
-212.75
 30
0.0
 70
     0
 50
0.0
  0
VERTEX
  5
3A3
100
AcDbEntity
  8
0
100
AcDbVertex
100
AcDb2dVertex
 10
1201.0
 20
-212.75
 30
0.0
 70
     0
 50
0.0
  0
VERTEX
  5
3A4
100
AcDbEntity
  8
0
100
AcDbVertex
100
AcDb2dVertex
 10
1201.0
 20
-207.75
 30
0.0
 70
     0
 50
0.0
  0
VERTEX
  5
3A5
100
AcDbEntity
  8
0
100
AcDbVertex
100
AcDb2dVertex
 10
1193.0
 20
-207.75
 30
0.0
 70
     0
 50
0.0
  0
VERTEX
  5
3A6
100
AcDbEntity
  8
0
100
AcDbVertex
100
AcDb2dVertex
 10
1193.0
 20
-176.75
 30
0.0
 70
     0
 50
0.0
  0
VERTEX
  5
3A7
100
AcDbEntity
  8
0
100
AcDbVertex
100
AcDb2dVertex
 10
1201.0
 20
-176.75
 30
0.0
 70
     0
 50
0.0
  0
VERTEX
  5
3A8
100
AcDbEntity
  8
0
100
AcDbVertex
100
AcDb2dVertex
 10
1201.0
 20
-166.75
 30
0.0
 70
     0
 50
0.0
  0
SEQEND
  5
3A9
100
AcDbEntity
  8
0
  0
POLYLINE
  5
3AA
100
AcDbEntity
  8
0
100
AcDb2dPolyline
 66
     1
 10
0.0
 20
0.0
 30
0.0
  0
VERTEX
  5
3AB
100
AcDbEntity
  8
0
100
AcDbVertex
100
AcDb2dVertex
 10
2153.5
 20
-166.75
 30
0.0
 70
     0
 50
0.0
  0
VERTEX
  5
3AC
100
AcDbEntity
  8
0
100
AcDbVertex
100
AcDb2dVertex
 10
2293.5
 20
-166.75
 30
0.0
 70
     0
 50
0.0
  0
VERTEX
  5
3AD
100
AcDbEntity
  8
0
100
AcDbVertex
100
AcDb2dVertex
 10
2293.5
 20
-176.75
 30
0.0
 70
     0
 50
0.0
  0
VERTEX
  5
3AE
100
AcDbEntity
  8
0
100
AcDbVertex
100
AcDb2dVertex
 10
2301.5
 20
-176.75
 30
0.0
 70
     0
 50
0.0
  0
VERTEX
  5
3AF
100
AcDbEntity
  8
0
100
AcDbVertex
100
AcDb2dVertex
 10
2301.5
 20
-207.75
 30
0.0
 70
     0
 50
0.0
  0
VERTEX
  5
3B0
100
AcDbEntity
  8
0
100
AcDbVertex
100
AcDb2dVertex
 10
2293.5
 20
-207.75
 30
0.0
 70
     0
 50
0.0
  0
VERTEX
  5
3B1
100
AcDbEntity
  8
0
100
AcDbVertex
100
AcDb2dVertex
 10
2293.5
 20
-265.75
 30
0.0
 70
     0
 50
0.0
  0
VERTEX
  5
3B2
100
AcDbEntity
  8
0
100
AcDbVertex
100
AcDb2dVertex
 10
2301.5
 20
-265.75
 30
0.0
 70
     0
 50
0.0
  0
VERTEX
  5
3B3
100
AcDbEntity
  8
0
100
AcDbVertex
100
AcDb2dVertex
 10
2301.5
 20
-296.75
 30
0.0
 70
     0
 50
0.0
  0
VERTEX
  5
3B4
100
AcDbEntity
  8
0
100
AcDbVertex
100
AcDb2dVertex
 10
2293.5
 20
-296.75
 30
0.0
 70
     0
 50
0.0
  0
VERTEX
  5
3B5
100
AcDbEntity
  8
0
100
AcDbVertex
100
AcDb2dVertex
 10
2293.5
 20
-306.75
 30
0.0
 70
     0
 50
0.0
  0
VERTEX
  5
3B6
100
AcDbEntity
  8
0
100
AcDbVertex
100
AcDb2dVertex
 10
2153.5
 20
-306.75
 30
0.0
 70
     0
 50
0.0
  0
VERTEX
  5
3B7
100
AcDbEntity
  8
0
100
AcDbVertex
100
AcDb2dVertex
 10
2153.5
 20
-296.75
 30
0.0
 70
     0
 50
0.0
  0
VERTEX
  5
3B8
100
AcDbEntity
  8
0
100
AcDbVertex
100
AcDb2dVertex
 10
2145.5
 20
-296.75
 30
0.0
 70
     0
 50
0.0
  0
VERTEX
  5
3B9
100
AcDbEntity
  8
0
100
AcDbVertex
100
AcDb2dVertex
 10
2145.5
 20
-265.75
 30
0.0
 70
     0
 50
0.0
  0
VERTEX
  5
3BA
100
AcDbEntity
  8
0
100
AcDbVertex
100
AcDb2dVertex
 10
2153.5
 20
-265.75
 30
0.0
 70
     0
 50
0.0
  0
VERTEX
  5
3BB
100
AcDbEntity
  8
0
100
AcDbVertex
100
AcDb2dVertex
 10
2153.5
 20
-207.75
 30
0.0
 70
     0
 50
0.0
  0
VERTEX
  5
3BC
100
AcDbEntity
  8
0
100
AcDbVertex
100
AcDb2dVertex
 10
2145.5
 20
-207.75
 30
0.0
 70
     0
 50
0.0
  0
VERTEX
  5
3BD
100
AcDbEntity
  8
0
100
AcDbVertex
100
AcDb2dVertex
 10
2145.5
 20
-176.75
 30
0.0
 70
     0
 50
0.0
  0
VERTEX
  5
3BE
100
AcDbEntity
  8
0
100
AcDbVertex
100
AcDb2dVertex
 10
2153.5
 20
-176.75
 30
0.0
 70
     0
 50
0.0
  0
VERTEX
  5
3BF
100
AcDbEntity
  8
0
100
AcDbVertex
100
AcDb2dVertex
 10
2153.5
 20
-166.75
 30
0.0
 70
     0
 50
0.0
  0
SEQEND
  5
3C0
100
AcDbEntity
  8
0
  0
POLYLINE
  5
3C1
100
AcDbEntity
  8
0
100
AcDb2dPolyline
 66
     1
 10
0.0
 20
0.0
 30
0.0
  0
VERTEX
  5
3C2
100
AcDbEntity
  8
0
100
AcDbVertex
100
AcDb2dVertex
 10
2344.0
 20
-166.75
 30
0.0
 70
     0
 50
0.0
  0
VERTEX
  5
3C3
100
AcDbEntity
  8
0
100
AcDbVertex
100
AcDb2dVertex
 10
2484.0
 20
-166.75
 30
0.0
 70
     0
 50
0.0
  0
VERTEX
  5
3C4
100
AcDbEntity
  8
0
100
AcDbVertex
100
AcDb2dVertex
 10
2484.0
 20
-176.75
 30
0.0
 70
     0
 50
0.0
  0
VERTEX
  5
3C5
100
AcDbEntity
  8
0
100
AcDbVertex
100
AcDb2dVertex
 10
2492.0
 20
-176.75
 30
0.0
 70
     0
 50
0.0
  0
VERTEX
  5
3C6
100
AcDbEntity
  8
0
100
AcDbVertex
100
AcDb2dVertex
 10
2492.0
 20
-207.75
 30
0.0
 70
     0
 50
0.0
  0
VERTEX
  5
3C7
100
AcDbEntity
  8
0
100
AcDbVertex
100
AcDb2dVertex
 10
2484.0
 20
-207.75
 30
0.0
 70
     0
 50
0.0
  0
VERTEX
  5
3C8
100
AcDbEntity
  8
0
100
AcDbVertex
100
AcDb2dVertex
 10
2484.0
 20
-265.75
 30
0.0
 70
     0
 50
0.0
  0
VERTEX
  5
3C9
100
AcDbEntity
  8
0
100
AcDbVertex
100
AcDb2dVertex
 10
2492.0
 20
-265.75
 30
0.0
 70
     0
 50
0.0
  0
VERTEX
  5
3CA
100
AcDbEntity
  8
0
100
AcDbVertex
100
AcDb2dVertex
 10
2492.0
 20
-296.75
 30
0.0
 70
     0
 50
0.0
  0
VERTEX
  5
3CB
100
AcDbEntity
  8
0
100
AcDbVertex
100
AcDb2dVertex
 10
2484.0
 20
-296.75
 30
0.0
 70
     0
 50
0.0
  0
VERTEX
  5
3CC
100
AcDbEntity
  8
0
100
AcDbVertex
100
AcDb2dVertex
 10
2484.0
 20
-306.75
 30
0.0
 70
     0
 50
0.0
  0
VERTEX
  5
3CD
100
AcDbEntity
  8
0
100
AcDbVertex
100
AcDb2dVertex
 10
2344.0
 20
-306.75
 30
0.0
 70
     0
 50
0.0
  0
VERTEX
  5
3CE
100
AcDbEntity
  8
0
100
AcDbVertex
100
AcDb2dVertex
 10
2344.0
 20
-296.75
 30
0.0
 70
     0
 50
0.0
  0
VERTEX
  5
3CF
100
AcDbEntity
  8
0
100
AcDbVertex
100
AcDb2dVertex
 10
2336.0
 20
-296.75
 30
0.0
 70
     0
 50
0.0
  0
VERTEX
  5
3D0
100
AcDbEntity
  8
0
100
AcDbVertex
100
AcDb2dVertex
 10
2336.0
 20
-265.75
 30
0.0
 70
     0
 50
0.0
  0
VERTEX
  5
3D1
100
AcDbEntity
  8
0
100
AcDbVertex
100
AcDb2dVertex
 10
2344.0
 20
-265.75
 30
0.0
 70
     0
 50
0.0
  0
VERTEX
  5
3D2
100
AcDbEntity
  8
0
100
AcDbVertex
100
AcDb2dVertex
 10
2344.0
 20
-207.75
 30
0.0
 70
     0
 50
0.0
  0
VERTEX
  5
3D3
100
AcDbEntity
  8
0
100
AcDbVertex
100
AcDb2dVertex
 10
2336.0
 20
-207.75
 30
0.0
 70
     0
 50
0.0
  0
VERTEX
  5
3D4
100
AcDbEntity
  8
0
100
AcDbVertex
100
AcDb2dVertex
 10
2336.0
 20
-176.75
 30
0.0
 70
     0
 50
0.0
  0
VERTEX
  5
3D5
100
AcDbEntity
  8
0
100
AcDbVertex
100
AcDb2dVertex
 10
2344.0
 20
-176.75
 30
0.0
 70
     0
 50
0.0
  0
VERTEX
  5
3D6
100
AcDbEntity
  8
0
100
AcDbVertex
100
AcDb2dVertex
 10
2344.0
 20
-166.75
 30
0.0
 70
     0
 50
0.0
  0
SEQEND
  5
3D7
100
AcDbEntity
  8
0
  0
POLYLINE
  5
3D8
100
AcDbEntity
  8
0
100
AcDb2dPolyline
 66
     1
 10
0.0
 20
0.0
 30
0.0
  0
VERTEX
  5
3D9
100
AcDbEntity
  8
0
100
AcDbVertex
100
AcDb2dVertex
 10
35.0
 20
525.0
 30
0.0
 70
     0
 50
0.0
  0
VERTEX
  5
3DA
100
AcDbEntity
  8
0
100
AcDbVertex
100
AcDb2dVertex
 10
34.510565162952
 20
528.09016994375
 30
0.0
 70
     0
 50
0.0
  0
VERTEX
  5
3DB
100
AcDbEntity
  8
0
100
AcDbVertex
100
AcDb2dVertex
 10
33.090169943749
 20
530.877852522925
 30
0.0
 70
     0
 50
0.0
  0
VERTEX
  5
3DC
100
AcDbEntity
  8
0
100
AcDbVertex
100
AcDb2dVertex
 10
30.877852522925
 20
533.09016994375
 30
0.0
 70
     0
 50
0.0
  0
VERTEX
  5
3DD
100
AcDbEntity
  8
0
100
AcDbVertex
100
AcDb2dVertex
 10
28.090169943749
 20
534.510565162951
 30
0.0
 70
     0
 50
0.0
  0
VERTEX
  5
3DE
100
AcDbEntity
  8
0
100
AcDbVertex
100
AcDb2dVertex
 10
25.0
 20
535.0
 30
0.0
 70
     0
 50
0.0
  0
VERTEX
  5
3DF
100
AcDbEntity
  8
0
100
AcDbVertex
100
AcDb2dVertex
 10
21.909830056251
 20
534.510565162951
 30
0.0
 70
     0
 50
0.0
  0
VERTEX
  5
3E0
100
AcDbEntity
  8
0
100
AcDbVertex
100
AcDb2dVertex
 10
19.122147477075
 20
533.09016994375
 30
0.0
 70
     0
 50
0.0
  0
VERTEX
  5
3E1
100
AcDbEntity
  8
0
100
AcDbVertex
100
AcDb2dVertex
 10
16.909830056251
 20
530.877852522925
 30
0.0
 70
     0
 50
0.0
  0
VERTEX
  5
3E2
100
AcDbEntity
  8
0
100
AcDbVertex
100
AcDb2dVertex
 10
15.489434837048
 20
528.09016994375
 30
0.0
 70
     0
 50
0.0
  0
VERTEX
  5
3E3
100
AcDbEntity
  8
0
100
AcDbVertex
100
AcDb2dVertex
 10
15.0
 20
525.0
 30
0.0
 70
     0
 50
0.0
  0
VERTEX
  5
3E4
100
AcDbEntity
  8
0
100
AcDbVertex
100
AcDb2dVertex
 10
15.489434837048
 20
521.90983005625
 30
0.0
 70
     0
 50
0.0
  0
VERTEX
  5
3E5
100
AcDbEntity
  8
0
100
AcDbVertex
100
AcDb2dVertex
 10
16.909830056251
 20
519.122147477075
 30
0.0
 70
     0
 50
0.0
  0
VERTEX
  5
3E6
100
AcDbEntity
  8
0
100
AcDbVertex
100
AcDb2dVertex
 10
19.122147477075
 20
516.90983005625
 30
0.0
 70
     0
 50
0.0
  0
VERTEX
  5
3E7
100
AcDbEntity
  8
0
100
AcDbVertex
100
AcDb2dVertex
 10
21.909830056251
 20
515.489434837049
 30
0.0
 70
     0
 50
0.0
  0
VERTEX
  5
3E8
100
AcDbEntity
  8
0
100
AcDbVertex
100
AcDb2dVertex
 10
25.0
 20
515.0
 30
0.0
 70
     0
 50
0.0
  0
VERTEX
  5
3E9
100
AcDbEntity
  8
0
100
AcDbVertex
100
AcDb2dVertex
 10
28.090169943749
 20
515.489434837049
 30
0.0
 70
     0
 50
0.0
  0
VERTEX
  5
3EA
100
AcDbEntity
  8
0
100
AcDbVertex
100
AcDb2dVertex
 10
30.877852522925
 20
516.90983005625
 30
0.0
 70
     0
 50
0.0
  0
VERTEX
  5
3EB
100
AcDbEntity
  8
0
100
AcDbVertex
100
AcDb2dVertex
 10
33.090169943749
 20
519.122147477075
 30
0.0
 70
     0
 50
0.0
  0
VERTEX
  5
3EC
100
AcDbEntity
  8
0
100
AcDbVertex
100
AcDb2dVertex
 10
34.510565162952
 20
521.90983005625
 30
0.0
 70
     0
 50
0.0
  0
VERTEX
  5
3ED
100
AcDbEntity
  8
0
100
AcDbVertex
100
AcDb2dVertex
 10
35.0
 20
525.0
 30
0.0
 70
     0
 50
0.0
  0
SEQEND
  5
3EE
100
AcDbEntity
  8
0
  0
POLYLINE
  5
3EF
100
AcDbEntity
  8
0
100
AcDb2dPolyline
 66
     1
 10
0.0
 20
0.0
 30
0.0
  0
VERTEX
  5
3F0
100
AcDbEntity
  8
0
100
AcDbVertex
100
AcDb2dVertex
 10
35.0
 20
-331.5
 30
0.0
 70
     0
 50
0.0
  0
VERTEX
  5
3F1
100
AcDbEntity
  8
0
100
AcDbVertex
100
AcDb2dVertex
 10
34.510565162952
 20
-328.409830056251
 30
0.0
 70
     0
 50
0.0
  0
VERTEX
  5
3F2
100
AcDbEntity
  8
0
100
AcDbVertex
100
AcDb2dVertex
 10
33.090169943749
 20
-325.622147477075
 30
0.0
 70
     0
 50
0.0
  0
VERTEX
  5
3F3
100
AcDbEntity
  8
0
100
AcDbVertex
100
AcDb2dVertex
 10
30.877852522925
 20
-323.409830056251
 30
0.0
 70
     0
 50
0.0
  0
VERTEX
  5
3F4
100
AcDbEntity
  8
0
100
AcDbVertex
100
AcDb2dVertex
 10
28.090169943749
 20
-321.989434837048
 30
0.0
 70
     0
 50
0.0
  0
VERTEX
  5
3F5
100
AcDbEntity
  8
0
100
AcDbVertex
100
AcDb2dVertex
 10
25.0
 20
-321.5
 30
0.0
 70
     0
 50
0.0
  0
VERTEX
  5
3F6
100
AcDbEntity
  8
0
100
AcDbVertex
100
AcDb2dVertex
 10
21.909830056251
 20
-321.989434837048
 30
0.0
 70
     0
 50
0.0
  0
VERTEX
  5
3F7
100
AcDbEntity
  8
0
100
AcDbVertex
100
AcDb2dVertex
 10
19.122147477075
 20
-323.409830056251
 30
0.0
 70
     0
 50
0.0
  0
VERTEX
  5
3F8
100
AcDbEntity
  8
0
100
AcDbVertex
100
AcDb2dVertex
 10
16.909830056251
 20
-325.622147477075
 30
0.0
 70
     0
 50
0.0
  0
VERTEX
  5
3F9
100
AcDbEntity
  8
0
100
AcDbVertex
100
AcDb2dVertex
 10
15.489434837048
 20
-328.409830056251
 30
0.0
 70
     0
 50
0.0
  0
VERTEX
  5
3FA
100
AcDbEntity
  8
0
100
AcDbVertex
100
AcDb2dVertex
 10
15.0
 20
-331.5
 30
0.0
 70
     0
 50
0.0
  0
VERTEX
  5
3FB
100
AcDbEntity
  8
0
100
AcDbVertex
100
AcDb2dVertex
 10
15.489434837048
 20
-334.590169943749
 30
0.0
 70
     0
 50
0.0
  0
VERTEX
  5
3FC
100
AcDbEntity
  8
0
100
AcDbVertex
100
AcDb2dVertex
 10
16.909830056251
 20
-337.377852522925
 30
0.0
 70
     0
 50
0.0
  0
VERTEX
  5
3FD
100
AcDbEntity
  8
0
100
AcDbVertex
100
AcDb2dVertex
 10
19.122147477075
 20
-339.590169943749
 30
0.0
 70
     0
 50
0.0
  0
VERTEX
  5
3FE
100
AcDbEntity
  8
0
100
AcDbVertex
100
AcDb2dVertex
 10
21.909830056251
 20
-341.010565162952
 30
0.0
 70
     0
 50
0.0
  0
VERTEX
  5
3FF
100
AcDbEntity
  8
0
100
AcDbVertex
100
AcDb2dVertex
 10
25.0
 20
-341.5
 30
0.0
 70
     0
 50
0.0
  0
VERTEX
  5
400
100
AcDbEntity
  8
0
100
AcDbVertex
100
AcDb2dVertex
 10
28.090169943749
 20
-341.010565162952
 30
0.0
 70
     0
 50
0.0
  0
VERTEX
  5
401
100
AcDbEntity
  8
0
100
AcDbVertex
100
AcDb2dVertex
 10
30.877852522925
 20
-339.590169943749
 30
0.0
 70
     0
 50
0.0
  0
VERTEX
  5
402
100
AcDbEntity
  8
0
100
AcDbVertex
100
AcDb2dVertex
 10
33.090169943749
 20
-337.377852522925
 30
0.0
 70
     0
 50
0.0
  0
VERTEX
  5
403
100
AcDbEntity
  8
0
100
AcDbVertex
100
AcDb2dVertex
 10
34.510565162952
 20
-334.590169943749
 30
0.0
 70
     0
 50
0.0
  0
VERTEX
  5
404
100
AcDbEntity
  8
0
100
AcDbVertex
100
AcDb2dVertex
 10
35.0
 20
-331.5
 30
0.0
 70
     0
 50
0.0
  0
SEQEND
  5
405
100
AcDbEntity
  8
0
  0
POLYLINE
  5
406
100
AcDbEntity
  8
0
100
AcDb2dPolyline
 66
     1
 10
0.0
 20
0.0
 30
0.0
  0
VERTEX
  5
407
100
AcDbEntity
  8
0
100
AcDbVertex
100
AcDb2dVertex
 10
2530.0
 20
525.0
 30
0.0
 70
     0
 50
0.0
  0
VERTEX
  5
408
100
AcDbEntity
  8
0
100
AcDbVertex
100
AcDb2dVertex
 10
2529.510565162951
 20
528.09016994375
 30
0.0
 70
     0
 50
0.0
  0
VERTEX
  5
409
100
AcDbEntity
  8
0
100
AcDbVertex
100
AcDb2dVertex
 10
2528.09016994375
 20
530.877852522925
 30
0.0
 70
     0
 50
0.0
  0
VERTEX
  5
40A
100
AcDbEntity
  8
0
100
AcDbVertex
100
AcDb2dVertex
 10
2525.877852522925
 20
533.09016994375
 30
0.0
 70
     0
 50
0.0
  0
VERTEX
  5
40B
100
AcDbEntity
  8
0
100
AcDbVertex
100
AcDb2dVertex
 10
2523.09016994375
 20
534.510565162951
 30
0.0
 70
     0
 50
0.0
  0
VERTEX
  5
40C
100
AcDbEntity
  8
0
100
AcDbVertex
100
AcDb2dVertex
 10
2520.0
 20
535.0
 30
0.0
 70
     0
 50
0.0
  0
VERTEX
  5
40D
100
AcDbEntity
  8
0
100
AcDbVertex
100
AcDb2dVertex
 10
2516.90983005625
 20
534.510565162951
 30
0.0
 70
     0
 50
0.0
  0
VERTEX
  5
40E
100
AcDbEntity
  8
0
100
AcDbVertex
100
AcDb2dVertex
 10
2514.122147477075
 20
533.09016994375
 30
0.0
 70
     0
 50
0.0
  0
VERTEX
  5
40F
100
AcDbEntity
  8
0
100
AcDbVertex
100
AcDb2dVertex
 10
2511.90983005625
 20
530.877852522925
 30
0.0
 70
     0
 50
0.0
  0
VERTEX
  5
410
100
AcDbEntity
  8
0
100
AcDbVertex
100
AcDb2dVertex
 10
2510.489434837049
 20
528.09016994375
 30
0.0
 70
     0
 50
0.0
  0
VERTEX
  5
411
100
AcDbEntity
  8
0
100
AcDbVertex
100
AcDb2dVertex
 10
2510.0
 20
525.0
 30
0.0
 70
     0
 50
0.0
  0
VERTEX
  5
412
100
AcDbEntity
  8
0
100
AcDbVertex
100
AcDb2dVertex
 10
2510.489434837049
 20
521.90983005625
 30
0.0
 70
     0
 50
0.0
  0
VERTEX
  5
413
100
AcDbEntity
  8
0
100
AcDbVertex
100
AcDb2dVertex
 10
2511.90983005625
 20
519.122147477075
 30
0.0
 70
     0
 50
0.0
  0
VERTEX
  5
414
100
AcDbEntity
  8
0
100
AcDbVertex
100
AcDb2dVertex
 10
2514.122147477075
 20
516.90983005625
 30
0.0
 70
     0
 50
0.0
  0
VERTEX
  5
415
100
AcDbEntity
  8
0
100
AcDbVertex
100
AcDb2dVertex
 10
2516.90983005625
 20
515.489434837049
 30
0.0
 70
     0
 50
0.0
  0
VERTEX
  5
416
100
AcDbEntity
  8
0
100
AcDbVertex
100
AcDb2dVertex
 10
2520.0
 20
515.0
 30
0.0
 70
     0
 50
0.0
  0
VERTEX
  5
417
100
AcDbEntity
  8
0
100
AcDbVertex
100
AcDb2dVertex
 10
2523.09016994375
 20
515.489434837049
 30
0.0
 70
     0
 50
0.0
  0
VERTEX
  5
418
100
AcDbEntity
  8
0
100
AcDbVertex
100
AcDb2dVertex
 10
2525.877852522925
 20
516.90983005625
 30
0.0
 70
     0
 50
0.0
  0
VERTEX
  5
419
100
AcDbEntity
  8
0
100
AcDbVertex
100
AcDb2dVertex
 10
2528.09016994375
 20
519.122147477075
 30
0.0
 70
     0
 50
0.0
  0
VERTEX
  5
41A
100
AcDbEntity
  8
0
100
AcDbVertex
100
AcDb2dVertex
 10
2529.510565162951
 20
521.90983005625
 30
0.0
 70
     0
 50
0.0
  0
VERTEX
  5
41B
100
AcDbEntity
  8
0
100
AcDbVertex
100
AcDb2dVertex
 10
2530.0
 20
525.0
 30
0.0
 70
     0
 50
0.0
  0
SEQEND
  5
41C
100
AcDbEntity
  8
0
  0
POLYLINE
  5
41D
100
AcDbEntity
  8
0
100
AcDb2dPolyline
 66
     1
 10
0.0
 20
0.0
 30
0.0
  0
VERTEX
  5
41E
100
AcDbEntity
  8
0
100
AcDbVertex
100
AcDb2dVertex
 10
2530.0
 20
-331.5
 30
0.0
 70
     0
 50
0.0
  0
VERTEX
  5
41F
100
AcDbEntity
  8
0
100
AcDbVertex
100
AcDb2dVertex
 10
2529.510565162951
 20
-328.409830056251
 30
0.0
 70
     0
 50
0.0
  0
VERTEX
  5
420
100
AcDbEntity
  8
0
100
AcDbVertex
100
AcDb2dVertex
 10
2528.09016994375
 20
-325.622147477075
 30
0.0
 70
     0
 50
0.0
  0
VERTEX
  5
421
100
AcDbEntity
  8
0
100
AcDbVertex
100
AcDb2dVertex
 10
2525.877852522925
 20
-323.409830056251
 30
0.0
 70
     0
 50
0.0
  0
VERTEX
  5
422
100
AcDbEntity
  8
0
100
AcDbVertex
100
AcDb2dVertex
 10
2523.09016994375
 20
-321.989434837048
 30
0.0
 70
     0
 50
0.0
  0
VERTEX
  5
423
100
AcDbEntity
  8
0
100
AcDbVertex
100
AcDb2dVertex
 10
2520.0
 20
-321.5
 30
0.0
 70
     0
 50
0.0
  0
VERTEX
  5
424
100
AcDbEntity
  8
0
100
AcDbVertex
100
AcDb2dVertex
 10
2516.90983005625
 20
-321.989434837048
 30
0.0
 70
     0
 50
0.0
  0
VERTEX
  5
425
100
AcDbEntity
  8
0
100
AcDbVertex
100
AcDb2dVertex
 10
2514.122147477075
 20
-323.409830056251
 30
0.0
 70
     0
 50
0.0
  0
VERTEX
  5
426
100
AcDbEntity
  8
0
100
AcDbVertex
100
AcDb2dVertex
 10
2511.90983005625
 20
-325.622147477075
 30
0.0
 70
     0
 50
0.0
  0
VERTEX
  5
427
100
AcDbEntity
  8
0
100
AcDbVertex
100
AcDb2dVertex
 10
2510.489434837049
 20
-328.409830056251
 30
0.0
 70
     0
 50
0.0
  0
VERTEX
  5
428
100
AcDbEntity
  8
0
100
AcDbVertex
100
AcDb2dVertex
 10
2510.0
 20
-331.5
 30
0.0
 70
     0
 50
0.0
  0
VERTEX
  5
429
100
AcDbEntity
  8
0
100
AcDbVertex
100
AcDb2dVertex
 10
2510.489434837049
 20
-334.590169943749
 30
0.0
 70
     0
 50
0.0
  0
VERTEX
  5
42A
100
AcDbEntity
  8
0
100
AcDbVertex
100
AcDb2dVertex
 10
2511.90983005625
 20
-337.377852522925
 30
0.0
 70
     0
 50
0.0
  0
VERTEX
  5
42B
100
AcDbEntity
  8
0
100
AcDbVertex
100
AcDb2dVertex
 10
2514.122147477075
 20
-339.590169943749
 30
0.0
 70
     0
 50
0.0
  0
VERTEX
  5
42C
100
AcDbEntity
  8
0
100
AcDbVertex
100
AcDb2dVertex
 10
2516.90983005625
 20
-341.010565162952
 30
0.0
 70
     0
 50
0.0
  0
VERTEX
  5
42D
100
AcDbEntity
  8
0
100
AcDbVertex
100
AcDb2dVertex
 10
2520.0
 20
-341.5
 30
0.0
 70
     0
 50
0.0
  0
VERTEX
  5
42E
100
AcDbEntity
  8
0
100
AcDbVertex
100
AcDb2dVertex
 10
2523.09016994375
 20
-341.010565162952
 30
0.0
 70
     0
 50
0.0
  0
VERTEX
  5
42F
100
AcDbEntity
  8
0
100
AcDbVertex
100
AcDb2dVertex
 10
2525.877852522925
 20
-339.590169943749
 30
0.0
 70
     0
 50
0.0
  0
VERTEX
  5
430
100
AcDbEntity
  8
0
100
AcDbVertex
100
AcDb2dVertex
 10
2528.09016994375
 20
-337.377852522925
 30
0.0
 70
     0
 50
0.0
  0
VERTEX
  5
431
100
AcDbEntity
  8
0
100
AcDbVertex
100
AcDb2dVertex
 10
2529.510565162951
 20
-334.590169943749
 30
0.0
 70
     0
 50
0.0
  0
VERTEX
  5
432
100
AcDbEntity
  8
0
100
AcDbVertex
100
AcDb2dVertex
 10
2530.0
 20
-331.5
 30
0.0
 70
     0
 50
0.0
  0
SEQEND
  5
433
100
AcDbEntity
  8
0
  0
POLYLINE
  5
434
100
AcDbEntity
  8
0
100
AcDb2dPolyline
 66
     1
 10
0.0
 20
0.0
 30
0.0
  0
VERTEX
  5
435
100
AcDbEntity
  8
0
100
AcDbVertex
100
AcDb2dVertex
 10
0.0
 20
550.0
 30
0.0
 70
     0
 50
0.0
  0
VERTEX
  5
436
100
AcDbEntity
  8
0
100
AcDbVertex
100
AcDb2dVertex
 10
2545.0
 20
550.0
 30
0.0
 70
     0
 50
0.0
  0
VERTEX
  5
437
100
AcDbEntity
  8
0
100
AcDbVertex
100
AcDb2dVertex
 10
2545.0
 20
-356.5
 30
0.0
 70
     0
 50
0.0
  0
VERTEX
  5
438
100
AcDbEntity
  8
0
100
AcDbVertex
100
AcDb2dVertex
 10
0.0
 20
-356.5
 30
0.0
 70
     0
 50
0.0
  0
VERTEX
  5
439
100
AcDbEntity
  8
0
100
AcDbVertex
100
AcDb2dVertex
 10
0.0
 20
550.0
 30
0.0
 70
     0
 50
0.0
  0
SEQEND
  5
43A
100
AcDbEntity
  8
0
  0
ENDSEC
  0
SECTION
  2
OBJECTS
  0
ENDSEC
  0
EOF
